<svg width="40" height="40" viewBox="0 0 40 40" fill="none" xmlns="http://www.w3.org/2000/svg">
<path d="M7.4987 3.3335C5.19751 3.3335 3.33203 5.19898 3.33203 7.50016V32.5002C3.33203 34.8013 5.19751 36.6668 7.4987 36.6668H19.1654C21.4666 36.6668 23.332 34.8013 23.332 32.5002V30.8335C23.332 30.3733 22.9589 30.0002 22.4987 30.0002C22.0385 30.0002 21.6654 30.3733 21.6654 30.8335V32.5002C21.6654 33.8809 20.5461 35.0002 19.1654 35.0002H7.4987C6.11799 35.0002 4.9987 33.8809 4.9987 32.5002V7.50016C4.9987 6.11945 6.11799 5.00016 7.4987 5.00016H19.1654C20.5461 5.00016 21.6654 6.11945 21.6654 7.50016V8.3335C21.6654 8.79373 22.0385 9.16683 22.4987 9.16683C22.9589 9.16683 23.332 8.79373 23.332 8.3335V7.50016C23.332 5.19898 21.4666 3.3335 19.1654 3.3335H7.4987Z" fill="#697786"/>
<path d="M23.332 20.0002C24.2525 20.0002 24.9987 19.254 24.9987 18.3335C24.9987 17.413 24.2525 16.6668 23.332 16.6668C22.4116 16.6668 21.6654 17.413 21.6654 18.3335C21.6654 19.254 22.4116 20.0002 23.332 20.0002Z" fill="#697786"/>
<path d="M29.9987 18.3335C29.9987 19.254 29.2525 20.0002 28.332 20.0002C27.4116 20.0002 26.6654 19.254 26.6654 18.3335C26.6654 17.413 27.4116 16.6668 28.332 16.6668C29.2525 16.6668 29.9987 17.413 29.9987 18.3335Z" fill="#697786"/>
<path d="M18.332 20.0002C19.2525 20.0002 19.9987 19.254 19.9987 18.3335C19.9987 17.413 19.2525 16.6668 18.332 16.6668C17.4116 16.6668 16.6654 17.413 16.6654 18.3335C16.6654 19.254 17.4116 20.0002 18.332 20.0002Z" fill="#697786"/>
<path fill-rule="evenodd" clip-rule="evenodd" d="M16.6654 26.5001C12.8616 25.728 9.9987 22.3651 9.9987 18.3335C9.9987 13.7311 13.7297 10.0002 18.332 10.0002H28.332C32.9344 10.0002 36.6654 13.7311 36.6654 18.3335C36.6654 22.9359 32.9344 26.6668 28.332 26.6668H25.4097L17.8953 30.7331C17.6371 30.8728 17.3243 30.8663 17.0721 30.716C16.8199 30.5657 16.6654 30.2938 16.6654 30.0002V26.5001ZM11.6654 18.3335C11.6654 14.6516 14.6501 11.6668 18.332 11.6668H28.332C32.0139 11.6668 34.9987 14.6516 34.9987 18.3335C34.9987 22.0154 32.0139 25.0002 28.332 25.0002H25.2143C25.2034 24.9999 25.1925 24.9999 25.1816 25.0002H24.9987V25.0243C24.9317 25.0409 24.8656 25.0662 24.8021 25.1006L18.332 28.6017V25.0002C14.6501 25.0002 11.6654 22.0154 11.6654 18.3335Z" fill="#697786"/>
<path d="M13.332 33.3335C14.2525 33.3335 14.9987 32.5873 14.9987 31.6668C14.9987 30.7464 14.2525 30.0002 13.332 30.0002C12.4116 30.0002 11.6654 30.7464 11.6654 31.6668C11.6654 32.5873 12.4116 33.3335 13.332 33.3335Z" fill="#697786"/>
</svg>
