<svg width="70" height="88" viewBox="0 0 70 88" fill="none" xmlns="http://www.w3.org/2000/svg">
<path d="M11 8C11 3.58172 14.5817 0 19 0H51C55.4183 0 59 3.58172 59 8V40C59 44.4183 55.4183 48 51 48H19C14.5817 48 11 44.4183 11 40V8Z" fill="#003FCA"/>
<path d="M33 29.5C33 29.2239 33.2239 29 33.5 29H36.5C36.7761 29 37 29.2239 37 29.5C37 29.7761 36.7761 30 36.5 30H33.5C33.2239 30 33 29.7761 33 29.5Z" fill="#F2F6FF"/>
<path fill-rule="evenodd" clip-rule="evenodd" d="M34.83 13C36.2012 13 37.5162 13.5447 38.4857 14.5143C39.4553 15.4838 40 16.7988 40 18.17V21H41.5C42.3284 21 43 21.6716 43 22.5V30.5C43 32.433 41.433 34 39.5 34H30.5C28.567 34 27 32.433 27 30.5V22.5C27 21.6716 27.6716 21 28.5 21H39V18.17C39 17.064 38.5607 16.0034 37.7786 15.2214C36.9967 14.4395 35.9363 14.0001 34.8305 14C33.7263 14.0025 32.6682 14.4429 31.8882 15.2245C31.1081 16.0063 30.67 17.0656 30.67 18.17C30.67 18.4461 30.4461 18.67 30.17 18.67C29.8939 18.67 29.67 18.4461 29.67 18.17C29.67 16.8007 30.2132 15.4874 31.1803 14.5182C32.1475 13.5489 33.4597 13.0029 34.8289 13L34.83 13.5V13ZM42 22.5C42 22.2239 41.7761 22 41.5 22H28.5C28.2239 22 28 22.2239 28 22.5V30.5C28 31.8807 29.1193 33 30.5 33H39.5C40.8807 33 42 31.8807 42 30.5V22.5Z" fill="#F2F6FF"/>
<rect y="52" width="70" height="36" rx="4" fill="#00164E"/>
<path d="M14.2371 74.168C12.4731 74.168 11.2251 73.256 10.6611 71.912L11.8491 71.288C12.3771 72.332 13.1931 72.836 14.2971 72.836C15.3771 72.836 16.1091 72.488 16.1091 71.684C16.1091 70.916 15.5571 70.556 14.0931 70.124C12.3771 69.62 10.9971 69.152 10.9971 67.46C10.9971 65.948 12.2331 64.952 14.0331 64.952C15.7851 64.952 16.8171 65.816 17.3571 66.86L16.2651 67.616C15.7371 66.728 14.9811 66.32 14.0211 66.32C13.0371 66.32 12.4731 66.68 12.4731 67.328C12.4731 68.156 13.1091 68.432 14.5611 68.864C16.2411 69.356 17.5851 69.908 17.5851 71.576C17.5851 73.028 16.3491 74.168 14.2371 74.168ZM20.595 66.524H19.083V65.24H20.595V66.524ZM20.583 74H19.095V67.628H20.583V74ZM24.7406 71.036C25.5446 71.036 26.0246 70.616 26.0246 69.836C26.0246 69.044 25.5686 68.612 24.7286 68.612C23.9126 68.612 23.4326 69.056 23.4326 69.836C23.4326 70.616 23.9246 71.036 24.7406 71.036ZM24.7046 76.472C22.5086 76.472 21.6326 75.836 21.6326 74.912C21.6326 74.276 22.0286 73.82 22.6766 73.568C22.3526 73.4 22.1846 73.136 22.1846 72.788C22.1846 72.308 22.5686 71.912 23.0486 71.624C22.4006 71.216 22.0406 70.568 22.0406 69.788C22.0406 68.48 23.0486 67.508 24.7166 67.508C25.5926 67.508 26.2406 67.796 26.6726 68.18C27.0806 67.856 27.7286 67.604 28.2566 67.556V68.756C27.9686 68.756 27.5606 68.792 27.1406 68.924C27.2846 69.152 27.3686 69.452 27.3686 69.788C27.3686 71.12 26.3726 72.056 24.7166 72.056C24.3566 72.056 24.1406 72.008 23.8286 71.924C23.6366 72.032 23.5046 72.164 23.5046 72.332C23.5046 72.584 23.6726 72.668 24.2366 72.716L25.3646 72.788C27.2486 72.908 27.9926 73.412 27.9926 74.528C27.9926 75.836 26.6726 76.472 24.7046 76.472ZM24.9326 75.404C26.0126 75.404 26.6846 75.116 26.6846 74.66C26.6846 74.204 26.3606 74.036 25.0646 73.952L23.9606 73.88C23.8286 73.88 23.7086 73.868 23.5766 73.844C23.1566 74.036 22.9886 74.336 22.9886 74.66C22.9886 75.224 23.6366 75.404 24.9326 75.404ZM30.8355 74H29.3595V67.628H30.8355V68.648C31.3155 68.096 32.0595 67.508 33.1155 67.508C34.2795 67.508 34.9995 68.108 34.9995 69.368V74H33.5235V69.788C33.5235 69.092 33.2355 68.732 32.5635 68.732C31.9155 68.732 31.3755 69.056 30.8355 69.56V74ZM43.3577 74.168C41.1017 74.168 39.3377 72.548 39.3377 69.56C39.3377 66.572 41.1017 64.952 43.3577 64.952C45.6017 64.952 47.3537 66.572 47.3537 69.56C47.3537 72.548 45.6017 74.168 43.3577 74.168ZM43.3577 72.812C44.8457 72.812 45.8417 71.648 45.8417 69.56C45.8417 67.472 44.8457 66.332 43.3577 66.332C41.8457 66.332 40.8497 67.472 40.8497 69.56C40.8497 71.648 41.8457 72.812 43.3577 72.812ZM50.4006 74.12C49.2846 74.12 48.5646 73.46 48.5646 72.2V67.628H50.0526V71.852C50.0526 72.56 50.3526 72.884 51.0006 72.884C51.6486 72.884 52.1886 72.548 52.7286 72.056V67.628H54.2166V74H52.7286V73.136C52.3206 73.568 51.5526 74.12 50.4006 74.12ZM58.3391 74.084C56.7191 74.084 56.3711 73.484 56.3711 72.332V68.804H55.2671V67.628H56.3711V65.408H57.8471V67.628H59.4911V68.804H57.8471V71.96C57.8471 72.644 58.0511 72.92 58.7831 72.92C58.9991 72.92 59.2751 72.884 59.4191 72.836V74C59.2631 74.036 58.7111 74.084 58.3391 74.084Z" fill="#F2F6FF"/>
</svg>
