<svg width="24" height="24" viewBox="0 0 24 24" fill="none" xmlns="http://www.w3.org/2000/svg">
<path d="M17.5 3C17.2239 3 17 3.22386 17 3.5C17 3.77614 17.2239 4 17.5 4H19.2847L15.9226 7.28645L11.2515 4.56786C11.08 4.46804 10.8657 4.4791 10.7054 4.59606L5.34535 8.50606C5.12226 8.6688 5.07333 8.98158 5.23607 9.20467C5.39882 9.42776 5.71159 9.47668 5.93469 9.31394L11.0308 5.59644L15.7485 8.34214C15.9428 8.45523 16.1887 8.42472 16.3495 8.26755L20 4.6992V6.5C20 6.77614 20.2239 7 20.5 7C20.7761 7 21 6.77614 21 6.5V3.5C21 3.22386 20.7761 3 20.5 3H17.5Z" fill="#0033AA"/>
<path fill-rule="evenodd" clip-rule="evenodd" d="M9.5 11C9.22386 11 9 11.2239 9 11.5V20H8V13.5C8 13.2239 7.77614 13 7.5 13H4.5C4.22386 13 4 13.2239 4 13.5V20H3C2.72386 20 2.5 20.2239 2.5 20.5C2.5 20.7761 2.72386 21 3 21H20C20.2761 21 20.5 20.7761 20.5 20.5C20.5 20.2239 20.2761 20 20 20H18V13.5C18 13.2239 17.7761 13 17.5 13H14.5C14.2239 13 14 13.2239 14 13.5V20H13V11.5C13 11.2239 12.7761 11 12.5 11H9.5ZM12 20V12H10V20H12ZM7 14V20H5V14H7ZM17 20V14H15V20H17Z" fill="#0033AA"/>
</svg>
