<svg width="24" height="24" viewBox="0 0 24 24" fill="none" xmlns="http://www.w3.org/2000/svg">
<path d="M10 1.5C10.2761 1.5 10.5 1.72386 10.5 2V5C10.5 5.27614 10.2761 5.5 10 5.5C9.72386 5.5 9.5 5.27614 9.5 5V2C9.5 1.72386 9.72386 1.5 10 1.5Z" fill="#0033AA"/>
<path d="M11 13.1314C10.9998 13.1241 10.9998 13.1168 11 13.1095V9C11 8.44772 10.5523 8 10 8C9.44772 8 9 8.44772 9 9V16.5C9 16.7761 8.77614 17 8.5 17C8.23315 17 8.01513 16.791 8.00075 16.5277C7.97611 16.5127 7.95242 16.4954 7.93 16.4757L6.52412 15.2405C6.34647 15.0795 6.11351 14.9932 5.87381 14.9999C5.86632 15.0001 5.85882 15.0001 5.85132 15C5.73293 14.9979 5.61531 15.0195 5.50537 15.0635C5.39542 15.1075 5.29535 15.173 5.21103 15.2561L5.208 15.2591C5.12818 15.3365 5.0647 15.4291 5.02135 15.5315C4.97802 15.6338 4.95569 15.7438 4.95569 15.8551C4.95569 15.9663 4.97802 16.0763 5.02135 16.1787C5.0647 16.281 5.12816 16.3737 5.20798 16.451L5.21706 16.4598L9.81695 21.1499C10.0103 21.3471 10.0072 21.6637 9.8101 21.857C9.61296 22.0504 9.29639 22.0473 9.10303 21.8502L4.50709 17.1643C4.33338 16.9947 4.19515 16.7921 4.10048 16.5685C4.0049 16.3428 3.95569 16.1001 3.95569 15.8551C3.95569 15.61 4.0049 15.3674 4.10048 15.1416C4.19576 14.9165 4.33516 14.7128 4.51046 14.5425C4.6892 14.3667 4.90116 14.2282 5.13398 14.135C5.36397 14.043 5.60976 13.9972 5.85738 14C6.34947 13.9892 6.82719 14.1669 7.1927 14.4968L8 15.2061V9C8 7.89543 8.89543 7 10 7C11.1046 7 12 7.89543 12 9V12.7344L15.4208 13.6323C16.1393 13.7724 16.7879 14.1554 17.2577 14.7174C17.7313 15.284 17.9936 15.9974 18 16.7358L18 16.7401L18 21.5001C18 21.7763 17.7761 22.0001 17.5 22.0001C17.2239 22.0001 17 21.7763 17 21.5001V16.7424C16.9952 16.2361 16.8151 15.7472 16.4904 15.3587C16.1653 14.9697 15.7152 14.7056 15.2171 14.6114C15.2057 14.6092 15.1943 14.6067 15.1831 14.6037L12 13.7683V14.5C12 14.7761 11.7761 15 11.5 15C11.2239 15 11 14.7761 11 14.5V13.1314Z" fill="#0033AA"/>
<path d="M5.35355 3.6464C5.15829 3.45114 4.84171 3.45114 4.64645 3.6464C4.45118 3.84166 4.45118 4.15824 4.64645 4.35351L6.76777 6.47483C6.96303 6.67009 7.27961 6.67009 7.47487 6.47483C7.67014 6.27957 7.67014 5.96298 7.47487 5.76772L5.35355 3.6464Z" fill="#0033AA"/>
<path d="M15.4748 3.64645C15.6701 3.84171 15.6701 4.15829 15.4748 4.35355L13.3535 6.47487C13.1583 6.67014 12.8417 6.67014 12.6464 6.47487C12.4512 6.27961 12.4512 5.96303 12.6464 5.76777L14.7677 3.64645C14.963 3.45118 15.2796 3.45118 15.4748 3.64645Z" fill="#0033AA"/>
<path d="M14 8C13.7239 8 13.5 8.22386 13.5 8.5C13.5 8.77614 13.7239 9 14 9H17C17.2761 9 17.5 8.77614 17.5 8.5C17.5 8.22386 17.2761 8 17 8H14Z" fill="#0033AA"/>
<path d="M2.5 8.5C2.5 8.22386 2.72386 8 3 8H6C6.27614 8 6.5 8.22386 6.5 8.5C6.5 8.77614 6.27614 9 6 9H3C2.72386 9 2.5 8.77614 2.5 8.5Z" fill="#0033AA"/>
</svg>
