<svg width="48" height="48" viewBox="0 0 48 48" fill="none" xmlns="http://www.w3.org/2000/svg">
<g clip-path="url(#clip0_3787_34440)">
<path d="M0 8C0 3.58172 3.58172 0 8 0H40C44.4183 0 48 3.58172 48 8V40C48 44.4183 44.4183 48 40 48H8C3.58172 48 0 44.4183 0 40V8Z" fill="#0033AA"/>
<path fill-rule="evenodd" clip-rule="evenodd" d="M14 24C14 18.4772 18.4772 14 24 14C29.5228 14 34 18.4772 34 24C34 29.5228 29.5228 34 24 34C18.4772 34 14 29.5228 14 24ZM24 15C19.0294 15 15 19.0294 15 24C15 26.2383 15.8171 28.2858 17.1693 29.8604C17.4831 28.6565 18.1383 27.5597 19.0669 26.7084C19.8158 26.0219 20.7085 25.5264 21.6693 25.2512C20.6584 24.5253 20 23.3395 20 22C20 19.7909 21.7909 18 24 18C26.2091 18 28 19.7909 28 22C28 23.3446 27.3366 24.5342 26.3192 25.2594C27.2692 25.5363 28.1516 26.0287 28.8931 26.7084C29.8309 27.5681 30.4898 28.6782 30.7999 29.8961C32.1705 28.3168 33 26.2553 33 24C33 19.0294 28.9706 15 24 15ZM23.9858 26L24 26L24.0142 26H24.48L24.4817 26C25.8644 25.9952 27.1981 26.5113 28.2173 27.4456C29.165 28.3143 29.7761 29.4852 29.9499 30.7528C28.3637 32.1515 26.281 33 24 33C21.7019 33 19.605 32.1387 18.0145 30.7213C18.194 29.4658 18.8029 28.3071 19.7426 27.4456C20.7619 26.5113 22.0956 25.9952 23.4783 26L23.48 26H23.9858ZM24.0123 25C25.6635 24.9933 27 23.6527 27 22C27 20.3431 25.6569 19 24 19C22.3431 19 21 20.3431 21 22C21 23.6527 22.3365 24.9933 23.9877 25H24.0123Z" fill="#F2F6FF"/>
</g>
<defs>
<clipPath id="clip0_3787_34440">
<rect width="48" height="48" fill="white"/>
</clipPath>
</defs>
</svg>
