<svg width="24" height="24" viewBox="0 0 24 24" fill="none" xmlns="http://www.w3.org/2000/svg">
<path d="M16.8633 8.16182C17.061 8.33125 17.0839 8.62886 16.9144 8.82653L10.8964 15.8476C10.8109 15.9473 10.6878 16.0068 10.5565 16.0119C10.4253 16.0169 10.298 15.967 10.2051 15.8741L7.19609 12.8651C7.01199 12.681 7.01199 12.3825 7.19609 12.1984C7.38019 12.0143 7.67867 12.0143 7.86277 12.1984L10.5118 14.8475L16.1986 8.21295C16.368 8.01527 16.6656 7.99238 16.8633 8.16182Z" fill="white"/>
<path fill-rule="evenodd" clip-rule="evenodd" d="M2.04297 12.0303C2.04297 6.50743 6.52012 2.03027 12.043 2.03027C17.5658 2.03027 22.043 6.50743 22.043 12.0303C22.043 17.5531 17.5658 22.0303 12.043 22.0303C6.52012 22.0303 2.04297 17.5531 2.04297 12.0303ZM12.043 2.9731C7.04083 2.9731 2.9858 7.02814 2.9858 12.0303C2.9858 17.0324 7.04083 21.0874 12.043 21.0874C17.0451 21.0874 21.1001 17.0324 21.1001 12.0303C21.1001 7.02814 17.0451 2.9731 12.043 2.9731Z" fill="white"/>
</svg>
