<svg width="24" height="24" viewBox="0 0 24 24" fill="none" xmlns="http://www.w3.org/2000/svg">
<path fill-rule="evenodd" clip-rule="evenodd" d="M8.5 5C8.5 4.20435 8.81607 3.44129 9.37868 2.87868C9.94129 2.31607 10.7044 2 11.5 2H13.5C14.2956 2 15.0587 2.31607 15.6213 2.87868C16.1839 3.44129 16.5 4.20435 16.5 5L19 5C19.2761 5 19.5 5.22386 19.5 5.5C19.5 5.77614 19.2761 6 19 6H6C5.72386 6 5.5 5.77614 5.5 5.5C5.5 5.22386 5.72386 5 6 5L8.5 5ZM10.0858 3.58578C10.4609 3.21071 10.9696 3 11.5 3H13.5C14.0304 3 14.5391 3.21071 14.9142 3.58578C15.2893 3.96086 15.5 4.46957 15.5 5H9.5C9.5 4.46957 9.71071 3.96086 10.0858 3.58578Z" fill="#697786"/>
<path d="M11 10C11.2761 10 11.5 10.2239 11.5 10.5V18.46C11.5 18.7361 11.2761 18.96 11 18.96C10.7239 18.96 10.5 18.7361 10.5 18.46V10.5C10.5 10.2239 10.7239 10 11 10Z" fill="#697786"/>
<path d="M14.5 10.5C14.5 10.2239 14.2761 10 14 10C13.7239 10 13.5 10.2239 13.5 10.5V18.5C13.5 18.7761 13.7239 19 14 19C14.2761 19 14.5 18.7761 14.5 18.5V10.5Z" fill="#697786"/>
<path fill-rule="evenodd" clip-rule="evenodd" d="M6.5 7.5C6.5 7.22386 6.72386 7 7 7H18C18.2761 7 18.5 7.22386 18.5 7.5V18.955C18.5 18.9657 18.4997 18.9764 18.499 18.9871C18.4441 19.8379 18.053 20.6319 17.4119 21.1953C16.7749 21.7552 15.9426 22.0421 15.0955 21.995H9.90447C9.05737 22.0421 8.22511 21.7552 7.58808 21.1953C6.94703 20.6319 6.55589 19.8379 6.50104 18.9871C6.50035 18.9764 6.5 18.9657 6.5 18.955V7.5ZM16.7518 20.4442C17.1903 20.0588 17.4586 19.5177 17.5 18.938V8H7.5V18.938C7.5414 19.5177 7.80974 20.0588 8.24824 20.4442C8.69065 20.833 9.27014 21.0316 9.85979 20.9959C9.86985 20.9953 9.87992 20.995 9.89 20.995H15.11C15.1201 20.995 15.1302 20.9953 15.1402 20.9959C15.7299 21.0316 16.3094 20.833 16.7518 20.4442Z" fill="#697786"/>
</svg>
