<svg width="24" height="24" viewBox="0 0 24 24" fill="none" xmlns="http://www.w3.org/2000/svg">
<path d="M12 20C12.5523 20 13 19.5523 13 19C13 18.4477 12.5523 18 12 18C11.4477 18 11 18.4477 11 19C11 19.5523 11.4477 20 12 20Z" fill="#0033AA"/>
<path fill-rule="evenodd" clip-rule="evenodd" d="M5.99999 4.88952C5.99754 4.82197 5.99754 4.75444 5.99999 4.68708L5.99999 4.5C5.99999 3.11929 7.11928 2 8.49999 2H15.5C16.8807 2 18 3.11929 18 4.5V4.68707C18.0024 4.75444 18.0024 4.82197 18 4.88953V19.1105C18.0024 19.178 18.0024 19.2456 18 19.3129V19.5C18 20.8807 16.8807 22 15.5 22H8.49999C7.11928 22 5.99999 20.8807 5.99999 19.5V19.3129C5.99754 19.2456 5.99754 19.178 5.99999 19.1105V4.88952ZM8.71021 3C8.4782 3.01011 8.25035 3.06528 8.03936 3.16245C7.82564 3.26088 7.63342 3.40048 7.4737 3.57326C7.31398 3.74605 7.1899 3.94863 7.10855 4.16942C7.04483 4.34233 7.00831 4.52375 6.99999 4.70723V19.2928C7.00831 19.4762 7.04483 19.6577 7.10855 19.8306C7.1899 20.0514 7.31398 20.2539 7.4737 20.4267C7.63342 20.5995 7.82564 20.7391 8.03936 20.8376C8.25035 20.9347 8.47821 20.9899 8.71023 21H15.2898C15.5218 20.9899 15.7496 20.9347 15.9606 20.8376C16.1743 20.7391 16.3666 20.5995 16.5263 20.4267C16.686 20.2539 16.8101 20.0514 16.8914 19.8306C16.9551 19.6577 16.9917 19.4762 17 19.2928V4.70724C16.9917 4.52376 16.9551 4.34233 16.8914 4.16942C16.8101 3.94863 16.686 3.74605 16.5263 3.57326C16.3666 3.40048 16.1743 3.26087 15.9606 3.16245C15.7496 3.06528 15.5218 3.01011 15.2898 3H8.71021Z" fill="#0033AA"/>
</svg>
