<svg width="18" height="18" viewBox="0 0 18 18" fill="none" xmlns="http://www.w3.org/2000/svg">
<path d="M9 0.5C13.6944 0.5 17.5 4.30558 17.5 9C17.5 13.6944 13.6944 17.5 9 17.5C4.30558 17.5 0.5 13.6944 0.5 9C0.5 4.30558 4.30558 0.5 9 0.5Z" fill="white" stroke="#F4F5F7"/>
<path d="M3.34312 14.6569C0.218938 11.5327 0.218938 6.46736 3.34312 3.34314C3.34291 3.34348 7.95653 9.00001 7.95653 9.00001L3.34312 14.6569Z" fill="#02070D"/>
<path d="M7.95653 9.00002L2.06103 5.01605C1.87825 5.33377 1.71706 5.6654 1.57856 6.00865L4.56322 9.00005L1.57866 11.9916C1.71703 12.3346 1.87806 12.666 2.06072 12.9835L7.95653 9.00002Z" fill="#FFDA2C"/>
<path d="M16.9323 7.95654H7.95631L3.34306 3.34326C2.84594 3.84039 2.41403 4.40261 2.06103 5.01607L6.03725 9.00001L2.06072 12.9834C2.41372 13.5971 2.84581 14.1595 3.34306 14.6567L7.95631 10.0435H16.9323C16.9768 9.70192 17 9.35367 17 9.00001C17 8.64635 16.9768 8.2981 16.9323 7.95654Z" fill="#249F58"/>
<path d="M4.12931 15.3462C5.47834 16.3831 7.167 17 9 17C12.6962 17 15.8064 14.4931 16.7244 11.087H8.38853L4.12931 15.3462Z" fill="#1A47B8"/>
<path d="M16.7244 6.91303C15.8064 3.50691 12.6962 1 9 1C7.167 1 5.47834 1.61691 4.12931 2.65384L8.3885 6.91303H16.7244Z" fill="#F93939"/>
</svg>
