<svg width="20" height="20" viewBox="0 0 20 20" fill="none" xmlns="http://www.w3.org/2000/svg">
<g clip-path="url(#clip0_4553_8434)">
<path d="M2.92892 17.0709C-0.976308 13.1656 -0.976308 6.83398 2.92892 2.92871C2.92865 2.92914 8.69568 9.9998 8.69568 9.9998L2.92892 17.0709Z" fill="#02070D"/>
<path d="M8.69511 10.0005L1.32574 5.02051C1.09727 5.41766 0.895781 5.83219 0.722656 6.26125L4.45347 10.0005L0.722773 13.74C0.895742 14.1687 1.09703 14.583 1.32535 14.9798L8.69511 10.0005Z" fill="#FFDA2C"/>
<path d="M19.9137 8.69531H8.69371L2.92715 2.92871C2.30574 3.55012 1.76586 4.25289 1.32461 5.01973L6.29488 9.99965L1.32422 14.9789C1.76547 15.746 2.30559 16.449 2.92715 17.0705L8.69371 11.304H19.9137C19.9693 10.877 19.9983 10.4417 19.9983 9.99965C19.9983 9.55758 19.9693 9.12226 19.9137 8.69531Z" fill="#249F58"/>
<path d="M3.91016 17.9324C5.59645 19.2286 7.70727 19.9997 9.99852 19.9997C14.6188 19.9997 18.5065 16.8661 19.654 12.6084H9.23418L3.91016 17.9324Z" fill="#1A47B8"/>
<path d="M19.654 7.39129C18.5065 3.13363 14.6188 0 9.99852 0C7.70727 0 5.59645 0.771133 3.91016 2.0673L9.23414 7.39129H19.654Z" fill="#F93939"/>
</g>
<defs>
<clipPath id="clip0_4553_8434">
<rect width="20" height="20" fill="white"/>
</clipPath>
</defs>
</svg>
