<svg width="20" height="20" viewBox="0 0 20 20" fill="none" xmlns="http://www.w3.org/2000/svg">
<path d="M14 0.5C14 0.223858 14.2239 0 14.5 0H17.5C18.163 0 18.7989 0.263392 19.2678 0.732233C19.7366 1.20107 20 1.83696 20 2.5V5.5C20 5.77614 19.7761 6 19.5 6C19.2239 6 19 5.77614 19 5.5V2.5C19 2.10217 18.842 1.72064 18.5607 1.43934C18.2794 1.15804 17.8978 1 17.5 1H14.5C14.2239 1 14 0.776142 14 0.5Z" fill="white"/>
<path d="M1 14.5C1 14.2239 0.776142 14 0.5 14C0.223858 14 0 14.2239 0 14.5V17.5C0 18.163 0.26339 18.7989 0.732231 19.2678C1.20107 19.7366 1.83696 20 2.5 20H5.5C5.77614 20 6 19.7761 6 19.5C6 19.2239 5.77614 19 5.5 19H2.5C2.10218 19 1.72064 18.842 1.43934 18.5607C1.15803 18.2794 1 17.8978 1 17.5V14.5Z" fill="white"/>
<path d="M20 14.5C20 14.2239 19.7761 14 19.5 14C19.2239 14 19 14.2239 19 14.5V17.5C19 17.8978 18.842 18.2794 18.5607 18.5607C18.2794 18.842 17.8978 19 17.5 19H14.5C14.2239 19 14 19.2239 14 19.5C14 19.7761 14.2239 20 14.5 20H17.5C18.163 20 18.7989 19.7366 19.2678 19.2678C19.7366 18.7989 20 18.163 20 17.5V14.5Z" fill="white"/>
<path d="M1.43934 1.43934C1.72064 1.15804 2.10217 1 2.5 1H5.5C5.77614 1 6 0.776142 6 0.5C6 0.223858 5.77614 0 5.5 0H2.5C1.83696 0 1.20107 0.263392 0.732231 0.732233C0.26339 1.20107 0 1.83696 0 2.5V5.5C0 5.77614 0.223858 6 0.5 6C0.776142 6 1 5.77614 1 5.5V2.5C1 2.10217 1.15803 1.72064 1.43934 1.43934Z" fill="white"/>
<path fill-rule="evenodd" clip-rule="evenodd" d="M11.8571 9.35625C12.5532 8.80686 13 7.95561 13 7C13 5.34315 11.6569 4 10 4C8.34315 4 7 5.34315 7 7C7 7.95561 7.4468 8.80686 8.14289 9.35625C6.30103 10.0935 5 11.8948 5 14V14.5C5 15.3284 5.67157 16 6.5 16H13.5C14.3284 16 15 15.3284 15 14.5V14C15 11.8948 13.699 10.0935 11.8571 9.35625ZM10 5C8.89543 5 8 5.89543 8 7C8 8.10457 8.89543 9 10 9C11.1046 9 12 8.10457 12 7C12 5.89543 11.1046 5 10 5ZM10 10C7.79086 10 6 11.7909 6 14V14.5C6 14.7761 6.22386 15 6.5 15H13.5C13.7761 15 14 14.7761 14 14.5V14C14 11.7909 12.2091 10 10 10Z" fill="white"/>
</svg>
