<svg width="112" height="112" viewBox="0 0 112 112" fill="none" xmlns="http://www.w3.org/2000/svg">
<rect width="112" height="112" rx="56" fill="white"/>
<path d="M43.9987 37.3335C43.2623 37.3335 42.6654 37.9304 42.6654 38.6668C42.6654 39.4032 43.2623 40.0002 43.9987 40.0002H67.9987C68.7351 40.0002 69.332 39.4032 69.332 38.6668C69.332 37.9304 68.7351 37.3335 67.9987 37.3335H43.9987Z" fill="#0051FF"/>
<path d="M43.9987 42.6668C43.2623 42.6668 42.6654 43.2638 42.6654 44.0002C42.6654 44.7365 43.2623 45.3335 43.9987 45.3335H67.9987C68.7351 45.3335 69.332 44.7365 69.332 44.0002C69.332 43.2638 68.7351 42.6668 67.9987 42.6668H43.9987Z" fill="#0051FF"/>
<path d="M43.9987 53.3335C43.2623 53.3335 42.6654 53.9304 42.6654 54.6668C42.6654 55.4032 43.2623 56.0002 43.9987 56.0002H59.9987C60.7351 56.0002 61.332 55.4032 61.332 54.6668C61.332 53.9304 60.7351 53.3335 59.9987 53.3335H43.9987Z" fill="#0051FF"/>
<path d="M47.9987 74.6668C50.9442 74.6668 53.332 72.279 53.332 69.3335C53.332 66.388 50.9442 64.0002 47.9987 64.0002C45.0532 64.0002 42.6654 66.388 42.6654 69.3335C42.6654 72.279 45.0532 74.6668 47.9987 74.6668Z" fill="#0051FF"/>
<path d="M43.9987 48.0002C43.2623 48.0002 42.6654 48.5971 42.6654 49.3335C42.6654 50.0699 43.2623 50.6668 43.9987 50.6668H67.9987C68.7351 50.6668 69.332 50.0699 69.332 49.3335C69.332 48.5971 68.7351 48.0002 67.9987 48.0002H43.9987Z" fill="#0051FF"/>
<path fill-rule="evenodd" clip-rule="evenodd" d="M37.332 33.3335C37.332 31.1244 39.1229 29.3335 41.332 29.3335H70.6654C72.8745 29.3335 74.6654 31.1244 74.6654 33.3335V78.6668C74.6654 80.876 72.8745 82.6668 70.6654 82.6668H41.332C39.1229 82.6668 37.332 80.876 37.332 78.6668V33.3335ZM41.332 32.0002C40.5957 32.0002 39.9987 32.5971 39.9987 33.3335V78.6668C39.9987 79.4032 40.5957 80.0002 41.332 80.0002H70.6654C71.4017 80.0002 71.9987 79.4032 71.9987 78.6668V33.3335C71.9987 32.5971 71.4017 32.0002 70.6654 32.0002H41.332Z" fill="#0051FF"/>
</svg>
