<svg width="24" height="24" viewBox="0 0 24 24" fill="none" xmlns="http://www.w3.org/2000/svg">
<path fill-rule="evenodd" clip-rule="evenodd" d="M10.759 3.25713C11.1505 3.08672 11.573 2.99878 12 2.99878C12.427 2.99878 12.8495 3.08672 13.241 3.25713C13.6325 3.42749 13.9847 3.67663 14.2757 3.98902L20.1655 10.2988C20.7019 10.8748 21.0003 11.633 21 12.42L21 19.19C21 19.6701 20.8093 20.1304 20.4699 20.4699C20.1304 20.8093 19.67 21 19.19 21L4.81 21C4.32996 21 3.86958 20.8093 3.53014 20.4699C3.1907 20.1304 3 19.6701 3 19.19L3 12.4203C2.99969 11.6333 3.29775 10.8752 3.8341 10.2993L9.7241 3.98926C10.0151 3.67687 10.3675 3.42749 10.759 3.25713ZM12 3.99878C11.7103 3.99878 11.4237 4.05844 11.158 4.17406C10.8924 4.28967 10.6534 4.45876 10.4559 4.67077L4.5659 10.9808C4.20213 11.3715 3.99975 11.8859 4 12.4198L4 19.19C4 19.4048 4.08534 19.6109 4.23724 19.7628C4.38915 19.9147 4.59518 20 4.81 20H9L9 14.5C9 14.1287 9.12214 13.7582 9.35997 13.4728C9.60001 13.1847 9.94723 13 10.3333 13H13.6667C14.0528 13 14.4 13.1847 14.64 13.4728C14.8779 13.7582 15 14.1287 15 14.5L15 20H19.19C19.4048 20 19.6109 19.9147 19.7628 19.7628C19.9147 19.6109 20 19.4048 20 19.19L20 12.42C20.0003 11.8861 19.7981 11.3718 19.4343 10.981L13.5445 4.6712C13.347 4.45918 13.1076 4.28967 12.842 4.17406C12.5763 4.05844 12.2897 3.99878 12 3.99878ZM10.3333 14C10.2774 14 10.2007 14.026 10.1282 14.113C10.0535 14.2027 10 14.3409 10 14.5L10 20H14L14 14.5C14 14.3409 13.9465 14.2027 13.8718 14.113C13.7993 14.026 13.7226 14 13.6667 14H10.3333Z" fill="#0033AA"/>
</svg>
