<svg width="40" height="40" viewBox="0 0 40 40" fill="none" xmlns="http://www.w3.org/2000/svg">
<path fill-rule="evenodd" clip-rule="evenodd" d="M9.16667 8.3335C6.86548 8.3335 5 10.199 5 12.5002V27.5002C5 29.8013 6.86548 31.6668 9.16667 31.6668H30.8333C33.1345 31.6668 35 29.8013 35 27.5002V12.5002C35 10.199 33.1345 8.3335 30.8333 8.3335H9.16667ZM33.3333 12.5002C33.3333 11.1195 32.214 10.0002 30.8333 10.0002H9.16667C7.78595 10.0002 6.66667 11.1195 6.66667 12.5002C6.66667 13.2745 7.04289 14.0006 7.67552 14.4472L19.5194 22.8076C19.8075 23.0109 20.1925 23.0109 20.4806 22.8076L32.3245 14.4472C32.9571 14.0006 33.3333 13.2745 33.3333 12.5002ZM6.66667 15.7746L6.71438 15.8088L18.5583 24.1692C19.4226 24.7793 20.5774 24.7793 21.4417 24.1692L33.2856 15.8088L33.3333 15.7746V27.5002C33.3333 28.8809 32.214 30.0002 30.8333 30.0002H9.16667C7.78595 30.0002 6.66667 28.8809 6.66667 27.5002V15.7746Z" fill="#697786"/>
</svg>
