<svg width="24" height="24" viewBox="0 0 24 24" fill="none" xmlns="http://www.w3.org/2000/svg">
<path fill-rule="evenodd" clip-rule="evenodd" d="M18.9639 14.0957C21.162 14.2071 22.9102 16.0243 22.9102 18.25C22.9101 20.5475 21.0475 22.4102 18.75 22.4102C16.4525 22.4102 14.5899 20.5475 14.5898 18.25C14.5898 15.9525 16.4525 14.0899 18.75 14.0899L18.9639 14.0957ZM19.5381 19.9942C19.2824 20.0133 19.0189 20.0245 18.75 20.0245C18.4808 20.0245 18.2169 20.0134 17.9609 19.9942C18.0189 20.2796 18.0904 20.5378 18.1719 20.7618C18.2857 21.0748 18.4111 21.2999 18.5303 21.4385C18.6499 21.5776 18.7258 21.5898 18.75 21.5899C18.774 21.5898 18.8506 21.5782 18.9707 21.4385C19.0899 21.2999 19.2152 21.0748 19.3291 20.7618C19.4105 20.5379 19.4801 20.2794 19.5381 19.9942ZM21.8594 19.4678C21.7578 19.5144 21.6521 19.5596 21.542 19.5996C21.2059 19.7218 20.8164 19.8189 20.3906 19.8907C20.3188 20.3165 20.2218 20.706 20.0996 21.042C20.0595 21.1522 20.0143 21.2578 19.9678 21.3594C20.8324 21.0206 21.5205 20.3324 21.8594 19.4678ZM15.6396 19.4678C15.9783 20.3322 16.6671 21.0194 17.5312 21.3584C17.4849 21.2572 17.4403 21.1518 17.4004 21.042C17.2782 20.7059 17.18 20.3166 17.1084 19.8907C16.683 19.8189 16.2938 19.7217 15.958 19.5996C15.8476 19.5595 15.7415 19.5145 15.6396 19.4678ZM18.75 17.2969C18.4337 17.2969 18.1288 17.3124 17.8398 17.3399C17.8124 17.6288 17.7969 17.9338 17.7969 18.25C17.7969 18.5659 17.8125 18.8705 17.8398 19.1592C18.1288 19.1867 18.4337 19.2041 18.75 19.2041C19.0663 19.2041 19.3712 19.1867 19.6602 19.1592C19.6875 18.8705 19.7041 18.566 19.7041 18.25C19.7041 17.9338 19.6876 17.6289 19.6602 17.3399C19.3712 17.3124 19.0663 17.2969 18.75 17.2969ZM17.0049 17.461C16.7199 17.5189 16.462 17.5906 16.2383 17.6719C15.9253 17.7858 15.7001 17.9112 15.5615 18.0303C15.4225 18.1499 15.4103 18.2258 15.4102 18.25C15.4102 18.2742 15.4221 18.3509 15.5615 18.4707C15.7002 18.5899 15.9253 18.7153 16.2383 18.8291C16.4619 18.9105 16.72 18.9802 17.0049 19.0381C16.9858 18.7825 16.9766 18.5189 16.9766 18.25C16.9766 17.9809 16.9858 17.7169 17.0049 17.461ZM20.4941 17.461C20.5133 17.7169 20.5244 17.9808 20.5244 18.25C20.5244 18.5189 20.5133 18.7824 20.4941 19.0381C20.7794 18.9802 21.0378 18.9105 21.2617 18.8291C21.5747 18.7153 21.7998 18.5899 21.9385 18.4707C22.0779 18.3509 22.0898 18.2742 22.0898 18.25C22.0897 18.2258 22.0775 18.1499 21.9385 18.0303C21.7999 17.9112 21.5747 17.7858 21.2617 17.6719C21.0378 17.5905 20.7795 17.519 20.4941 17.461ZM17.5312 15.1397C16.6671 15.4785 15.9795 16.1672 15.6406 17.0313C15.7421 16.9848 15.8479 16.9405 15.958 16.9004C16.2939 16.7783 16.6829 16.68 17.1084 16.6084C17.18 16.1829 17.2783 15.7939 17.4004 15.458C17.4405 15.3477 17.4846 15.2414 17.5312 15.1397ZM19.9668 15.1397C20.0136 15.2416 20.0594 15.3475 20.0996 15.458C20.2217 15.7938 20.3188 16.183 20.3906 16.6084C20.8165 16.68 21.2059 16.7782 21.542 16.9004C21.6518 16.9403 21.7572 16.9849 21.8584 17.0313C21.5192 16.1668 20.8316 15.4782 19.9668 15.1397ZM18.75 14.9102C18.7258 14.9103 18.6499 14.9225 18.5303 15.0616C18.4111 15.2002 18.2857 15.4253 18.1719 15.7383C18.0905 15.9621 18.0189 16.2199 17.9609 16.5049C18.2169 16.4858 18.4808 16.4766 18.75 16.4766C19.0188 16.4766 19.2824 16.4859 19.5381 16.5049C19.4802 16.2201 19.4104 15.962 19.3291 15.7383C19.2153 15.4253 19.0899 15.2002 18.9707 15.0616C18.8506 14.9219 18.774 14.9102 18.75 14.9102Z" fill="#0033AA"/>
<path fill-rule="evenodd" clip-rule="evenodd" d="M20.5 7.50004C21.0523 7.50004 21.5 7.94775 21.5 8.50004V13C21.5 13.2762 21.2761 13.5 21 13.5C20.7239 13.5 20.5 13.2762 20.5 13V11.5L20.2031 11.4854C19.5165 11.4171 18.8711 11.1133 18.3789 10.6211C17.8867 10.1289 17.583 9.48349 17.5146 8.79691L17.5 8.50004H8.5L8.48535 8.79691C8.41704 9.48349 8.11328 10.1289 7.62109 10.6211C7.05849 11.1837 6.29564 11.5 5.5 11.5V14.5L5.79688 14.5147C6.48346 14.583 7.1289 14.8867 7.62109 15.3789C8.18369 15.9416 8.5 16.7044 8.5 17.5H13.5C13.7761 17.5 14 17.7239 14 18C14 18.2762 13.7761 18.5 13.5 18.5H5.5C4.94773 18.5 4.50002 18.0523 4.5 17.5V8.50004C4.5 7.94775 4.94772 7.50004 5.5 7.50004H20.5ZM5.5 17.5H7.5C7.5 16.9696 7.28912 16.461 6.91406 16.086C6.53899 15.7109 6.03043 15.5 5.5 15.5V17.5ZM5.5 10.5C6.03042 10.5 6.53899 10.2892 6.91406 9.9141C7.24234 9.58582 7.44482 9.15526 7.49023 8.6973L7.5 8.50004H5.5V10.5ZM18.5098 8.6973C18.5552 9.15526 18.7577 9.58582 19.0859 9.9141C19.4142 10.2424 19.8447 10.4449 20.3027 10.4903L20.5 10.5V8.50004H18.5L18.5098 8.6973Z" fill="#0033AA"/>
<path fill-rule="evenodd" clip-rule="evenodd" d="M13 10.5C14.3807 10.5 15.5 11.6193 15.5 13C15.5 14.3807 14.3807 15.5 13 15.5C11.6193 15.5 10.5 14.3807 10.5 13C10.5 11.6193 11.6193 10.5 13 10.5ZM13 11.5C12.1716 11.5 11.5 12.1716 11.5 13C11.5 13.8284 12.1716 14.5 13 14.5C13.8284 14.5 14.5 13.8284 14.5 13C14.5 12.1716 13.8284 11.5 13 11.5Z" fill="#0033AA"/>
<path d="M8 11.5C8.27614 11.5 8.5 11.7239 8.5 12V14C8.49998 14.2762 8.27613 14.5 8 14.5C7.72387 14.5 7.50002 14.2762 7.5 14V12C7.5 11.7239 7.72386 11.5 8 11.5Z" fill="#0033AA"/>
<path d="M18 11.5C18.2761 11.5 18.5 11.7239 18.5 12V13C18.5 13.2762 18.2761 13.5 18 13.5C17.7239 13.5 17.5 13.2762 17.5 13V12C17.5 11.7239 17.7239 11.5 18 11.5Z" fill="#0033AA"/>
<path d="M6.64648 1.64652C6.84175 1.45126 7.15825 1.45126 7.35352 1.64652L9.35352 3.64652C9.38737 3.68038 9.41344 3.71894 9.43555 3.75883C9.46008 3.80303 9.48001 3.85028 9.49023 3.90141C9.50319 3.96614 9.50308 4.03294 9.49023 4.09769C9.48071 4.14576 9.46266 4.19042 9.44043 4.23246C9.41761 4.27564 9.38986 4.31721 9.35352 4.35355L7.35352 6.35355C7.15827 6.54878 6.84174 6.54875 6.64648 6.35355C6.45123 6.1583 6.45124 5.84179 6.64648 5.64652L7.79297 4.50004H4C3.17157 4.50004 2.5 5.17161 2.5 6.00004V11.5C2.49998 11.7762 2.27613 12 2 12C1.72387 12 1.50002 11.7762 1.5 11.5V6.00004C1.5 4.61933 2.61929 3.50004 4 3.50004H7.79297L6.64648 2.35355C6.45123 2.1583 6.45124 1.84179 6.64648 1.64652Z" fill="#0033AA"/>
</svg>
