<svg width="24" height="24" viewBox="0 0 24 24" fill="none" xmlns="http://www.w3.org/2000/svg">
<path fill-rule="evenodd" clip-rule="evenodd" d="M10 3C6.13401 3 3 6.13401 3 10C3 13.866 6.13401 17 10 17C11.7558 17 13.3607 16.3535 14.5895 15.2856C14.6062 15.3095 14.6251 15.3323 14.6464 15.3536L19.6464 20.3536C19.8417 20.5488 20.1583 20.5488 20.3536 20.3536C20.5488 20.1583 20.5488 19.8417 20.3536 19.6464L15.3536 14.6464C15.3323 14.6251 15.3095 14.6062 15.2856 14.5895C16.3535 13.3607 17 11.7558 17 10C17 6.13401 13.866 3 10 3ZM4 10C4 6.68629 6.68629 4 10 4C13.3137 4 16 6.68629 16 10C16 13.3137 13.3137 16 10 16C6.68629 16 4 13.3137 4 10Z" fill="#0051FF"/>
</svg>
