<svg width="24" height="24" viewBox="0 0 24 24" fill="none" xmlns="http://www.w3.org/2000/svg">
<path fill-rule="evenodd" clip-rule="evenodd" d="M2 12C2 6.47715 6.47715 2 12 2C17.5228 2 22 6.47715 22 12C22 17.5228 17.5228 22 12 22C6.47715 22 2 17.5228 2 12ZM12 3C7.02944 3 3 7.02944 3 12C3 14.2383 3.8171 16.2858 5.16929 17.8604C5.48311 16.6565 6.1383 15.5597 7.06692 14.7084C7.81585 14.0219 8.70846 13.5264 9.66932 13.2512C8.65844 12.5253 8 11.3395 8 10C8 7.79086 9.79086 6 12 6C14.2091 6 16 7.79086 16 10C16 11.3446 15.3366 12.5342 14.3192 13.2594C15.2692 13.5363 16.1516 14.0287 16.8931 14.7084C17.8309 15.5681 18.4898 16.6782 18.7999 17.8961C20.1705 16.3168 21 14.2553 21 12C21 7.02944 16.9706 3 12 3ZM11.9858 14L12 14L12.0142 14H12.48L12.4817 14C13.8644 13.9952 15.1981 14.5113 16.2173 15.4456C17.165 16.3143 17.7761 17.4852 17.9499 18.7528C16.3637 20.1515 14.281 21 12 21C9.70194 21 7.60504 20.1387 6.01452 18.7213C6.19404 17.4658 6.80286 16.3071 7.74264 15.4456C8.76187 14.5113 10.0956 13.9952 11.4783 14L11.48 14H11.9858ZM12.0123 13C13.6635 12.9933 15 11.6527 15 10C15 8.34315 13.6569 7 12 7C10.3431 7 9 8.34315 9 10C9 11.6527 10.3365 12.9933 11.9877 13H12.0123Z" fill="#0051FF"/>
</svg>
