<svg width="16" height="20" viewBox="0 0 16 20" fill="none" xmlns="http://www.w3.org/2000/svg">
<path d="M8 12.95C8.27614 12.95 8.5 13.1739 8.5 13.45V16.45C8.5 16.7261 8.27614 16.95 8 16.95C7.72386 16.95 7.5 16.7261 7.5 16.45V13.45C7.5 13.1739 7.72386 12.95 8 12.95Z" fill="#F2F6FF"/>
<path fill-rule="evenodd" clip-rule="evenodd" d="M7.5 0C5.01472 0 3 2.01472 3 4.5V7H1.5C0.671573 7 0 7.67157 0 8.5V16.5C0 18.433 1.567 20 3.5 20H12.5C14.433 20 16 18.433 16 16.5V8.5C16 7.67157 15.3284 7 14.5 7H13V4.5C13 2.01472 10.9853 0 8.5 0H7.5ZM7.5 1C5.567 1 4 2.567 4 4.5V7H12V4.5C12 2.567 10.433 1 8.5 1H7.5ZM15 8.5C15 8.22386 14.7761 8 14.5 8H1.5C1.22386 8 1 8.22386 1 8.5V16.5C1 17.8807 2.11929 19 3.5 19H12.5C13.8807 19 15 17.8807 15 16.5V8.5Z" fill="#F2F6FF"/>
</svg>
