<svg width="24" height="24" viewBox="0 0 24 24" fill="none" xmlns="http://www.w3.org/2000/svg">
<path fill-rule="evenodd" clip-rule="evenodd" d="M5.5 5C4.11929 5 3 6.11929 3 7.5V16.5C3 17.8807 4.11929 19 5.5 19H18.5C19.8807 19 21 17.8807 21 16.5V7.5C21 6.11929 19.8807 5 18.5 5H5.5ZM20 7.5C20 6.67157 19.3284 6 18.5 6H5.5C4.67157 6 4 6.67157 4 7.5C4 7.96461 4.22573 8.40026 4.60531 8.6682L11.7117 13.6844C11.8845 13.8065 12.1155 13.8065 12.2883 13.6844L19.3947 8.6682C19.7743 8.40026 20 7.96461 20 7.5ZM4 9.46465L4.02863 9.48517L11.135 14.5014C11.6536 14.8675 12.3464 14.8675 12.865 14.5014L19.9714 9.48517L20 9.46465V16.5C20 17.3284 19.3284 18 18.5 18H5.5C4.67157 18 4 17.3284 4 16.5V9.46465Z" fill="#0033AA"/>
</svg>
