<svg width="16" height="16" viewBox="0 0 16 16" fill="none" xmlns="http://www.w3.org/2000/svg">
<path fill-rule="evenodd" clip-rule="evenodd" d="M5.17157 3.17157C5.92172 2.42143 6.93913 2 8 2C9.06087 2 10.0783 2.42143 10.8284 3.17157C11.5786 3.92172 12 4.93913 12 6V10.3333C12 10.8856 12.4477 11.3333 13 11.3333C13.5523 11.3333 14 10.8856 14 10.3333V7C14 6.44771 13.5523 6 13 6C12.8831 6 12.7709 6.02005 12.6667 6.0569V6C12.6667 4.76232 12.175 3.57534 11.2998 2.70017C10.4247 1.825 9.23768 1.33333 8 1.33333C6.76232 1.33333 5.57534 1.825 4.70017 2.70017C3.825 3.57534 3.33333 4.76232 3.33333 6V6.0569C3.22907 6.02005 3.11688 6 3 6C2.44772 6 2 6.44771 2 7V10.3333C2 10.8856 2.44772 11.3333 3 11.3333C3.11688 11.3333 3.22907 11.3133 3.33333 11.2764V11.76L3.33334 11.7617C3.33729 12.5309 3.64462 13.2675 4.18855 13.8115C4.73248 14.3554 5.46907 14.6627 6.23829 14.6667L6.24 14.6667H8.78C9.0856 14.6667 9.33333 14.4189 9.33333 14.1133V13.8867C9.33333 13.5811 9.0856 13.3333 8.78 13.3333H7.22C6.9144 13.3333 6.66667 13.5811 6.66667 13.8867V14H6.24099C5.64765 13.9968 5.07953 13.7596 4.65995 13.34C4.2404 12.9205 4.00327 12.3524 4 11.7591V6C4 4.93913 4.42143 3.92172 5.17157 3.17157ZM12.6667 7C12.6667 6.8159 12.8159 6.66667 13 6.66667C13.1841 6.66667 13.3333 6.8159 13.3333 7V10.3333C13.3333 10.5174 13.1841 10.6667 13 10.6667C12.8159 10.6667 12.6667 10.5174 12.6667 10.3333V7ZM3 10.6667C3.18409 10.6667 3.33333 10.5174 3.33333 10.3333V7C3.33333 6.8159 3.18409 6.66667 3 6.66667C2.81591 6.66667 2.66667 6.8159 2.66667 7V10.3333C2.66667 10.5174 2.81591 10.6667 3 10.6667Z" fill="white"/>
</svg>
