<svg width="24" height="24" viewBox="0 0 24 24" fill="none" xmlns="http://www.w3.org/2000/svg">
<path fill-rule="evenodd" clip-rule="evenodd" d="M5.5 5C4.67157 5 4 5.67157 4 6.5V15.5C4 16.3284 4.67157 17 5.5 17H9.98999V18H8.47998C8.20384 18 7.97998 18.2239 7.97998 18.5C7.97998 18.7761 8.20384 19 8.47998 19H15.48C15.7561 19 15.98 18.7761 15.98 18.5C15.98 18.2239 15.7561 18 15.48 18H14V17H18.5C19.3284 17 20 16.3284 20 15.5V6.5C20 5.67157 19.3284 5 18.5 5H5.5ZM5 15.5C5 15.7761 5.22386 16 5.5 16H18.5C18.7761 16 19 15.7761 19 15.5V6.5C19 6.22386 18.7761 6 18.5 6H5.5C5.22386 6 5 6.22386 5 6.5V15.5ZM10.99 17H13V18H10.99V17Z" fill="#F2F6FF"/>
</svg>
