<svg width="48" height="48" viewBox="0 0 48 48" fill="none" xmlns="http://www.w3.org/2000/svg">
<path d="M0 4C0 1.79086 1.79086 0 4 0H44C46.2091 0 48 1.79086 48 4V44C48 46.2091 46.2091 48 44 48H4C1.79086 48 0 46.2091 0 44V4Z" fill="#003FCA"/>
<path d="M24 26.95C24.2761 26.95 24.5 27.1739 24.5 27.45V30.45C24.5 30.7261 24.2761 30.95 24 30.95C23.7239 30.95 23.5 30.7261 23.5 30.45V27.45C23.5 27.1739 23.7239 26.95 24 26.95Z" fill="#F2F6FF"/>
<path fill-rule="evenodd" clip-rule="evenodd" d="M23.5 14C21.0147 14 19 16.0147 19 18.5V21H17.5C16.6716 21 16 21.6716 16 22.5V30.5C16 32.433 17.567 34 19.5 34H28.5C30.433 34 32 32.433 32 30.5V22.5C32 21.6716 31.3284 21 30.5 21H29V18.5C29 16.0147 26.9853 14 24.5 14H23.5ZM23.5 15C21.567 15 20 16.567 20 18.5V21H28V18.5C28 16.567 26.433 15 24.5 15H23.5ZM31 22.5C31 22.2239 30.7761 22 30.5 22H17.5C17.2239 22 17 22.2239 17 22.5V30.5C17 31.8807 18.1193 33 19.5 33H28.5C29.8807 33 31 31.8807 31 30.5V22.5Z" fill="#F2F6FF"/>
</svg>
