<svg width="24" height="24" viewBox="0 0 24 24" fill="none" xmlns="http://www.w3.org/2000/svg">
<path fill-rule="evenodd" clip-rule="evenodd" d="M2 12C2 6.47715 6.47715 2 12 2C17.5228 2 22 6.47715 22 12C22 17.5228 17.5228 22 12 22C6.47715 22 2 17.5228 2 12ZM16.8254 8.12038C17.0351 8.30009 17.0593 8.61574 16.8796 8.8254L10.8796 15.8254C10.789 15.9311 10.6584 15.9943 10.5192 15.9996C10.38 16.005 10.2449 15.952 10.1464 15.8536L7.14645 12.8536C6.95118 12.6583 6.95118 12.3417 7.14645 12.1465C7.34171 11.9512 7.65829 11.9512 7.85355 12.1465L10.4718 14.7647L16.1204 8.17461C16.3001 7.96495 16.6157 7.94067 16.8254 8.12038Z" fill="white"/>
</svg>
