<svg width="40" height="40" viewBox="0 0 40 40" fill="none" xmlns="http://www.w3.org/2000/svg">
<rect width="40" height="40" rx="8" fill="#0051FF"/>
<path d="M24 10.5C24 10.2239 24.2239 10 24.5 10H27.5C28.163 10 28.7989 10.2634 29.2678 10.7322C29.7366 11.2011 30 11.837 30 12.5V15.5C30 15.7761 29.7761 16 29.5 16C29.2239 16 29 15.7761 29 15.5V12.5C29 12.1022 28.842 11.7206 28.5607 11.4393C28.2794 11.158 27.8978 11 27.5 11H24.5C24.2239 11 24 10.7761 24 10.5Z" fill="white"/>
<path d="M11 24.5C11 24.2239 10.7761 24 10.5 24C10.2239 24 10 24.2239 10 24.5V27.5C10 28.163 10.2634 28.7989 10.7322 29.2678C11.2011 29.7366 11.837 30 12.5 30H15.5C15.7761 30 16 29.7761 16 29.5C16 29.2239 15.7761 29 15.5 29H12.5C12.1022 29 11.7206 28.842 11.4393 28.5607C11.158 28.2794 11 27.8978 11 27.5V24.5Z" fill="white"/>
<path d="M30 24.5C30 24.2239 29.7761 24 29.5 24C29.2239 24 29 24.2239 29 24.5V27.5C29 27.8978 28.842 28.2794 28.5607 28.5607C28.2794 28.842 27.8978 29 27.5 29H24.5C24.2239 29 24 29.2239 24 29.5C24 29.7761 24.2239 30 24.5 30H27.5C28.163 30 28.7989 29.7366 29.2678 29.2678C29.7366 28.7989 30 28.163 30 27.5V24.5Z" fill="white"/>
<path d="M11.4393 11.4393C11.7206 11.158 12.1022 11 12.5 11H15.5C15.7761 11 16 10.7761 16 10.5C16 10.2239 15.7761 10 15.5 10H12.5C11.837 10 11.2011 10.2634 10.7322 10.7322C10.2634 11.2011 10 11.837 10 12.5V15.5C10 15.7761 10.2239 16 10.5 16C10.7761 16 11 15.7761 11 15.5V12.5C11 12.1022 11.158 11.7206 11.4393 11.4393Z" fill="white"/>
<path fill-rule="evenodd" clip-rule="evenodd" d="M21.8571 19.3562C22.5532 18.8069 23 17.9556 23 17C23 15.3431 21.6569 14 20 14C18.3431 14 17 15.3431 17 17C17 17.9556 17.4468 18.8069 18.1429 19.3562C16.301 20.0935 15 21.8948 15 24V24.5C15 25.3284 15.6716 26 16.5 26H23.5C24.3284 26 25 25.3284 25 24.5V24C25 21.8948 23.699 20.0935 21.8571 19.3562ZM20 15C18.8954 15 18 15.8954 18 17C18 18.1046 18.8954 19 20 19C21.1046 19 22 18.1046 22 17C22 15.8954 21.1046 15 20 15ZM20 20C17.7909 20 16 21.7909 16 24V24.5C16 24.7761 16.2239 25 16.5 25H23.5C23.7761 25 24 24.7761 24 24.5V24C24 21.7909 22.2091 20 20 20Z" fill="white"/>
</svg>
