<svg width="96" height="96" viewBox="0 0 96 96" fill="none" xmlns="http://www.w3.org/2000/svg">
<circle opacity="0.2" cx="48" cy="48" r="44" stroke="#DC0A0A" stroke-width="8"/>
<rect x="9" y="9" width="78" height="78" rx="39" stroke="#DC0A0A" stroke-width="2"/>
<path d="M48 51C46.8954 51 46 50.1046 46 49L46 34C46 32.8954 46.8954 32 48 32C49.1046 32 50 32.8954 50 34L50 49C50 50.1046 49.1046 51 48 51Z" fill="#DC0A0A"/>
<path d="M48 56C46.3431 56 45 57.3431 45 59C45 60.6569 46.3431 62 48 62C49.6569 62 51 60.6569 51 59C51 57.3431 49.6569 56 48 56Z" fill="#DC0A0A"/>
</svg>
