<svg width="74" height="36" viewBox="0 0 74 36" fill="none" xmlns="http://www.w3.org/2000/svg">
<rect width="74" height="36" rx="4" fill="#00164E"/>
<path d="M10.7058 22H9.3498V13.12H11.3298L13.7058 20.164H13.7298L16.0338 13.12H18.0498V22H16.5978V15.376H16.5738C16.4418 15.988 16.2498 16.564 16.0458 17.188L14.3178 22H12.9858L11.2698 17.188C11.0538 16.552 10.9218 16.168 10.7298 15.316H10.7058V22ZM20.5527 24.472C19.7967 24.472 19.3527 24.364 19.0407 24.28L19.3767 23.092C19.5567 23.14 19.9407 23.224 20.4567 23.224C20.9847 23.224 21.2607 23.02 21.4647 22.504L21.6447 22.036L19.1967 15.628H20.7327L22.3767 20.272H22.4007L24.0327 15.628H25.4967L22.7847 22.696C22.3647 23.812 21.8127 24.472 20.5527 24.472ZM31.123 22H29.635V13.12H32.743C34.663 13.12 36.163 13.792 36.163 15.844C36.163 17.992 34.519 18.628 32.695 18.628H31.123V22ZM31.123 14.488V17.32H32.767C34.087 17.32 34.687 16.912 34.687 15.892C34.687 14.908 34.087 14.488 32.755 14.488H31.123ZM38.6536 22H37.1776V15.628H38.6536V16.672H38.6776C39.0736 16.036 39.7576 15.508 40.9696 15.508H41.0656L41.0176 16.864C40.9456 16.852 40.7056 16.84 40.6216 16.84C39.6736 16.84 39.0736 17.284 38.6536 17.968V22ZM44.6365 22.132C43.0885 22.132 41.5285 21.148 41.5285 18.82C41.5285 16.468 43.0765 15.508 44.6365 15.508C46.1845 15.508 47.7445 16.468 47.7445 18.82C47.7445 21.148 46.1845 22.132 44.6365 22.132ZM44.6365 20.896C45.7045 20.896 46.2565 20.128 46.2565 18.82C46.2565 17.632 45.7525 16.768 44.6365 16.768C43.5685 16.768 43.0165 17.536 43.0165 18.82C43.0165 20.032 43.5085 20.896 44.6365 20.896ZM54.6798 14.584H53.1798V13.24H54.6798V14.584ZM50.9478 22H49.4718V16.804H48.3678V15.628H49.4718V14.98C49.4718 13.912 49.9638 13.084 51.3798 13.084C51.6678 13.084 52.0998 13.132 52.2078 13.144V14.284C52.0998 14.26 51.8958 14.248 51.7638 14.248C51.2358 14.248 50.9478 14.524 50.9478 15.076V15.628H52.1958V16.804H50.9478V22ZM54.6678 22H53.1918V15.628H54.6678V22ZM57.9912 22H56.5032V13.12H57.9912V22ZM62.4248 22.132C60.8288 22.132 59.3528 21.16 59.3528 18.82C59.3528 16.396 61.0688 15.508 62.3888 15.508C63.8168 15.508 65.1848 16.36 65.1848 18.952V19.3H60.8288C60.8888 20.452 61.5968 20.956 62.5328 20.956C63.3608 20.956 63.8408 20.68 64.3208 20.212L65.1008 20.98C64.4408 21.712 63.5648 22.132 62.4248 22.132ZM60.8528 18.196H63.8288C63.7448 17.224 63.2648 16.708 62.3768 16.708C61.6568 16.708 60.9968 17.116 60.8528 18.196Z" fill="#F2F6FF"/>
</svg>
