<svg width="24" height="24" viewBox="0 0 24 24" fill="none" xmlns="http://www.w3.org/2000/svg">
<path fill-rule="evenodd" clip-rule="evenodd" d="M5 3.5C5 3.22386 5.22386 3 5.5 3H13V6.30005C13 6.68665 13.3134 7.00005 13.7 7.00005H17V11.5C17 11.7761 17.2239 12 17.5 12C17.7761 12 18 11.7761 18 11.5V6.71961C18 6.30772 17.8306 5.91395 17.5316 5.63068L14.1331 2.41107C13.8545 2.14712 13.4853 2 13.1015 2H5.5C4.67157 2 4 2.67157 4 3.5V19.5C4 20.3284 4.67157 21 5.5 21H11C11.2761 21 11.5 20.7761 11.5 20.5C11.5 20.2239 11.2761 20 11 20H5.5C5.22386 20 5 19.7761 5 19.5V3.5ZM16.2929 6.00005L14 3.70716V6.00005H16.2929Z" fill="#0033AA"/>
<path d="M6.5 7.5C6.5 7.22386 6.72386 7 7 7H10.57C10.8461 7 11.07 7.22386 11.07 7.5C11.07 7.77614 10.8461 8 10.57 8H7C6.72386 8 6.5 7.77614 6.5 7.5Z" fill="#0033AA"/>
<path d="M7 12C6.72386 12 6.5 12.2239 6.5 12.5C6.5 12.7761 6.72386 13 7 13H13C13.2761 13 13.5 12.7761 13.5 12.5C13.5 12.2239 13.2761 12 13 12H7Z" fill="#0033AA"/>
<path d="M7 9.5C6.72386 9.5 6.5 9.72386 6.5 10C6.5 10.2761 6.72386 10.5 7 10.5H14.5C14.7761 10.5 15 10.2761 15 10C15 9.72386 14.7761 9.5 14.5 9.5H7Z" fill="#0033AA"/>
<path d="M16.6464 20.3536L15.1464 18.8536C14.9512 18.6583 14.9512 18.3417 15.1464 18.1464C15.3417 17.9512 15.6583 17.9512 15.8536 18.1464L16.5 18.7929V16C16.5 15.7239 16.7239 15.5 17 15.5C17.2761 15.5 17.5 15.7239 17.5 16V18.7929L18.1464 18.1464C18.3417 17.9512 18.6583 17.9512 18.8536 18.1464C19.0488 18.3417 19.0488 18.6583 18.8536 18.8536L17.3536 20.3536C17.1583 20.5488 16.8417 20.5488 16.6464 20.3536Z" fill="#0033AA"/>
<path fill-rule="evenodd" clip-rule="evenodd" d="M12 18C12 15.2386 14.2386 13 17 13C19.7614 13 22 15.2386 22 18C22 20.7614 19.7614 23 17 23C14.2386 23 12 20.7614 12 18ZM17 14C14.7909 14 13 15.7909 13 18C13 20.2091 14.7909 22 17 22C19.2091 22 21 20.2091 21 18C21 15.7909 19.2091 14 17 14Z" fill="#0033AA"/>
</svg>
