<svg width="24" height="24" viewBox="0 0 24 24" fill="none" xmlns="http://www.w3.org/2000/svg">
<path fill-rule="evenodd" clip-rule="evenodd" d="M2.5 16C2.22386 16 2 16.2239 2 16.5V17.5C2 18.8807 3.11929 20 4.5 20H19.5C20.8807 20 22 18.8807 22 17.5V16.5C22 16.2239 21.7761 16 21.5 16H21V6.5C21 5.67157 20.3284 5 19.5 5H4.5C3.67157 5 3 5.67157 3 6.5V16H2.5ZM4.5 6C4.22386 6 4 6.22386 4 6.5V16H9.75C10.0766 16 10.3544 16.2087 10.4573 16.5H14.0427C14.1456 16.2087 14.4234 16 14.75 16H20V6.5C20 6.22386 19.7761 6 19.5 6H4.5ZM9.54268 17C9.64564 17.2913 9.92345 17.5 10.25 17.5H14.25C14.5766 17.5 14.8544 17.2913 14.9573 17H21V17.5C21 18.3284 20.3284 19 19.5 19H4.5C3.67157 19 3 18.3284 3 17.5V17H9.54268Z" fill="#465463"/>
</svg>
