<svg width="24" height="24" viewBox="0 0 24 24" fill="none" xmlns="http://www.w3.org/2000/svg">
<path fill-rule="evenodd" clip-rule="evenodd" d="M17.3615 2.25143C17.7604 2.08544 18.1881 2 18.62 2C19.0519 2 19.4796 2.08544 19.8785 2.25143C20.2771 2.41733 20.6392 2.66043 20.9439 2.96677L21.0328 3.05584C21.3387 3.361 21.5818 3.72405 21.7475 4.12337C21.9132 4.52287 21.9985 4.95122 21.9985 5.38383C21.9985 5.81643 21.9132 6.24479 21.7475 6.64429C21.5817 7.04379 21.3389 7.40657 21.0328 7.71181L20.2404 8.50206L20.3936 8.65543C20.5888 8.851 20.5888 9.16808 20.3936 9.36365C20.1983 9.55922 19.8817 9.55922 19.6864 9.36365L19.5318 9.20878L6.8528 21.8541C6.7591 21.9475 6.63224 22 6.5 22H2.5C2.22386 22 2 21.7758 2 21.4992V17.4929C2 17.3601 2.05268 17.2327 2.14645 17.1388L14.7979 4.46738L14.6464 4.3157C14.4512 4.12013 14.4512 3.80305 14.6464 3.60747C14.8417 3.4119 15.1583 3.4119 15.3536 3.60747L15.505 3.75916L16.2957 2.96723C16.6003 2.66089 16.9629 2.41733 17.3615 2.25143ZM20.3272 7.00207L19.5333 7.79384L17.9383 6.19628C17.9221 6.17349 17.9039 6.15175 17.8835 6.13134C17.8632 6.11101 17.8416 6.09281 17.8189 6.07671L16.2121 4.46738L17.0036 3.67469L17.0043 3.67392C17.2162 3.46082 17.4679 3.29173 17.7452 3.17635C18.0225 3.06097 18.3198 3.00158 18.62 3.00158C18.9202 3.00158 19.2175 3.06097 19.4948 3.17635C19.7721 3.29173 20.0238 3.46082 20.2357 3.67392L20.2364 3.67469L20.3264 3.76483L20.3272 3.76559C20.54 3.97777 20.7088 4.22995 20.824 4.50765C20.9392 4.78535 20.9985 5.08311 20.9985 5.38383C20.9985 5.68454 20.9392 5.9823 20.824 6.26C20.7088 6.5377 20.54 6.78989 20.3272 7.00207ZM15.505 5.17561L16.8181 6.49074L4.42987 18.908L3.26347 17.7397C3.20929 17.6855 3.14578 17.6463 3.07811 17.6221L15.505 5.17561ZM18.8247 8.50056L17.5252 7.19897L5.13697 19.6162L6.28347 20.7645C6.32634 20.8074 6.35981 20.8562 6.38385 20.9083L18.8247 8.50056ZM5.10282 20.9984L3 18.8923V20.9984H5.10282Z" fill="#0051FF"/>
</svg>
