<svg width="24" height="24" viewBox="0 0 24 24" fill="none" xmlns="http://www.w3.org/2000/svg">
<path d="M17 13C17.5523 13 18 12.5523 18 12C18 11.4477 17.5523 11 17 11C16.4477 11 16 11.4477 16 12C16 12.5523 16.4477 13 17 13Z" fill="#0051FF"/>
<path fill-rule="evenodd" clip-rule="evenodd" d="M2 16.5C2 17.8549 3.04703 19 4.39474 19H18.6053C19.953 19 21 17.8549 21 16.5V15H21.5C21.7761 15 22 14.7761 22 14.5V9.5C22 9.22386 21.7761 9 21.5 9H21V7.5C21 6.1451 19.953 5 18.6053 5H4.39474C3.04703 5 2 6.1451 2 7.5V16.5ZM3 7.5C3 6.64576 3.64957 6 4.39474 6H5V18H4.39474C3.64957 18 3 17.3542 3 16.5V7.5ZM15 12C15 10.8954 15.8954 10 17 10H21V14H17C15.8954 14 15 13.1046 15 12ZM14 12C14 10.3431 15.3431 9 17 9H20V7.5C20 6.64576 19.3504 6 18.6053 6H6V18H18.6053C19.3504 18 20 17.3542 20 16.5V15H17C15.3431 15 14 13.6569 14 12Z" fill="#0051FF"/>
</svg>
