<svg width="24" height="24" viewBox="0 0 24 24" fill="none" xmlns="http://www.w3.org/2000/svg">
<path d="M3.89561 14.6567C4.01319 14.4069 4.31106 14.2996 4.56092 14.4172L6.29974 15.2355C6.5496 15.3531 6.65683 15.6509 6.53925 15.9008C6.42167 16.1506 6.1238 16.2579 5.87394 16.1403L4.13512 15.322C3.88526 15.2045 3.77803 14.9066 3.89561 14.6567Z" fill="#0051FF"/>
<path fill-rule="evenodd" clip-rule="evenodd" d="M11.2129 3.04759C11.0781 2.98414 10.9219 2.98414 10.7871 3.04759L2.29722 7.04283C2.25771 7.06038 2.2209 7.0829 2.18758 7.1096C2.07323 7.20123 2 7.34206 2 7.5V17.5C2 17.6937 2.11186 17.8699 2.2871 17.9524L10.7871 21.9524C10.9219 22.0159 11.0781 22.0159 11.2129 21.9524L13.5467 20.8541C13.7966 20.7365 13.9038 20.4387 13.7863 20.1888C13.6687 19.939 13.3708 19.8317 13.1209 19.9493L11.5 20.7121V11.8173L15.0001 10.1702V11.5C15.0001 11.7761 15.224 12 15.5001 12C15.7763 12 16.0001 11.7761 16.0001 11.5V9.6996L19 8.28789V12.5C19 12.7761 19.2239 13 19.5 13C19.7761 13 20 12.7761 20 12.5V7.5C20 7.37895 19.9563 7.2647 19.8808 7.17591C19.8561 7.14696 19.8281 7.12072 19.7971 7.09783C19.7679 7.07624 19.7363 7.05773 19.7028 7.04283L11.2129 3.04759ZM15.3855 8.88365L18.3257 7.5L11 4.0526L8.28173 5.33178L15.3855 8.88365ZM7.15503 5.862L3.67427 7.5L11 10.9474L14.2336 9.42573L7.2765 5.9472C7.23083 5.92436 7.19017 5.89548 7.15503 5.862ZM10.5 11.8173L3 8.28789V17.1827L10.5 20.7121V11.8173Z" fill="#0051FF"/>
<path fill-rule="evenodd" clip-rule="evenodd" d="M13 17.5C13 17.2239 13.2239 17 13.5 17H14.0354C14.2547 15.4672 15.4672 14.2547 17 14.0354V13.5C17 13.2239 17.2239 13 17.5 13C17.7761 13 18 13.2239 18 13.5V14.0354C19.5328 14.2547 20.7453 15.4672 20.9646 17H21.75C22.0261 17 22.25 17.2239 22.25 17.5C22.25 17.7761 22.0261 18 21.75 18H20.9646C20.7453 19.5328 19.5328 20.7453 18 20.9646V21.75C18 22.0261 17.7761 22.25 17.5 22.25C17.2239 22.25 17 22.0261 17 21.75V20.9646C15.4672 20.7453 14.2547 19.5328 14.0354 18H13.5C13.2239 18 13 17.7761 13 17.5ZM18 19.95C18.9796 19.7512 19.7512 18.9796 19.95 18H18V19.95ZM17 19.95C16.0204 19.7512 15.2488 18.9796 15.05 18H17V19.95ZM19.95 17C19.7512 16.0204 18.9796 15.2488 18 15.05V17H19.95ZM15.05 17C15.2488 16.0204 16.0204 15.2488 17 15.05V17H15.05Z" fill="#0051FF"/>
</svg>
