<svg width="24" height="24" viewBox="0 0 24 24" fill="none" xmlns="http://www.w3.org/2000/svg">
<path fill-rule="evenodd" clip-rule="evenodd" d="M7.75736 4.75736C8.88258 3.63214 10.4087 3 12 3C13.5913 3 15.1174 3.63214 16.2426 4.75736C17.3679 5.88258 18 7.4087 18 9V15.5C18 16.3284 18.6716 17 19.5 17C20.3284 17 21 16.3284 21 15.5V10.5C21 9.67157 20.3284 9 19.5 9C19.3247 9 19.1564 9.03008 19 9.08535V9C19 7.14348 18.2625 5.36301 16.9497 4.05025C15.637 2.7375 13.8565 2 12 2C10.1435 2 8.36301 2.7375 7.05025 4.05025C5.7375 5.36301 5 7.14348 5 9V9.08535C4.84361 9.03008 4.67532 9 4.5 9C3.67157 9 3 9.67157 3 10.5V15.5C3 16.3284 3.67157 17 4.5 17C4.67532 17 4.84361 16.9699 5 16.9146V17.64L5.00001 17.6426C5.00594 18.7964 5.46693 19.9013 6.28282 20.7172C7.09871 21.5331 8.2036 21.9941 9.35743 22L9.36 22H13.17C13.6284 22 14 21.6284 14 21.17V20.83C14 20.3716 13.6284 20 13.17 20H10.83C10.3716 20 10 20.3716 10 20.83V21H9.36149C8.47148 20.9951 7.61929 20.6394 6.98993 20.0101C6.3606 19.3808 6.0049 18.5286 6 17.6387V9C6 7.4087 6.63214 5.88258 7.75736 4.75736ZM19 10.5C19 10.2239 19.2239 10 19.5 10C19.7761 10 20 10.2239 20 10.5V15.5C20 15.7761 19.7761 16 19.5 16C19.2239 16 19 15.7761 19 15.5V10.5ZM4.5 16C4.77614 16 5 15.7761 5 15.5V10.5C5 10.2239 4.77614 10 4.5 10C4.22386 10 4 10.2239 4 10.5V15.5C4 15.7761 4.22386 16 4.5 16Z" fill="#0033AA"/>
</svg>
