<svg width="24" height="24" viewBox="0 0 24 24" fill="none" xmlns="http://www.w3.org/2000/svg">
<path fill-rule="evenodd" clip-rule="evenodd" d="M2 7C2 6.44772 2.44772 6 3 6H20C20.5523 6 21 6.44771 21 7V10.5C21 10.7761 20.7761 11 20.5 11C20.2239 11 20 10.7761 20 10.5V10C19.2044 10 18.4413 9.68393 17.8787 9.12132C17.3161 8.55871 17 7.79565 17 7H6C6 7.79565 5.68393 8.55871 5.12132 9.12132C4.55871 9.68393 3.79565 10 3 10V13C3.79565 13 4.55871 13.3161 5.12132 13.8787C5.68393 14.4413 6 15.2044 6 16H12C12.2761 16 12.5 16.2239 12.5 16.5C12.5 16.7761 12.2761 17 12 17H3C2.44771 17 2 16.5523 2 16V7ZM18.5858 8.41421C18.2107 8.03914 18 7.53043 18 7H20V9C19.4696 9 18.9609 8.78929 18.5858 8.41421ZM3 7L5 7C5 7.53043 4.78929 8.03914 4.41422 8.41421C4.03914 8.78929 3.53043 9 3 9V7ZM4.41422 14.5858C4.78929 14.9609 5 15.4696 5 16H3V14C3.53043 14 4.03914 14.2107 4.41422 14.5858Z" fill="#008545"/>
<path d="M7 10.5C7 10.2239 6.77614 10 6.5 10C6.22386 10 6 10.2239 6 10.5V12.5C6 12.7761 6.22386 13 6.5 13C6.77614 13 7 12.7761 7 12.5V10.5Z" fill="#008545"/>
<path fill-rule="evenodd" clip-rule="evenodd" d="M15.0752 12.7952C15.9769 12.2942 17.1887 12 18.5 12C19.8113 12 21.0231 12.2942 21.9248 12.7952C22.8096 13.2867 23.5 14.0456 23.5 15C23.5 15.1138 23.4902 15.2248 23.4714 15.3329C23.4899 15.3852 23.5 15.4414 23.5 15.5V19.5C23.5 19.9388 23.2978 20.3192 23.0086 20.6232C22.7218 20.9245 22.3304 21.1732 21.885 21.3711C20.9931 21.7676 19.7959 22 18.5 22C17.2041 22 16.0069 21.7676 15.115 21.3711C14.6696 21.1732 14.2782 20.9245 13.9914 20.6232C13.7022 20.3192 13.5 19.9388 13.5 19.5V15.5C13.5 15.4414 13.5101 15.3852 13.5286 15.3329C13.5098 15.2248 13.5 15.1138 13.5 15C13.5 14.0456 14.1904 13.2867 15.0752 12.7952ZM15.5608 13.6693C14.8169 14.0826 14.5 14.5737 14.5 15C14.5 15.4263 14.8169 15.9174 15.5608 16.3307C16.2878 16.7346 17.326 17 18.5 17C19.674 17 20.7122 16.7346 21.4392 16.3307C22.1831 15.9174 22.5 15.4263 22.5 15C22.5 14.5737 22.1831 14.0826 21.4392 13.6693C20.7122 13.2654 19.674 13 18.5 13C17.326 13 16.2878 13.2654 15.5608 13.6693ZM21.9248 17.2048C22.1289 17.0915 22.3227 16.9638 22.5 16.8229V17.5C22.5 17.6135 22.4504 17.7592 22.2842 17.9338C22.1155 18.111 21.8479 18.2933 21.4789 18.4573C20.7422 18.7847 19.6894 19 18.5 19C17.3106 19 16.2578 18.7847 15.5211 18.4573C15.1521 18.2933 14.8845 18.111 14.7158 17.9338C14.5496 17.7592 14.5 17.6135 14.5 17.5V16.8229C14.6773 16.9638 14.8711 17.0915 15.0752 17.2048C15.9769 17.7058 17.1887 18 18.5 18C19.8113 18 21.0231 17.7058 21.9248 17.2048ZM21.885 19.3711C22.1053 19.2732 22.3123 19.163 22.5 19.04V19.5C22.5 19.6135 22.4504 19.7592 22.2842 19.9338C22.1155 20.111 21.8479 20.2933 21.4789 20.4573C20.7422 20.7847 19.6894 21 18.5 21C17.3106 21 16.2578 20.7847 15.5211 20.4573C15.1521 20.2933 14.8845 20.111 14.7158 19.9338C14.5496 19.7592 14.5 19.6135 14.5 19.5V19.04C14.6877 19.163 14.8947 19.2732 15.115 19.3711C16.0069 19.7676 17.2041 20 18.5 20C19.7959 20 20.9931 19.7676 21.885 19.3711Z" fill="#008545"/>
<path d="M16 10C16.2761 10 16.5 10.2239 16.5 10.5V11.5C16.5 11.7761 16.2761 12 16 12C15.7239 12 15.5 11.7761 15.5 11.5V10.5C15.5 10.2239 15.7239 10 16 10Z" fill="#008545"/>
<path fill-rule="evenodd" clip-rule="evenodd" d="M11.5 9C10.1193 9 9 10.1193 9 11.5C9 12.8807 10.1193 14 11.5 14C12.8807 14 14 12.8807 14 11.5C14 10.1193 12.8807 9 11.5 9ZM10 11.5C10 10.6716 10.6716 10 11.5 10C12.3284 10 13 10.6716 13 11.5C13 12.3284 12.3284 13 11.5 13C10.6716 13 10 12.3284 10 11.5Z" fill="#008545"/>
</svg>
