<svg width="40" height="40" viewBox="0 0 40 40" fill="none" xmlns="http://www.w3.org/2000/svg">
<path d="M6.42389 4.7556C6.74933 4.43016 6.74933 3.90252 6.42389 3.57709C6.09845 3.25165 5.57082 3.25165 5.24538 3.57709L1.91205 6.91042C1.58661 7.23586 1.58661 7.76349 1.91205 8.08893L5.24538 11.4223C5.57082 11.7477 6.09845 11.7477 6.42389 11.4223C6.74933 11.0968 6.74933 10.5692 6.42389 10.2438L4.51315 8.33301H10.8346C11.2949 8.33301 11.668 7.95991 11.668 7.49967C11.668 7.03944 11.2949 6.66634 10.8346 6.66634H4.51315L6.42389 4.7556Z" fill="#0051FF"/>
<path d="M33.5787 35.2438C33.2533 35.5692 33.2533 36.0968 33.5787 36.4223C33.9041 36.7477 34.4318 36.7477 34.7572 36.4223L38.0906 33.0889C38.416 32.7635 38.416 32.2359 38.0906 31.9104L34.7572 28.5771C34.4318 28.2516 33.9042 28.2516 33.5787 28.5771C33.2533 28.9025 33.2533 29.4302 33.5787 29.7556L35.4895 31.6663H29.168C28.7077 31.6663 28.3346 32.0394 28.3346 32.4997C28.3346 32.9599 28.7077 33.333 29.168 33.333H35.4895L33.5787 35.2438Z" fill="#0051FF"/>
<path d="M26.368 17.633C26.9005 17.596 27.4002 17.3622 27.7698 16.9771C28.1395 16.592 28.3527 16.0833 28.368 15.5497C28.368 14.5164 27.8346 13.8997 26.4846 13.4163C25.518 13.0663 25.1346 12.7664 25.1346 12.4497C25.1346 12.1331 25.368 11.8164 26.1013 11.8164C26.6783 11.8198 27.2474 11.9507 27.768 12.1997L28.0846 10.9163C27.5592 10.684 26.9924 10.5594 26.418 10.5497V9.54964H25.3013V10.633C24.7924 10.6778 24.3178 10.9079 23.9675 11.2797C23.6172 11.6515 23.4157 12.1391 23.4013 12.6497C23.4013 13.7497 24.218 14.2997 25.4346 14.7164C26.268 14.9997 26.6346 15.2496 26.6346 15.6996C26.6346 16.1496 26.1846 16.3997 25.5513 16.3997C24.8914 16.3944 24.2436 16.2223 23.668 15.8996L23.3346 17.2331C23.9238 17.5345 24.5731 17.6996 25.2346 17.7163V18.783H26.368V17.633Z" fill="#0051FF"/>
<path d="M17.3513 29.1831C16.7325 29.4973 16.045 29.652 15.3513 29.6331C14.8734 29.6456 14.3978 29.5637 13.9516 29.3921C13.5054 29.2205 13.0975 28.9626 12.7513 28.633C12.3321 28.2008 12.0333 27.6665 11.8846 27.083H10.9846V26.1664H11.7513V25.8664C11.7437 25.7554 11.7437 25.644 11.7513 25.5331H11.0012V24.6164H11.8846C12.0434 24.0432 12.3477 23.5206 12.7679 23.0997C13.5128 22.3922 14.5076 22.0087 15.5346 22.0331C16.153 22.0169 16.7674 22.1363 17.3346 22.383L16.9512 23.7664C16.5571 23.595 16.131 23.5097 15.7012 23.5164C15.4425 23.5032 15.1838 23.5421 14.9405 23.6309C14.6971 23.7197 14.4741 23.8564 14.2846 24.033C14.1261 24.1963 14.0114 24.397 13.9513 24.6164H16.7679V25.5331H13.7179C13.7109 25.6329 13.7109 25.7332 13.7179 25.833C13.7108 25.944 13.7108 26.0554 13.7179 26.1664H16.7679V27.083H13.9513C14.0163 27.277 14.1246 27.4537 14.2679 27.5997C14.4625 27.7789 14.6911 27.917 14.9403 28.0058C15.1894 28.0946 15.4539 28.1322 15.7179 28.1164C16.2167 28.117 16.7103 28.0149 17.1679 27.8164L17.3513 29.1831Z" fill="#0051FF"/>
<path fill-rule="evenodd" clip-rule="evenodd" d="M15.0013 14.1663C15.0013 8.18326 19.8516 3.33301 25.8346 3.33301C31.8177 3.33301 36.668 8.18326 36.668 14.1663C36.668 20.1494 31.8177 24.9997 25.8346 24.9997C25.5426 24.9997 25.2533 24.9881 24.9671 24.9654C24.9897 25.2516 25.0013 25.541 25.0013 25.833C25.0013 31.8161 20.1511 36.6663 14.168 36.6663C8.18488 36.6663 3.33464 31.8161 3.33464 25.833C3.33464 19.8499 8.18488 14.9997 14.168 14.9997C14.46 14.9997 14.7493 15.0112 15.0355 15.0339C15.0129 14.7477 15.0013 14.4584 15.0013 14.1663ZM25.8346 4.99967C20.772 4.99967 16.668 9.10373 16.668 14.1663C16.668 19.229 20.772 23.333 25.8346 23.333C30.8972 23.333 35.0013 19.229 35.0013 14.1663C35.0013 9.10373 30.8972 4.99967 25.8346 4.99967ZM15.308 16.7365C16.2615 20.6551 19.3459 23.7395 23.2644 24.693C23.3108 25.0665 23.3346 25.4469 23.3346 25.833C23.3346 30.8956 19.2306 34.9997 14.168 34.9997C9.10536 34.9997 5.0013 30.8956 5.0013 25.833C5.0013 20.7704 9.10536 16.6663 14.168 16.6663C14.554 16.6663 14.9345 16.6902 15.308 16.7365Z" fill="#0051FF"/>
</svg>
