<svg width="40" height="40" viewBox="0 0 40 40" fill="none" xmlns="http://www.w3.org/2000/svg">
<path d="M30.5893 26.4226C30.9147 26.0972 30.9147 25.5695 30.5893 25.2441C30.2638 24.9186 29.7362 24.9186 29.4107 25.2441L26.6667 27.9882L25.5893 26.9107C25.2638 26.5853 24.7362 26.5853 24.4107 26.9107C24.0853 27.2362 24.0853 27.7638 24.4107 28.0893L26.0774 29.7559C26.4028 30.0814 26.9305 30.0814 27.2559 29.7559L30.5893 26.4226Z" fill="#0051FF"/>
<path fill-rule="evenodd" clip-rule="evenodd" d="M20.5314 17.0994C22.2274 15.8908 23.3333 13.9079 23.3333 11.6667C23.3333 7.98477 20.3486 5 16.6667 5C12.9848 5 10 7.98477 10 11.6667C10 13.9079 11.106 15.8908 12.8019 17.0994C11.0685 17.6047 9.47265 18.54 8.17301 19.8397C6.14137 21.8713 5 24.6268 5 27.5V28C5 28.9725 5.38631 29.9051 6.07394 30.5927C6.76157 31.2804 7.69421 31.6667 8.66667 31.6667H21.2083C21.3584 31.9483 21.5221 32.2237 21.6991 32.4918C23.0145 34.4848 24.9825 35.9505 27.2613 36.6318C27.417 36.6783 27.583 36.6783 27.7387 36.6318C30.0175 35.9505 31.9855 34.4848 33.3009 32.4918C34.6155 30.5001 35.1957 28.1075 34.9416 25.7301L34.5116 21.3209C34.4755 20.9513 34.1993 20.6501 33.8341 20.5824C31.0418 20.0646 28.2026 19.8921 25.379 20.0648C25.3073 19.9888 25.2344 19.9138 25.1603 19.8397C23.8607 18.54 22.2648 17.6047 20.5314 17.0994ZM11.6667 11.6667C11.6667 8.90524 13.9052 6.66667 16.6667 6.66667C19.4281 6.66667 21.6667 8.90524 21.6667 11.6667C21.6667 14.4281 19.4281 16.6667 16.6667 16.6667C13.9052 16.6667 11.6667 14.4281 11.6667 11.6667ZM20.0584 25.7301C19.9035 27.1792 20.0586 28.6339 20.501 30H8.66667C8.13623 30 7.62753 29.7893 7.25245 29.4142C6.87738 29.0391 6.66667 28.5304 6.66667 28V27.5C6.66667 25.0688 7.63244 22.7373 9.35152 21.0182C11.0706 19.2991 13.4022 18.3333 15.8333 18.3333H17.5C19.5547 18.3333 21.5383 19.0232 23.1411 20.2746C22.4806 20.3581 21.822 20.4607 21.1659 20.5824C20.8007 20.6501 20.5245 20.9513 20.4884 21.3209L20.0584 25.7301ZM22.0857 22.1129L21.7168 25.8958L21.716 25.9038C21.502 27.8985 21.9887 29.905 23.09 31.5737C24.145 33.172 25.6993 34.3626 27.5 34.9597C29.3007 34.3626 30.855 33.172 31.91 31.5737C33.0113 29.905 33.498 27.8985 33.284 25.9038L33.2831 25.8958L32.9143 22.1129C29.3289 21.5179 25.6711 21.5179 22.0857 22.1129Z" fill="#0051FF"/>
</svg>
