<svg width="24" height="24" viewBox="0 0 24 24" fill="none" xmlns="http://www.w3.org/2000/svg">
<path fill-rule="evenodd" clip-rule="evenodd" d="M7.46936 3C7.7455 3 7.96936 3.22386 7.96936 3.5V4H11.4694V3.5C11.4694 3.22386 11.6932 3 11.9694 3C12.2455 3 12.4694 3.22386 12.4694 3.5V4H15.9694V3.5C15.9694 3.22386 16.1932 3 16.4694 3C16.7455 3 16.9694 3.22386 16.9694 3.5V4H19.4694C19.8672 4 20.2487 4.15803 20.53 4.43934C20.8113 4.72065 20.9694 5.10218 20.9694 5.5V9.32812C20.989 9.38172 20.9997 9.43961 20.9997 9.5V17.8962C21.0055 18.2977 20.9321 18.6964 20.7839 19.0696C20.6352 19.444 20.414 19.7854 20.1331 20.0742C19.8521 20.3629 19.5168 20.5934 19.1466 20.7522C18.7763 20.9111 18.3784 20.9953 17.9755 21L17.9697 21L5.95803 21C5.15061 20.9812 4.38339 20.6438 3.82361 20.0616C3.26479 19.4804 2.95796 18.7023 2.96968 17.8962L2.96936 5.5C2.96936 5.10218 3.1274 4.72064 3.4087 4.43934C3.69 4.15804 4.07154 4 4.46936 4H6.96936V3.5C6.96936 3.22386 7.19322 3 7.46936 3ZM19.8229 5.14645C19.9167 5.24021 19.9694 5.36739 19.9694 5.5V9H3.96936V5.5C3.96936 5.36739 4.02204 5.24021 4.11581 5.14645C4.20958 5.05268 4.33675 5 4.46936 5H6.96936V6.5C6.96936 6.77614 7.19322 7 7.46936 7C7.7455 7 7.96936 6.77614 7.96936 6.5V5H11.4694V6.5C11.4694 6.77614 11.6932 7 11.9694 7C12.2455 7 12.4694 6.77614 12.4694 6.5V5H15.9694V6.5C15.9694 6.77614 16.1932 7 16.4694 7C16.7455 7 16.9694 6.77614 16.9694 6.5V5H19.4694C19.602 5 19.7291 5.05268 19.8229 5.14645ZM4.54444 19.3685C4.1676 18.9766 3.96104 18.4516 3.96968 17.9079V10H19.9997L19.9996 17.9L19.9997 17.9078C20.004 18.179 19.9547 18.4484 19.8545 18.7005C19.7544 18.9526 19.6055 19.1824 19.4164 19.3768C19.2272 19.5712 19.0015 19.7263 18.7523 19.8333C18.5039 19.9399 18.2369 19.9965 17.9666 20H5.97585C5.43431 19.9859 4.92002 19.7591 4.54444 19.3685Z" fill="#0051FF"/>
</svg>
