<svg width="24" height="24" viewBox="0 0 24 24" fill="none" xmlns="http://www.w3.org/2000/svg">
<path fill-rule="evenodd" clip-rule="evenodd" d="M5 3.5C5 3.22386 5.22386 3 5.5 3H13V6.30005C13 6.68665 13.3134 7.00005 13.7 7.00005H17V11.5C17 11.7761 17.2239 12 17.5 12C17.7761 12 18 11.7761 18 11.5V6.71961C18 6.30772 17.8306 5.91395 17.5316 5.63068L14.1331 2.41107C13.8545 2.14712 13.4853 2 13.1015 2H5.5C4.67157 2 4 2.67157 4 3.5V19.5C4 20.3284 4.67157 21 5.5 21H8.5C8.77614 21 9 20.7761 9 20.5C9 20.2239 8.77614 20 8.5 20H5.5C5.22386 20 5 19.7761 5 19.5V3.5ZM16.2929 6.00005L14 3.70716V6.00005H16.2929Z" fill="#0033AA"/>
<path d="M6.5 7.5C6.5 7.22386 6.72386 7 7 7H10.57C10.8461 7 11.07 7.22386 11.07 7.5C11.07 7.77614 10.8461 8 10.57 8H7C6.72386 8 6.5 7.77614 6.5 7.5Z" fill="#0033AA"/>
<path d="M7 12C6.72386 12 6.5 12.2239 6.5 12.5C6.5 12.7761 6.72386 13 7 13H9C9.27614 13 9.5 12.7761 9.5 12.5C9.5 12.2239 9.27614 12 9 12H7Z" fill="#0033AA"/>
<path d="M6.5 10C6.5 9.72386 6.72386 9.5 7 9.5H14.5C14.7761 9.5 15 9.72386 15 10C15 10.2761 14.7761 10.5 14.5 10.5H7C6.72386 10.5 6.5 10.2761 6.5 10Z" fill="#0033AA"/>
<path fill-rule="evenodd" clip-rule="evenodd" d="M16 15C14.8954 15 14 15.8954 14 17C14 18.1046 14.8954 19 16 19C17.1046 19 18 18.1046 18 17C18 15.8954 17.1046 15 16 15ZM15 17C15 16.4477 15.4477 16 16 16C16.5523 16 17 16.4477 17 17C17 17.5523 16.5523 18 16 18C15.4477 18 15 17.5523 15 17Z" fill="#0033AA"/>
<path d="M13 16C13.2761 16 13.5 16.2239 13.5 16.5V17.5C13.5 17.7761 13.2761 18 13 18C12.7239 18 12.5 17.7761 12.5 17.5V16.5C12.5 16.2239 12.7239 16 13 16Z" fill="#0033AA"/>
<path d="M19.5 16.5C19.5 16.2239 19.2761 16 19 16C18.7239 16 18.5 16.2239 18.5 16.5V17.5C18.5 17.7761 18.7239 18 19 18C19.2761 18 19.5 17.7761 19.5 17.5V16.5Z" fill="#0033AA"/>
<path fill-rule="evenodd" clip-rule="evenodd" d="M10 13.8929C10 13.3997 10.3997 13 10.8929 13H21.1071C21.6003 13 22 13.3997 22 13.8929V20.1071C22 20.6003 21.6003 21 21.1071 21H10.8929C10.3997 21 10 20.6003 10 20.1071V13.8929ZM12.3068 15.4142C11.9571 15.7639 11.4913 15.9707 11 15.9971V18.1101C11.4913 18.1365 11.9571 18.3433 12.3068 18.693C12.6565 19.0427 12.8634 19.5086 12.8897 20H19.0385C19.0649 19.5086 19.2717 19.0427 19.6214 18.693C19.9881 18.3263 20.4825 18.1167 21 18.1075V15.9997C20.4825 15.9905 19.9881 15.7809 19.6214 15.4142C19.2464 15.0391 19.0356 14.5304 19.0356 14H12.8926C12.8926 14.5304 12.6819 15.0391 12.3068 15.4142ZM11.5997 19.4001C11.7618 19.5622 11.8625 19.7742 11.8868 20H11V19.113C11.2257 19.1373 11.4376 19.238 11.5997 19.4001ZM21 19.1078C20.7477 19.1168 20.5077 19.221 20.3285 19.4001C20.1664 19.5622 20.0657 19.7742 20.0414 20H21V19.1078ZM20.3285 14.7071C20.141 14.5196 20.0356 14.2652 20.0356 14H21V14.9994C20.7477 14.9904 20.5077 14.8862 20.3285 14.7071ZM11 14.9942C11.2257 14.9698 11.4376 14.8691 11.5997 14.7071C11.7872 14.5196 11.8926 14.2652 11.8926 14H11V14.9942Z" fill="#0033AA"/>
</svg>
