<svg width="24" height="24" viewBox="0 0 24 24" fill="none" xmlns="http://www.w3.org/2000/svg">
<path d="M18.3536 15.8536C18.5488 15.6583 18.5488 15.3417 18.3536 15.1464C18.1583 14.9512 17.8417 14.9512 17.6464 15.1464L16 16.7929L15.3536 16.1464C15.1583 15.9512 14.8417 15.9512 14.6464 16.1464C14.4512 16.3417 14.4512 16.6583 14.6464 16.8536L15.6464 17.8536C15.8417 18.0488 16.1583 18.0488 16.3536 17.8536L18.3536 15.8536Z" fill="#0033AA"/>
<path fill-rule="evenodd" clip-rule="evenodd" d="M12.3189 10.2597C13.3364 9.53448 14 8.34473 14 7C14 4.79086 12.2091 3 10 3C7.79086 3 6 4.79086 6 7C6 8.34473 6.66357 9.53448 7.68113 10.2597C6.6411 10.5628 5.68359 11.124 4.90381 11.9038C3.68482 13.1228 3 14.7761 3 16.5V16.8C3 17.3835 3.23179 17.9431 3.64437 18.3556C4.05694 18.7682 4.61652 19 5.2 19H12.725C12.8151 19.169 12.9133 19.3342 13.0194 19.4951C13.8087 20.6909 14.9895 21.5703 16.3568 21.9791C16.4502 22.007 16.5498 22.007 16.6432 21.9791C18.0105 21.5703 19.1913 20.6909 19.9806 19.4951C20.7693 18.3001 21.1174 16.8645 20.965 15.4381L20.7069 12.7925C20.6853 12.5708 20.5196 12.3901 20.3005 12.3494C18.6251 12.0388 16.9216 11.9352 15.2274 12.0389C15.1844 11.9933 15.1407 11.9483 15.0962 11.9038C14.3164 11.124 13.3589 10.5628 12.3189 10.2597ZM7 7C7 5.34315 8.34315 4 10 4C11.6569 4 13 5.34315 13 7C13 8.65685 11.6569 10 10 10C8.34315 10 7 8.65685 7 7ZM12.035 15.4381C11.9421 16.3075 12.0352 17.1803 12.3006 18H5.2C4.88174 18 4.57652 17.8736 4.35147 17.6485C4.12643 17.4235 4 17.1183 4 16.8V16.5C4 15.0413 4.57946 13.6424 5.61091 12.6109C6.64236 11.5795 8.04131 11 9.5 11H10.5C11.7328 11 12.923 11.4139 13.8847 12.1648C13.4884 12.2149 13.0932 12.2764 12.6995 12.3494C12.4804 12.3901 12.3147 12.5708 12.2931 12.7925L12.035 15.4381ZM13.2514 13.2677L13.0301 15.5375L13.0296 15.5423C12.9012 16.7391 13.1932 17.943 13.854 18.9442C14.487 19.9032 15.4196 20.6175 16.5 20.9758C17.5804 20.6175 18.513 19.9032 19.146 18.9442C19.8068 17.943 20.0988 16.7391 19.9704 15.5423L19.9699 15.5375L19.7486 13.2677C17.5973 12.9108 15.4027 12.9108 13.2514 13.2677Z" fill="#0033AA"/>
</svg>
