<svg width="40" height="40" viewBox="0 0 40 40" fill="none" xmlns="http://www.w3.org/2000/svg">
<path d="M6.49138 24.4279C6.68735 24.0114 7.18379 23.8327 7.60023 24.0287L10.4983 25.3925C10.9147 25.5884 11.0934 26.0849 10.8974 26.5013C10.7015 26.9177 10.205 27.0965 9.7886 26.9005L6.89057 25.5367C6.47413 25.3408 6.29541 24.8443 6.49138 24.4279Z" fill="#0051FF"/>
<path fill-rule="evenodd" clip-rule="evenodd" d="M18.6869 5.07932C18.4621 4.97356 18.2019 4.97356 17.9772 5.07932L3.8274 11.738C3.76155 11.7673 3.7002 11.8048 3.64467 11.8493C3.45408 12.002 3.33203 12.2368 3.33203 12.5V29.1667C3.33203 29.4895 3.51846 29.7832 3.81053 29.9207L17.9772 36.5873C18.2019 36.6931 18.4621 36.6931 18.6869 36.5873L22.5766 34.7569C22.993 34.5609 23.1718 34.0645 22.9758 33.648C22.7798 33.2316 22.2834 33.0529 21.8669 33.2488L19.1654 34.5202V19.6955L24.9989 16.9503V19.1666C24.9989 19.6269 25.372 20 25.8322 20C26.2925 20 26.6655 19.6269 26.6655 19.1666V16.166L31.6654 13.8132V20.8333C31.6654 21.2936 32.0385 21.6667 32.4987 21.6667C32.9589 21.6667 33.332 21.2936 33.332 20.8333V12.5C33.332 12.2982 33.2592 12.1078 33.1333 11.9598C33.0922 11.9116 33.0455 11.8679 32.9939 11.8297C32.9453 11.7937 32.8926 11.7629 32.8367 11.738L18.6869 5.07932ZM25.6412 14.8061L30.5416 12.5L18.332 6.75433L13.8016 8.8863L25.6412 14.8061ZM11.9237 9.76999L6.12248 12.5L18.332 18.2457L23.7213 15.7095L12.1262 9.912C12.0501 9.87394 11.9823 9.82579 11.9237 9.76999ZM17.4987 19.6955L4.9987 13.8132V28.6378L17.4987 34.5202V19.6955Z" fill="#0051FF"/>
<path fill-rule="evenodd" clip-rule="evenodd" d="M21.6654 29.1667C21.6654 28.7064 22.0385 28.3333 22.4987 28.3333H23.3911C23.7565 25.7786 25.7773 23.7578 28.332 23.3924V22.5C28.332 22.0398 28.7051 21.6667 29.1654 21.6667C29.6256 21.6667 29.9987 22.0398 29.9987 22.5V23.3924C32.5534 23.7578 34.5742 25.7786 34.9396 28.3333H36.2487C36.7089 28.3333 37.082 28.7064 37.082 29.1667C37.082 29.6269 36.7089 30 36.2487 30H34.9396C34.5742 32.5547 32.5534 34.5755 29.9987 34.9409V36.25C29.9987 36.7102 29.6256 37.0833 29.1654 37.0833C28.7051 37.0833 28.332 36.7102 28.332 36.25V34.9409C25.7773 34.5755 23.7565 32.5547 23.3911 30H22.4987C22.0385 30 21.6654 29.6269 21.6654 29.1667ZM29.9987 33.25C31.6313 32.9186 32.9173 31.6326 33.2487 30H29.9987V33.25ZM28.332 33.25C26.6994 32.9186 25.4134 31.6326 25.082 30H28.332V33.25ZM33.2487 28.3333C32.9173 26.7007 31.6313 25.4147 29.9987 25.0833V28.3333H33.2487ZM25.082 28.3333C25.4134 26.7007 26.6994 25.4147 28.332 25.0833V28.3333H25.082Z" fill="#0051FF"/>
</svg>
