<svg width="96" height="88" viewBox="0 0 96 88" fill="none" xmlns="http://www.w3.org/2000/svg">
<path d="M24 8C24 3.58172 27.5817 0 32 0H64C68.4183 0 72 3.58172 72 8V40C72 44.4183 68.4183 48 64 48H32C27.5817 48 24 44.4183 24 40V8Z" fill="#003FCA"/>
<path d="M55 22H51V23H55V22Z" fill="#F2F6FF"/>
<path d="M51 24H55V25H51V24Z" fill="#F2F6FF"/>
<path d="M55 26H51V27H55V26Z" fill="#F2F6FF"/>
<path d="M42 17H41V18H42V17Z" fill="#F2F6FF"/>
<path d="M43 17H44V18H43V17Z" fill="#F2F6FF"/>
<path d="M46 17H45V18H46V17Z" fill="#F2F6FF"/>
<path d="M47 17H48V18H47V17Z" fill="#F2F6FF"/>
<path d="M42 19H41V20H42V19Z" fill="#F2F6FF"/>
<path d="M43 19H44V20H43V19Z" fill="#F2F6FF"/>
<path d="M46 19H45V20H46V19Z" fill="#F2F6FF"/>
<path d="M47 19H48V20H47V19Z" fill="#F2F6FF"/>
<path d="M42 21H41V22H42V21Z" fill="#F2F6FF"/>
<path d="M43 21H44V22H43V21Z" fill="#F2F6FF"/>
<path d="M46 21H45V22H46V21Z" fill="#F2F6FF"/>
<path d="M47 21H48V22H47V21Z" fill="#F2F6FF"/>
<path d="M42 23H41V24H42V23Z" fill="#F2F6FF"/>
<path d="M43 23H44V24H43V23Z" fill="#F2F6FF"/>
<path d="M46 23H45V24H46V23Z" fill="#F2F6FF"/>
<path d="M47 23H48V24H47V23Z" fill="#F2F6FF"/>
<path d="M42 25H41V26H42V25Z" fill="#F2F6FF"/>
<path d="M43 25H44V26H43V25Z" fill="#F2F6FF"/>
<path d="M46 25H45V26H46V25Z" fill="#F2F6FF"/>
<path d="M47 25H48V26H47V25Z" fill="#F2F6FF"/>
<path d="M42 27H41V28H42V27Z" fill="#F2F6FF"/>
<path d="M43 27H44V28H43V27Z" fill="#F2F6FF"/>
<path d="M46 27H45V28H46V27Z" fill="#F2F6FF"/>
<path d="M47 27H48V28H47V27Z" fill="#F2F6FF"/>
<path fill-rule="evenodd" clip-rule="evenodd" d="M39.5 15C39.2239 15 39 15.2239 39 15.5V32H37.5C37.2239 32 37 32.2239 37 32.5C37 32.7761 37.2239 33 37.5 33H58.5C58.7761 33 59 32.7761 59 32.5C59 32.2239 58.7761 32 58.5 32H57V21.5C57 21.1022 56.842 20.7206 56.5607 20.4393C56.2794 20.158 55.8978 20 55.5 20H50V15.5C50 15.2239 49.7761 15 49.5 15H39.5ZM55.8536 21.1464C55.9473 21.2402 56 21.3674 56 21.5V32H50V21H55.5C55.6326 21 55.7598 21.0527 55.8536 21.1464ZM49 32H40V16H49V32Z" fill="#F2F6FF"/>
<rect y="52" width="96" height="36" rx="4" fill="#00164E"/>
<path d="M12.6824 74.168C10.9184 74.168 9.67041 73.256 9.10641 71.912L10.2944 71.288C10.8224 72.332 11.6384 72.836 12.7424 72.836C13.8224 72.836 14.5544 72.488 14.5544 71.684C14.5544 70.916 14.0024 70.556 12.5384 70.124C10.8224 69.62 9.44241 69.152 9.44241 67.46C9.44241 65.948 10.6784 64.952 12.4784 64.952C14.2304 64.952 15.2624 65.816 15.8024 66.86L14.7104 67.616C14.1824 66.728 13.4264 66.32 12.4664 66.32C11.4824 66.32 10.9184 66.68 10.9184 67.328C10.9184 68.156 11.5544 68.432 13.0064 68.864C14.6864 69.356 16.0304 69.908 16.0304 71.576C16.0304 73.028 14.7944 74.168 12.6824 74.168ZM19.826 74H18.458L16.562 67.628H18.062L18.758 70.268C18.95 70.988 19.07 71.48 19.238 72.296H19.262C19.454 71.432 19.562 70.976 19.766 70.244L20.438 67.628H21.638L22.346 70.292C22.55 71 22.658 71.48 22.838 72.296H22.862C23.054 71.468 23.162 71.012 23.366 70.316L24.086 67.628H25.43L23.534 74H22.154L21.002 69.572H20.978L19.826 74ZM27.9583 66.524H26.4463V65.24H27.9583V66.524ZM27.9463 74H26.4583V67.628H27.9463V74ZM32.1398 74.084C30.5198 74.084 30.1718 73.484 30.1718 72.332V68.804H29.0678V67.628H30.1718V65.408H31.6478V67.628H33.2918V68.804H31.6478V71.96C31.6478 72.644 31.8518 72.92 32.5838 72.92C32.7998 72.92 33.0758 72.884 33.2198 72.836V74C33.0638 74.036 32.5118 74.084 32.1398 74.084ZM37.0651 74.132C35.5891 74.132 34.0891 73.148 34.0891 70.82C34.0891 68.384 35.7331 67.508 37.1491 67.508C38.7331 67.508 39.4051 68.384 39.7891 69.368L38.5411 69.812C38.2891 69.092 37.8331 68.744 37.1251 68.744C36.2851 68.744 35.5771 69.296 35.5771 70.82C35.5771 72.176 36.1291 72.92 37.1011 72.92C37.7731 72.92 38.2411 72.716 38.5891 71.816L39.8131 72.26C39.3571 73.28 38.6011 74.132 37.0651 74.132ZM42.4762 74H40.9882V65.12H42.4762V68.492C42.8842 68.06 43.6522 67.508 44.8042 67.508C45.9202 67.508 46.6402 68.168 46.6402 69.428V74H45.1522V69.8C45.1522 69.092 44.8522 68.768 44.2042 68.768C43.5562 68.768 43.0162 69.104 42.4762 69.596V74ZM52.8983 74H51.4103V65.12H54.5183C56.4383 65.12 57.9383 65.792 57.9383 67.844C57.9383 69.992 56.2943 70.628 54.4703 70.628H52.8983V74ZM52.8983 66.488V69.32H54.5423C55.8623 69.32 56.4623 68.912 56.4623 67.892C56.4623 66.908 55.8623 66.488 54.5303 66.488H52.8983ZM60.429 74H58.953V67.628H60.429V68.672H60.453C60.849 68.036 61.533 67.508 62.745 67.508H62.841L62.793 68.864C62.721 68.852 62.481 68.84 62.397 68.84C61.449 68.84 60.849 69.284 60.429 69.968V74ZM66.4119 74.132C64.8639 74.132 63.3039 73.148 63.3039 70.82C63.3039 68.468 64.8519 67.508 66.4119 67.508C67.9599 67.508 69.5199 68.468 69.5199 70.82C69.5199 73.148 67.9599 74.132 66.4119 74.132ZM66.4119 72.896C67.4799 72.896 68.0319 72.128 68.0319 70.82C68.0319 69.632 67.5279 68.768 66.4119 68.768C65.3439 68.768 64.7919 69.536 64.7919 70.82C64.7919 72.032 65.2839 72.896 66.4119 72.896ZM76.4552 66.584H74.9552V65.24H76.4552V66.584ZM72.7232 74H71.2472V68.804H70.1432V67.628H71.2472V66.98C71.2472 65.912 71.7392 65.084 73.1552 65.084C73.4432 65.084 73.8752 65.132 73.9832 65.144V66.284C73.8752 66.26 73.6712 66.248 73.5392 66.248C73.0112 66.248 72.7232 66.524 72.7232 67.076V67.628H73.9712V68.804H72.7232V74ZM76.4432 74H74.9672V67.628H76.4432V74ZM79.7666 74H78.2786V65.12H79.7666V74ZM84.2002 74.132C82.6042 74.132 81.1282 73.16 81.1282 70.82C81.1282 68.396 82.8442 67.508 84.1642 67.508C85.5922 67.508 86.9602 68.36 86.9602 70.952V71.3H82.6042C82.6642 72.452 83.3722 72.956 84.3082 72.956C85.1362 72.956 85.6162 72.68 86.0962 72.212L86.8762 72.98C86.2162 73.712 85.3402 74.132 84.2002 74.132ZM82.6282 70.196H85.6042C85.5202 69.224 85.0402 68.708 84.1522 68.708C83.4322 68.708 82.7722 69.116 82.6282 70.196Z" fill="#F2F6FF"/>
</svg>
