<svg width="24" height="24" viewBox="0 0 24 24" fill="none" xmlns="http://www.w3.org/2000/svg">
<path d="M4.73223 4.73223C5.20107 4.26339 5.83696 4 6.5 4H11.5C11.7761 4 12 4.22386 12 4.5C12 4.77614 11.7761 5 11.5 5H6.5C6.10217 5 5.72064 5.15804 5.43934 5.43934C5.15803 5.72064 5 6.10217 5 6.5V17.5C5 17.8978 5.15803 18.2794 5.43934 18.5607C5.72064 18.842 6.10218 19 6.5 19H17.5C17.8978 19 18.2794 18.842 18.5607 18.5607C18.842 18.2794 19 17.8978 19 17.5V12.5C19 12.2239 19.2239 12 19.5 12C19.7761 12 20 12.2239 20 12.5V17.5C20 18.163 19.7366 18.7989 19.2678 19.2678C18.7989 19.7366 18.163 20 17.5 20H6.5C5.83696 20 5.20107 19.7366 4.73223 19.2678C4.26339 18.7989 4 18.163 4 17.5V6.5C4 5.83696 4.26339 5.20107 4.73223 4.73223Z" fill="white"/>
<path d="M15 4.5C15 4.22386 15.2239 4 15.5 4H20V8.5C20 8.77614 19.7761 9 19.5 9C19.2239 9 19 8.77614 19 8.5V5.70711L11.8536 12.8536C11.6583 13.0488 11.3417 13.0488 11.1464 12.8536C10.9512 12.6583 10.9512 12.3417 11.1464 12.1464L18.2929 5H15.5C15.2239 5 15 4.77614 15 4.5Z" fill="white"/>
</svg>
