<svg width="64" height="64" viewBox="0 0 64 64" fill="none" xmlns="http://www.w3.org/2000/svg">
<path d="M48.9428 42.2761C49.4635 41.7554 49.4635 40.9112 48.9428 40.3905C48.4221 39.8698 47.5779 39.8698 47.0572 40.3905L42.6667 44.7811L40.9428 43.0572C40.4221 42.5365 39.5779 42.5365 39.0572 43.0572C38.5365 43.5779 38.5365 44.4221 39.0572 44.9428L41.7239 47.6095C42.2446 48.1302 43.0888 48.1302 43.6095 47.6095L48.9428 42.2761Z" fill="#0051FF"/>
<path fill-rule="evenodd" clip-rule="evenodd" d="M32.8503 27.3591C35.5638 25.4253 37.3333 22.2526 37.3333 18.6667C37.3333 12.7756 32.5577 8 26.6667 8C20.7756 8 16 12.7756 16 18.6667C16 22.2526 17.7695 25.4253 20.483 27.3591C17.7096 28.1675 15.1562 29.6641 13.0768 31.7435C9.82619 34.9941 8 39.4029 8 44V44.8C8 46.3559 8.61809 47.8481 9.71831 48.9484C10.8185 50.0486 12.3107 50.6667 13.8667 50.6667H33.9333C34.1735 51.1173 34.4353 51.5579 34.7185 51.9869C36.8232 55.1756 39.972 57.5208 43.6181 58.6108C43.8673 58.6853 44.1327 58.6853 44.3819 58.6108C48.028 57.5208 51.1768 55.1756 53.2815 51.9869C55.3849 48.8002 56.3131 44.9719 55.9066 41.1681L55.2185 34.1134C55.1609 33.522 54.7188 33.0402 54.1346 32.9318C49.6668 32.1034 45.1242 31.8273 40.6065 32.1037C40.4917 31.9821 40.3751 31.862 40.2565 31.7435C38.1771 29.6641 35.6237 28.1675 32.8503 27.3591ZM18.6667 18.6667C18.6667 14.2484 22.2484 10.6667 26.6667 10.6667C31.0849 10.6667 34.6667 14.2484 34.6667 18.6667C34.6667 23.0849 31.0849 26.6667 26.6667 26.6667C22.2484 26.6667 18.6667 23.0849 18.6667 18.6667ZM32.0934 41.1682C31.8456 43.4866 32.0937 45.8142 32.8016 48H13.8667C13.018 48 12.204 47.6629 11.6039 47.0627C11.0038 46.4626 10.6667 45.6487 10.6667 44.8V44C10.6667 40.1102 12.2119 36.3796 14.9624 33.6291C17.713 30.8786 21.4435 29.3333 25.3333 29.3333H28C31.2875 29.3333 34.4613 30.4371 37.0258 32.4394C35.969 32.573 34.9152 32.7372 33.8654 32.9318C33.2812 33.0402 32.8391 33.522 32.7815 34.1134L32.0934 41.1682ZM35.3372 35.3807L34.7469 41.4333L34.7456 41.4461C34.4032 44.6376 35.1819 47.8481 36.9441 50.5179C38.632 53.0751 41.1189 54.9801 44 55.9355C46.8811 54.9801 49.368 53.0751 51.0559 50.5179C52.8181 47.8481 53.5968 44.6376 53.2544 41.4461L53.253 41.4333L52.6628 35.3807C46.9262 34.4287 41.0738 34.4287 35.3372 35.3807Z" fill="#0051FF"/>
</svg>
