<svg width="24" height="24" viewBox="0 0 24 24" fill="none" xmlns="http://www.w3.org/2000/svg">
<path d="M9 11C9 11.5523 8.55228 12 8 12C7.44772 12 7 11.5523 7 11C7 10.4477 7.44772 10 8 10C8.55228 10 9 10.4477 9 11Z" fill="white"/>
<path d="M12 12C12.5523 12 13 11.5523 13 11C13 10.4477 12.5523 10 12 10C11.4477 10 11 10.4477 11 11C11 11.5523 11.4477 12 12 12Z" fill="white"/>
<path d="M16 12C16.5523 12 17 11.5523 17 11C17 10.4477 16.5523 10 16 10C15.4477 10 15 10.4477 15 11C15 11.5523 15.4477 12 16 12Z" fill="white"/>
<path fill-rule="evenodd" clip-rule="evenodd" d="M10.6581 17.9743C10.6799 17.9671 10.7011 17.9595 10.7216 17.9517C11.2718 18.5934 12.0884 19 13 19H15.7246L18.0876 20.8904C18.2377 21.0105 18.4434 21.0339 18.6166 20.9507C18.7898 20.8674 18.9 20.6922 18.9 20.5V19H19C20.6569 19 22 17.6569 22 16C22 15.2189 21.7015 14.5075 21.2123 13.9737C21.7136 13.0969 22 12.0813 22 11C22 7.68629 19.3137 5 16 5H8C4.68629 5 2 7.68629 2 11C2 13.9731 4.16208 16.4407 7 16.917V18.5C7 18.6607 7.07726 18.8116 7.20764 18.9056C7.33803 18.9996 7.50564 19.0252 7.65811 18.9743L10.6581 17.9743ZM8 6C5.23858 6 3 8.23858 3 11C3 13.6079 4.997 15.75 7.54488 15.9796C7.80879 16.0034 8.00625 16.2281 7.99988 16.4893L8 16.5V17.8063L10.1978 17.0737C10.07 16.7403 10 16.3783 10 16C10 14.3431 11.3431 13 13 13H19C19.5109 13 19.9919 13.1277 20.413 13.3529C20.7876 12.652 21 11.8513 21 11C21 8.23858 18.7614 6 16 6H8ZM18.453 18.0028C18.4665 18.0009 18.4821 18 18.5 18H19C20.1046 18 21 17.1046 21 16C21 14.8954 20.1046 14 19 14H13C11.8954 14 11 14.8954 11 16C11 17.1046 11.8954 18 13 18H15.9C16.0197 18 16.1296 18.0421 16.2157 18.1123L17.9 19.4597V18.5C17.9 18.2239 18.1239 18 18.4 18C18.4179 18 18.4356 18.0009 18.453 18.0028Z" fill="white"/>
</svg>
