<svg width="24" height="24" viewBox="0 0 24 24" fill="none" xmlns="http://www.w3.org/2000/svg">
<path fill-rule="evenodd" clip-rule="evenodd" d="M18.9639 14.0957C21.162 14.207 22.9102 16.0242 22.9102 18.25C22.9101 20.5474 21.0475 22.4101 18.75 22.4101C16.4525 22.4101 14.5899 20.5474 14.5898 18.25C14.5898 15.9525 16.4525 14.0898 18.75 14.0898L18.9639 14.0957ZM19.5381 19.9941C19.2824 20.0132 19.0189 20.0244 18.75 20.0244C18.4808 20.0244 18.2169 20.0133 17.9609 19.9941C18.0189 20.2795 18.0904 20.5377 18.1719 20.7617C18.2857 21.0747 18.4111 21.2998 18.5303 21.4384C18.6499 21.5775 18.7258 21.5897 18.75 21.5898C18.774 21.5898 18.8506 21.5781 18.9707 21.4384C19.0899 21.2998 19.2152 21.0747 19.3291 20.7617C19.4105 20.5378 19.4801 20.2793 19.5381 19.9941ZM21.8594 19.4677C21.7578 19.5143 21.6521 19.5595 21.542 19.5996C21.2059 19.7218 20.8164 19.8188 20.3906 19.8906C20.3188 20.3164 20.2218 20.7059 20.0996 21.042C20.0595 21.1521 20.0143 21.2577 19.9678 21.3593C20.8324 21.0205 21.5205 20.3323 21.8594 19.4677ZM15.6396 19.4677C15.9783 20.3321 16.6671 21.0193 17.5312 21.3584C17.4849 21.2571 17.4403 21.1517 17.4004 21.042C17.2782 20.7059 17.18 20.3165 17.1084 19.8906C16.683 19.8188 16.2938 19.7217 15.958 19.5996C15.8476 19.5594 15.7415 19.5144 15.6396 19.4677ZM18.75 17.2968C18.4337 17.2968 18.1288 17.3124 17.8398 17.3398C17.8124 17.6288 17.7969 17.9337 17.7969 18.25C17.7969 18.5659 17.8125 18.8705 17.8398 19.1591C18.1288 19.1866 18.4337 19.2041 18.75 19.2041C19.0663 19.2041 19.3712 19.1866 19.6602 19.1591C19.6875 18.8704 19.7041 18.5659 19.7041 18.25C19.7041 17.9337 19.6876 17.6288 19.6602 17.3398C19.3712 17.3124 19.0663 17.2968 18.75 17.2968ZM17.0049 17.4609C16.7199 17.5189 16.462 17.5905 16.2383 17.6718C15.9253 17.7857 15.7001 17.9111 15.5615 18.0302C15.4225 18.1498 15.4103 18.2258 15.4102 18.25C15.4102 18.2741 15.4221 18.3508 15.5615 18.4707C15.7002 18.5898 15.9253 18.7152 16.2383 18.8291C16.4619 18.9104 16.72 18.9801 17.0049 19.038C16.9858 18.7824 16.9766 18.5188 16.9766 18.25C16.9766 17.9808 16.9858 17.7168 17.0049 17.4609ZM20.4941 17.4609C20.5133 17.7169 20.5244 17.9808 20.5244 18.25C20.5244 18.5188 20.5133 18.7824 20.4941 19.038C20.7794 18.9801 21.0378 18.9105 21.2617 18.8291C21.5747 18.7152 21.7998 18.5898 21.9385 18.4707C22.0779 18.3508 22.0898 18.2741 22.0898 18.25C22.0897 18.2258 22.0775 18.1498 21.9385 18.0302C21.7999 17.9111 21.5747 17.7857 21.2617 17.6718C21.0378 17.5904 20.7795 17.5189 20.4941 17.4609ZM17.5312 15.1396C16.6671 15.4784 15.9795 16.1671 15.6406 17.0312C15.7421 16.9847 15.8479 16.9404 15.958 16.9004C16.2939 16.7782 16.6829 16.6799 17.1084 16.6084C17.18 16.1828 17.2783 15.7938 17.4004 15.458C17.4405 15.3476 17.4846 15.2413 17.5312 15.1396ZM19.9668 15.1396C20.0136 15.2415 20.0594 15.3474 20.0996 15.458C20.2217 15.7938 20.3188 16.1829 20.3906 16.6084C20.8165 16.6799 21.2059 16.7781 21.542 16.9004C21.6518 16.9403 21.7572 16.9848 21.8584 17.0312C21.5192 16.1667 20.8316 15.4782 19.9668 15.1396ZM18.75 14.9101C18.7258 14.9102 18.6499 14.9224 18.5303 15.0615C18.4111 15.2001 18.2857 15.4252 18.1719 15.7382C18.0905 15.962 18.0189 16.2198 17.9609 16.5048C18.2169 16.4858 18.4808 16.4765 18.75 16.4765C19.0188 16.4765 19.2824 16.4858 19.5381 16.5048C19.4802 16.22 19.4104 15.9619 19.3291 15.7382C19.2153 15.4252 19.0899 15.2001 18.9707 15.0615C18.8506 14.9218 18.774 14.9102 18.75 14.9101Z" fill="#F2F6FF"/>
<path fill-rule="evenodd" clip-rule="evenodd" d="M20.5 7.49996C21.0523 7.49996 21.5 7.94768 21.5 8.49996V13C21.5 13.2761 21.2761 13.5 21 13.5C20.7239 13.5 20.5 13.2761 20.5 13V11.5L20.2031 11.4853C19.5165 11.417 18.8711 11.1132 18.3789 10.6211C17.8867 10.1289 17.583 9.48341 17.5146 8.79684L17.5 8.49996H8.5L8.48535 8.79684C8.41704 9.48341 8.11328 10.1289 7.62109 10.6211C7.05849 11.1837 6.29564 11.5 5.5 11.5V14.5L5.79688 14.5146C6.48346 14.5829 7.1289 14.8867 7.62109 15.3789C8.18369 15.9415 8.5 16.7043 8.5 17.5H13.5C13.7761 17.5 14 17.7238 14 18C14 18.2761 13.7761 18.5 13.5 18.5H5.5C4.94773 18.5 4.50002 18.0522 4.5 17.5V8.49996C4.5 7.94768 4.94772 7.49996 5.5 7.49996H20.5ZM5.5 17.5H7.5C7.5 16.9695 7.28912 16.461 6.91406 16.0859C6.53899 15.7108 6.03043 15.5 5.5 15.5V17.5ZM5.5 10.5C6.03042 10.5 6.53899 10.2891 6.91406 9.91402C7.24234 9.58575 7.44482 9.15518 7.49023 8.69723L7.5 8.49996H5.5V10.5ZM18.5098 8.69723C18.5552 9.15518 18.7577 9.58575 19.0859 9.91402C19.4142 10.2423 19.8447 10.4448 20.3027 10.4902L20.5 10.5V8.49996H18.5L18.5098 8.69723Z" fill="#F2F6FF"/>
<path fill-rule="evenodd" clip-rule="evenodd" d="M13 10.5C14.3807 10.5 15.5 11.6193 15.5 13C15.5 14.3807 14.3807 15.5 13 15.5C11.6193 15.5 10.5 14.3807 10.5 13C10.5 11.6193 11.6193 10.5 13 10.5ZM13 11.5C12.1716 11.5 11.5 12.1715 11.5 13C11.5 13.8284 12.1716 14.5 13 14.5C13.8284 14.5 14.5 13.8284 14.5 13C14.5 12.1715 13.8284 11.5 13 11.5Z" fill="#F2F6FF"/>
<path d="M8 11.5C8.27614 11.5 8.5 11.7238 8.5 12V14C8.49998 14.2761 8.27613 14.5 8 14.5C7.72387 14.5 7.50002 14.2761 7.5 14V12C7.5 11.7238 7.72386 11.5 8 11.5Z" fill="#F2F6FF"/>
<path d="M18 11.5C18.2761 11.5 18.5 11.7238 18.5 12V13C18.5 13.2761 18.2761 13.5 18 13.5C17.7239 13.5 17.5 13.2761 17.5 13V12C17.5 11.7238 17.7239 11.5 18 11.5Z" fill="#F2F6FF"/>
<path d="M6.64648 1.64645C6.84175 1.45118 7.15825 1.45118 7.35352 1.64645L9.35352 3.64645C9.38737 3.68031 9.41344 3.71886 9.43555 3.75875C9.46008 3.80296 9.48001 3.8502 9.49023 3.90133C9.50319 3.96607 9.50308 4.03287 9.49023 4.09762C9.48071 4.14569 9.46266 4.19035 9.44043 4.23238C9.41761 4.27557 9.38986 4.31713 9.35352 4.35348L7.35352 6.35348C7.15827 6.5487 6.84174 6.54868 6.64648 6.35348C6.45123 6.15822 6.45124 5.84171 6.64648 5.64645L7.79297 4.49996H4C3.17157 4.49996 2.5 5.17154 2.5 5.99996V11.5C2.49998 11.7761 2.27613 12 2 12C1.72387 12 1.50002 11.7761 1.5 11.5V5.99996C1.5 4.61925 2.61929 3.49996 4 3.49996H7.79297L6.64648 2.35348C6.45123 2.15822 6.45124 1.84171 6.64648 1.64645Z" fill="#F2F6FF"/>
</svg>
