<svg width="24" height="24" viewBox="0 0 24 24" fill="none" xmlns="http://www.w3.org/2000/svg">
<path d="M3.85355 2.85355C4.04882 2.65829 4.04882 2.34171 3.85355 2.14645C3.65829 1.95118 3.34171 1.95118 3.14645 2.14645L1.14645 4.14645C0.951184 4.34171 0.951184 4.65829 1.14645 4.85355L3.14645 6.85355C3.34171 7.04882 3.65829 7.04882 3.85355 6.85355C4.04882 6.65829 4.04882 6.34171 3.85355 6.14645L2.70711 5H6.5C6.77614 5 7 4.77614 7 4.5C7 4.22386 6.77614 4 6.5 4H2.70711L3.85355 2.85355Z" fill="#0051FF"/>
<path d="M20.1464 21.1464C19.9512 21.3417 19.9512 21.6583 20.1464 21.8536C20.3417 22.0488 20.6583 22.0488 20.8536 21.8536L22.8536 19.8536C23.0488 19.6583 23.0488 19.3417 22.8536 19.1464L20.8536 17.1464C20.6583 16.9512 20.3417 16.9512 20.1464 17.1464C19.9512 17.3417 19.9512 17.6583 20.1464 17.8536L21.2929 19H17.5C17.2239 19 17 19.2239 17 19.5C17 19.7761 17.2239 20 17.5 20H21.2929L20.1464 21.1464Z" fill="#0051FF"/>
<path d="M15.82 10.58C16.1395 10.5578 16.4393 10.4175 16.6611 10.1865C16.8829 9.95542 17.0108 9.65016 17.02 9.33002C17.02 8.71002 16.7 8.33999 15.89 8.04999C15.31 7.83999 15.08 7.66003 15.08 7.47003C15.08 7.28003 15.22 7.09003 15.66 7.09003C16.0062 7.0921 16.3477 7.17061 16.66 7.32001L16.85 6.54999C16.5347 6.41058 16.1947 6.33581 15.85 6.33002V5.72998H15.18V6.38C14.8747 6.40686 14.5899 6.54492 14.3797 6.76801C14.1695 6.99109 14.0486 7.28365 14.04 7.59003C14.04 8.25003 14.53 8.58002 15.26 8.83002C15.76 9.00002 15.98 9.14998 15.98 9.41998C15.98 9.68998 15.71 9.84003 15.33 9.84003C14.9341 9.83682 14.5454 9.73357 14.2 9.53998L14 10.34C14.3535 10.5209 14.7431 10.62 15.14 10.63V11.27H15.82V10.58Z" fill="#0051FF"/>
<path d="M10.41 17.51C10.0387 17.6986 9.62621 17.7914 9.20997 17.7801C8.92326 17.7876 8.63788 17.7384 8.37018 17.6355C8.10249 17.5325 7.85774 17.3777 7.64997 17.18C7.39846 16.9207 7.21918 16.6001 7.12997 16.25H6.58997V15.7H7.04997V15.52C7.04546 15.4535 7.04546 15.3866 7.04997 15.32H6.59997V14.77H7.12997C7.22523 14.4261 7.40781 14.1126 7.65997 13.86C8.10687 13.4355 8.70376 13.2054 9.31997 13.2201C9.69099 13.2103 10.0596 13.2819 10.4 13.43L10.17 14.26C9.93351 14.1572 9.6778 14.106 9.41997 14.11C9.26474 14.1021 9.10952 14.1255 8.9635 14.1787C8.81748 14.232 8.68366 14.314 8.56997 14.42C8.47487 14.518 8.40608 14.6384 8.36997 14.77H10.06V15.32H8.22997C8.22575 15.38 8.22575 15.4401 8.22997 15.5C8.22569 15.5666 8.22569 15.6334 8.22997 15.7H10.06V16.25H8.36997C8.40899 16.3664 8.47396 16.4724 8.55997 16.56C8.67669 16.6675 8.81389 16.7504 8.96338 16.8037C9.11287 16.8569 9.27156 16.8795 9.42997 16.87C9.72925 16.8704 10.0254 16.8091 10.3 16.69L10.41 17.51Z" fill="#0051FF"/>
<path fill-rule="evenodd" clip-rule="evenodd" d="M9 8.5C9 4.91015 11.9101 2 15.5 2C19.0899 2 22 4.91015 22 8.5C22 12.0899 19.0899 15 15.5 15C15.3248 15 15.1512 14.9931 14.9795 14.9795C14.9931 15.1512 15 15.3248 15 15.5C15 19.0899 12.0899 22 8.5 22C4.91015 22 2 19.0899 2 15.5C2 11.9101 4.91015 9 8.5 9C8.67522 9 8.84882 9.00693 9.02054 9.02054C9.00693 8.84882 9 8.67522 9 8.5ZM15.5 3C12.4624 3 10 5.46243 10 8.5C10 11.5376 12.4624 14 15.5 14C18.5376 14 21 11.5376 21 8.5C21 5.46243 18.5376 3 15.5 3ZM9.18403 10.0421C9.75609 12.3932 11.6068 14.2439 13.9579 14.816C13.9857 15.0401 14 15.2684 14 15.5C14 18.5376 11.5376 21 8.5 21C5.46243 21 3 18.5376 3 15.5C3 12.4624 5.46243 10 8.5 10C8.73163 10 8.95992 10.0143 9.18403 10.0421Z" fill="#0051FF"/>
</svg>
