<svg width="24" height="24" viewBox="0 0 24 24" fill="none" xmlns="http://www.w3.org/2000/svg">
<path fill-rule="evenodd" clip-rule="evenodd" d="M12 2C6.47715 2 2 6.47715 2 12C2 17.5228 6.47715 22 12 22C17.5228 22 22 17.5228 22 12C22 6.47715 17.5228 2 12 2ZM8.35355 7.64645C8.15829 7.45118 7.84171 7.45118 7.64645 7.64645C7.45118 7.84171 7.45118 8.15829 7.64645 8.35355L11.2929 12L7.64645 15.6464C7.45118 15.8417 7.45118 16.1583 7.64645 16.3536C7.84171 16.5488 8.15829 16.5488 8.35355 16.3536L12 12.7071L15.6464 16.3536C15.8417 16.5488 16.1583 16.5488 16.3536 16.3536C16.5488 16.1583 16.5488 15.8417 16.3536 15.6464L12.7071 12L16.3536 8.35355C16.5488 8.15829 16.5488 7.84171 16.3536 7.64645C16.1583 7.45118 15.8417 7.45118 15.6464 7.64645L12 11.2929L8.35355 7.64645Z" fill="#0051FF"/>
</svg>
