<svg width="24" height="24" viewBox="0 0 24 24" fill="none" xmlns="http://www.w3.org/2000/svg">
<path fill-rule="evenodd" clip-rule="evenodd" d="M13.2024 7.97045L11.135 10.0379L7.77041 6.6733L7.10657 5.35511C7.07192 5.2863 7.02184 5.22643 6.96024 5.18017L4.19024 3.10017C3.99117 2.9507 3.71248 2.97042 3.53645 3.14645L2.14645 4.53645C1.97043 4.71247 1.9507 4.99117 2.10018 5.19023L4.18018 7.96023C4.22644 8.02184 4.28631 8.07192 4.35511 8.10657L5.6733 8.77041L9.0379 12.135L3.42645 17.7464L3.41513 17.7581C3.04864 18.1493 2.85255 18.67 2.86999 19.2058C2.88743 19.7415 3.11698 20.2484 3.50814 20.6149C3.8993 20.9814 4.42003 21.1775 4.95577 21.16C5.22104 21.1514 5.48202 21.0906 5.72379 20.9811C5.96292 20.8728 6.17864 20.719 6.3589 20.5282L11.895 14.9921L13.2128 16.3099L12.5265 16.9963C12.3312 17.1916 12.3312 17.5082 12.5265 17.7034L16.6821 21.859C17.2289 22.4987 18.004 22.9 18.8426 22.9768C19.6885 23.0543 20.5309 22.7954 21.1874 22.2563C21.2126 22.2356 21.2357 22.2124 21.2564 22.1872C21.7956 21.5308 22.0544 20.6884 21.9769 19.8424C21.9001 19.0038 21.4988 18.2287 20.8592 17.6819L16.7036 13.5263C16.5083 13.3311 16.1917 13.3311 15.9965 13.5263L15.3099 14.2128L13.9921 12.895L16.1226 10.7645C16.564 10.9169 17.028 10.9967 17.4965 11L17.5 11C18.6935 11 19.8381 10.5259 20.682 9.68198C21.5259 8.83807 22 7.69307 22 6.4996C21.9995 5.86134 21.8611 5.23073 21.5942 4.65095C21.5258 4.50236 21.3891 4.39662 21.2281 4.36781C21.067 4.33901 20.9021 4.39078 20.7864 4.50645L19.1465 6.14645C18.9517 6.34118 18.79 6.37328 18.6524 6.35456C18.4878 6.33217 18.2702 6.22314 18.0236 5.97645C17.7769 5.72976 17.6678 5.51223 17.6454 5.34762C17.6267 5.21 17.6588 5.04829 17.8536 4.85355L19.4936 3.21355C19.6092 3.09789 19.661 2.93297 19.6322 2.77195C19.6034 2.61094 19.4976 2.47419 19.3491 2.4058C18.7693 2.13894 18.1387 2.00052 17.5004 2C16.3069 2 15.1619 2.47411 14.318 3.31802C13.4763 4.15975 13.0025 5.3006 13 6.49072C12.9825 6.99271 13.0512 7.49316 13.2024 7.97045ZM17.4998 3C16.5716 3.00006 15.6815 3.3688 15.0251 4.02513C14.3688 4.6815 14 5.57174 14 6.5C14 6.50618 13.9999 6.51236 13.9997 6.51854C13.982 6.99531 14.0651 7.47045 14.2437 7.91288C14.3187 8.09888 14.2754 8.31173 14.1336 8.45355L11.8421 10.745L13.285 12.1879L15.6464 9.82645C15.7921 9.68078 16.0122 9.63936 16.2009 9.72212C16.6111 9.90209 17.0537 9.99663 17.5017 10C18.4294 9.99954 19.3189 9.63085 19.9749 8.97487C20.6312 8.31859 20.9999 7.42852 21 6.5004C20.9998 6.2587 20.9741 6.01842 20.9236 5.78346L19.8536 6.85355C19.4683 7.23882 19.005 7.41172 18.5176 7.34544C18.0572 7.28283 17.6498 7.01686 17.3164 6.68355C16.9831 6.35024 16.7172 5.94277 16.6546 5.48238C16.5883 4.995 16.7612 4.53171 17.1464 4.14645L18.2165 3.07636C17.9816 3.02595 17.7414 3.00021 17.4998 3ZM14.2672 16.6698L14.2736 16.6636L15.6636 15.2736L15.6699 15.2671L16.35 14.587L20.1665 18.4034C20.1765 18.4134 20.1869 18.423 20.1977 18.4322C20.6461 18.8102 20.9276 19.3496 20.9811 19.9337C21.0331 20.5014 20.8657 21.0668 20.5144 21.5142C20.067 21.8656 19.5015 22.033 18.9338 21.981C18.3498 21.9274 17.8103 21.646 17.4323 21.1976C17.4232 21.1868 17.4136 21.1763 17.4036 21.1663L13.5871 17.3499L14.2672 16.6698ZM14.6028 14.9199L7.00645 7.32355C6.96879 7.28589 6.93739 7.24246 6.91344 7.19489L6.26612 5.9095L3.93674 4.16037L3.16037 4.93674L4.9095 7.26611L6.1949 7.91343C6.24246 7.93739 6.2859 7.96879 6.32356 8.00645L13.9199 15.6028L14.6028 14.9199ZM4.13987 18.4472L9.745 12.8421L11.1879 14.285L5.64645 19.8264L5.63513 19.8381C5.54345 19.936 5.43339 20.0148 5.31125 20.0701C5.1891 20.1255 5.05725 20.1562 4.92323 20.1605C4.65257 20.1694 4.38949 20.0703 4.19186 19.8851C3.99424 19.7 3.87827 19.4439 3.86946 19.1732C3.86073 18.905 3.95793 18.6442 4.13987 18.4472Z" fill="#0033AA"/>
</svg>
