<svg width="74" height="88" viewBox="0 0 74 88" fill="none" xmlns="http://www.w3.org/2000/svg">
<path d="M13 8C13 3.58172 16.5817 0 21 0H53C57.4183 0 61 3.58172 61 8V40C61 44.4183 57.4183 48 53 48H21C16.5817 48 13 44.4183 13 40V8Z" fill="#003FCA"/>
<path fill-rule="evenodd" clip-rule="evenodd" d="M27 24C27 18.4772 31.4772 14 37 14C42.5228 14 47 18.4772 47 24C47 29.5228 42.5228 34 37 34C31.4772 34 27 29.5228 27 24ZM37 15C32.0294 15 28 19.0294 28 24C28 26.2383 28.8171 28.2858 30.1693 29.8604C30.4831 28.6565 31.1383 27.5597 32.0669 26.7084C32.8158 26.0219 33.7085 25.5264 34.6693 25.2512C33.6584 24.5253 33 23.3395 33 22C33 19.7909 34.7909 18 37 18C39.2091 18 41 19.7909 41 22C41 23.3446 40.3366 24.5342 39.3192 25.2594C40.2692 25.5363 41.1516 26.0287 41.8931 26.7084C42.8309 27.5681 43.4898 28.6782 43.7999 29.8961C45.1705 28.3168 46 26.2553 46 24C46 19.0294 41.9706 15 37 15ZM36.9858 26L37 26L37.0142 26H37.48L37.4817 26C38.8644 25.9952 40.1981 26.5113 41.2173 27.4456C42.165 28.3143 42.7761 29.4852 42.9499 30.7528C41.3637 32.1515 39.281 33 37 33C34.7019 33 32.605 32.1387 31.0145 30.7213C31.194 29.4658 31.8029 28.3071 32.7426 27.4456C33.7619 26.5113 35.0956 25.9952 36.4783 26L36.48 26H36.9858ZM37.0123 25C38.6635 24.9933 40 23.6527 40 22C40 20.3431 38.6569 19 37 19C35.3431 19 34 20.3431 34 22C34 23.6527 35.3365 24.9933 36.9877 25H37.0123Z" fill="#F2F6FF"/>
<rect y="52" width="74" height="36" rx="4" fill="#00164E"/>
<path d="M10.7058 74H9.3498V65.12H11.3298L13.7058 72.164H13.7298L16.0338 65.12H18.0498V74H16.5978V67.376H16.5738C16.4418 67.988 16.2498 68.564 16.0458 69.188L14.3178 74H12.9858L11.2698 69.188C11.0538 68.552 10.9218 68.168 10.7298 67.316H10.7058V74ZM20.5527 76.472C19.7967 76.472 19.3527 76.364 19.0407 76.28L19.3767 75.092C19.5567 75.14 19.9407 75.224 20.4567 75.224C20.9847 75.224 21.2607 75.02 21.4647 74.504L21.6447 74.036L19.1967 67.628H20.7327L22.3767 72.272H22.4007L24.0327 67.628H25.4967L22.7847 74.696C22.3647 75.812 21.8127 76.472 20.5527 76.472ZM31.123 74H29.635V65.12H32.743C34.663 65.12 36.163 65.792 36.163 67.844C36.163 69.992 34.519 70.628 32.695 70.628H31.123V74ZM31.123 66.488V69.32H32.767C34.087 69.32 34.687 68.912 34.687 67.892C34.687 66.908 34.087 66.488 32.755 66.488H31.123ZM38.6536 74H37.1776V67.628H38.6536V68.672H38.6776C39.0736 68.036 39.7576 67.508 40.9696 67.508H41.0656L41.0176 68.864C40.9456 68.852 40.7056 68.84 40.6216 68.84C39.6736 68.84 39.0736 69.284 38.6536 69.968V74ZM44.6365 74.132C43.0885 74.132 41.5285 73.148 41.5285 70.82C41.5285 68.468 43.0765 67.508 44.6365 67.508C46.1845 67.508 47.7445 68.468 47.7445 70.82C47.7445 73.148 46.1845 74.132 44.6365 74.132ZM44.6365 72.896C45.7045 72.896 46.2565 72.128 46.2565 70.82C46.2565 69.632 45.7525 68.768 44.6365 68.768C43.5685 68.768 43.0165 69.536 43.0165 70.82C43.0165 72.032 43.5085 72.896 44.6365 72.896ZM54.6798 66.584H53.1798V65.24H54.6798V66.584ZM50.9478 74H49.4718V68.804H48.3678V67.628H49.4718V66.98C49.4718 65.912 49.9638 65.084 51.3798 65.084C51.6678 65.084 52.0998 65.132 52.2078 65.144V66.284C52.0998 66.26 51.8958 66.248 51.7638 66.248C51.2358 66.248 50.9478 66.524 50.9478 67.076V67.628H52.1958V68.804H50.9478V74ZM54.6678 74H53.1918V67.628H54.6678V74ZM57.9912 74H56.5032V65.12H57.9912V74ZM62.4248 74.132C60.8288 74.132 59.3528 73.16 59.3528 70.82C59.3528 68.396 61.0688 67.508 62.3888 67.508C63.8168 67.508 65.1848 68.36 65.1848 70.952V71.3H60.8288C60.8888 72.452 61.5968 72.956 62.5328 72.956C63.3608 72.956 63.8408 72.68 64.3208 72.212L65.1008 72.98C64.4408 73.712 63.5648 74.132 62.4248 74.132ZM60.8528 70.196H63.8288C63.7448 69.224 63.2648 68.708 62.3768 68.708C61.6568 68.708 60.9968 69.116 60.8528 70.196Z" fill="#F2F6FF"/>
</svg>
