<svg width="96" height="96" viewBox="0 0 96 96" fill="none" xmlns="http://www.w3.org/2000/svg">
<circle opacity="0.2" cx="48" cy="48" r="44" stroke="#0062E1" stroke-width="8"/>
<circle cx="48" cy="48" r="39.5" stroke="#0062E1"/>
<path d="M61.8603 30.9933C61.8566 30.4411 61.406 29.9963 60.8537 30C60.3014 30.0037 59.8567 30.4544 59.8604 31.0067L59.884 34.5505C57.8241 32.7564 55.3749 31.4461 52.7157 30.7319C49.2454 29.7997 45.5757 29.9251 42.1771 31.0921C38.7785 32.2591 35.8059 34.4144 33.6402 37.2819C31.4746 40.1493 30.2146 43.5981 30.0218 47.1863L30.0215 47.1922C29.9539 48.6062 30.046 50.0233 30.2961 51.4166C30.3937 51.9602 30.9135 52.3218 31.457 52.2242C32.0006 52.1266 32.3622 51.6069 32.2646 51.0633C32.0413 49.819 31.9589 48.5534 32.0191 47.2907C32.191 44.1014 33.3112 41.036 35.2362 38.4872C37.1618 35.9377 39.8049 34.0213 42.8267 32.9837C45.8484 31.9461 49.1113 31.8346 52.1969 32.6634C54.5381 33.2923 56.6963 34.4407 58.5165 36.0119L56.8954 36.02C56.8555 36.0202 56.8163 36.0227 56.7776 36.0275L54.8937 36.04C54.3415 36.0437 53.8967 36.4944 53.9004 37.0467C53.9041 37.5989 54.3548 38.0437 54.9071 38.04L60.9054 38C61.1706 37.9987 61.4244 37.892 61.611 37.7036C61.7976 37.5151 61.9017 37.2602 61.9004 36.995L61.8804 32.995C61.8802 32.9551 61.8776 32.9158 61.8729 32.8772L61.8603 30.9933Z" fill="#0062E1"/>
<path d="M39.1056 60.1799C39.1455 60.1797 39.1848 60.1772 39.2235 60.1724L41.1072 60.1599C41.6595 60.1562 42.1042 59.7055 42.1005 59.1532C42.0969 58.601 41.6462 58.1563 41.0939 58.1599L35.0956 58.1999C34.8345 58.2013 34.5974 58.3025 34.4201 58.4672C34.4095 58.477 34.399 58.4872 34.3888 58.4975C34.2025 58.6863 34.0988 58.9397 34.1006 59.2049L34.1206 63.2049C34.1208 63.2448 34.1233 63.2842 34.1281 63.3228L34.1406 65.2066C34.1443 65.7589 34.595 66.2036 35.1473 66.1999C35.6995 66.1962 36.1443 65.7455 36.1406 65.1932L36.1169 61.6494C38.1768 63.4435 40.6261 64.7538 43.2853 65.4681C46.7556 66.4003 50.4253 66.2748 53.8238 65.1078C57.2224 63.9408 60.1951 61.7855 62.3607 58.9181C64.5264 56.0506 65.7863 52.6018 65.9792 49.0136L65.9795 49.0077C66.0471 47.5937 65.955 46.1766 65.7048 44.7833C65.6073 44.2397 65.0875 43.8781 64.5439 43.9757C64.0003 44.0733 63.6387 44.593 63.7363 45.1366C63.9597 46.3809 64.0421 47.6464 63.9819 48.9091C63.8099 52.0985 62.6898 55.1639 60.7648 57.7127C58.8392 60.2622 56.1961 62.1786 53.1743 63.2162C50.1525 64.2538 46.8897 64.3654 43.8041 63.5365C41.4629 62.9077 39.3047 61.7592 37.4844 60.188L39.1056 60.1799Z" fill="#0062E1"/>
</svg>
