<svg width="24" height="24" viewBox="0 0 24 24" fill="none" xmlns="http://www.w3.org/2000/svg">
<path d="M12 14.95C12.2761 14.95 12.5 15.1739 12.5 15.45V18.45C12.5 18.7261 12.2761 18.95 12 18.95C11.7239 18.95 11.5 18.7261 11.5 18.45V15.45C11.5 15.1739 11.7239 14.95 12 14.95Z" fill="#0033AA"/>
<path fill-rule="evenodd" clip-rule="evenodd" d="M11.5 2C9.01472 2 7 4.01472 7 6.5V9H5.5C4.67157 9 4 9.67157 4 10.5V18.5C4 20.433 5.567 22 7.5 22H16.5C18.433 22 20 20.433 20 18.5V10.5C20 9.67157 19.3284 9 18.5 9H17V6.5C17 4.01472 14.9853 2 12.5 2H11.5ZM11.5 3C9.567 3 8 4.567 8 6.5V9H16V6.5C16 4.567 14.433 3 12.5 3H11.5ZM19 10.5C19 10.2239 18.7761 10 18.5 10H5.5C5.22386 10 5 10.2239 5 10.5V18.5C5 19.8807 6.11929 21 7.5 21H16.5C17.8807 21 19 19.8807 19 18.5V10.5Z" fill="#0033AA"/>
</svg>
