<svg width="34" height="34" viewBox="0 0 34 34" fill="none" xmlns="http://www.w3.org/2000/svg">
<path d="M15.2812 17.2755L14.7827 16.777C14.5074 16.5017 14.0611 16.5017 13.7858 16.777C13.5105 17.0523 13.5105 17.4987 13.7858 17.7739L14.2843 18.2724C16.2113 20.1994 19.3357 20.1994 21.2627 18.2724L27.2442 12.2909C29.1713 10.3639 29.1713 7.23951 27.2442 5.31247C25.3172 3.38543 22.1928 3.38543 20.2658 5.31247L16.2781 9.30014C16.0028 9.57543 16.0028 10.0218 16.2781 10.2971C16.5534 10.5724 16.9997 10.5724 17.275 10.2971L21.2627 6.30939C22.6392 4.93293 24.8708 4.93293 26.2473 6.30939C27.6238 7.68584 27.6238 9.91752 26.2473 11.294L20.2658 17.2755C18.8893 18.6519 16.6577 18.6519 15.2812 17.2755Z" fill="white"/>
<path d="M12.2904 15.2816C13.6669 13.9051 15.8985 13.9051 17.275 15.2816L17.7735 15.78C18.0488 16.0553 18.4951 16.0553 18.7704 15.78C19.0457 15.5047 19.0457 15.0584 18.7704 14.7831L18.2719 14.2847C16.3449 12.3576 13.2205 12.3576 11.2935 14.2847L5.31198 20.2662C3.38494 22.1932 3.38494 25.3176 5.31198 27.2446C7.23902 29.1716 10.3634 29.1716 12.2904 27.2446L16.2781 23.2569C16.5534 22.9816 16.5534 22.5353 16.2781 22.26C16.0028 21.9847 15.5565 21.9847 15.2812 22.26L11.2935 26.2477C9.91703 27.6241 7.68536 27.6241 6.3089 26.2477C4.93244 24.8712 4.93244 22.6395 6.3089 21.2631L12.2904 15.2816Z" fill="white"/>
</svg>
