<svg width="29" height="29" viewBox="0 0 29 29" fill="none" xmlns="http://www.w3.org/2000/svg">
<path d="M10.8 20.0826C10.8 19.7644 11.0686 19.5066 11.4 19.5066H19.8C20.1314 19.5066 20.4 19.7644 20.4 20.0826C20.4 20.4007 20.1314 20.6586 19.8 20.6586H11.4C11.0686 20.6586 10.8 20.4007 10.8 20.0826Z" fill="#0033AA"/>
<path fill-rule="evenodd" clip-rule="evenodd" d="M17.6475 10.7449C18.1979 10.9958 18.699 11.3653 19.119 11.8333C19.9469 12.7559 20.4 13.9909 20.4 15.264V15.48C20.4 15.932 20.2397 16.3796 19.9328 16.7215C19.6236 17.066 19.1833 17.28 18.7015 17.28H12.4985C12.0167 17.28 11.5764 17.066 11.2672 16.7215C10.9603 16.3796 10.8 15.932 10.8 15.48V15.264C10.8 13.9909 11.2531 12.7559 12.081 11.8333C12.501 11.3653 13.0021 10.9958 13.5525 10.7449C12.9664 10.2193 12.6 9.47072 12.6 8.64C12.6 7.04942 13.9431 5.76 15.6 5.76C17.2569 5.76 18.6 7.04942 18.6 8.64C18.6 9.47073 18.2336 10.2193 17.6475 10.7449ZM15.2769 11.52C14.4391 11.52 13.6139 11.8901 12.9901 12.5853C12.3639 13.2831 12 14.2456 12 15.264V15.48C12 15.6773 12.0711 15.8524 12.1763 15.9695C12.2791 16.0841 12.3976 16.128 12.4985 16.128H18.7015C18.8024 16.128 18.9209 16.0841 19.0237 15.9695C19.1289 15.8524 19.2 15.6773 19.2 15.48V15.264C19.2 14.2456 18.8361 13.2831 18.2099 12.5853C17.5861 11.8901 16.7609 11.52 15.9231 11.52H15.2769ZM15.6 10.368C14.6059 10.368 13.8 9.59435 13.8 8.64C13.8 7.68565 14.6059 6.912 15.6 6.912C16.5941 6.912 17.4 7.68565 17.4 8.64C17.4 9.59435 16.5941 10.368 15.6 10.368Z" fill="#0033AA"/>
<path fill-rule="evenodd" clip-rule="evenodd" d="M5.4 2.304C5.06863 2.304 4.8 2.56188 4.8 2.88V24.768C4.8 25.0861 5.06863 25.344 5.4 25.344H21C22.6569 25.344 24 24.0546 24 22.464V5.184C24 3.59342 22.6569 2.304 21 2.304H5.4ZM22.8 5.184C22.8 4.22965 21.9941 3.456 21 3.456H9V24.192H21C21.9941 24.192 22.8 23.4184 22.8 22.464V5.184ZM6 24.192V3.456H7.8V24.192H6Z" fill="#0033AA"/>
</svg>
