<svg width="24" height="24" viewBox="0 0 24 24" fill="none" xmlns="http://www.w3.org/2000/svg">
<path fill-rule="evenodd" clip-rule="evenodd" d="M6.5 3.5C5.67157 3.5 5 4.17157 5 5V7C5 7.82843 5.67157 8.5 6.5 8.5H17.5C18.3284 8.5 19 7.82843 19 7V6.5H19.5V10C19.5 10.2761 19.2761 10.5 19 10.5H13C12.1716 10.5 11.5 11.1716 11.5 12V14.5H11C10.7239 14.5 10.5 14.7239 10.5 15V21C10.5 21.2761 10.7239 21.5 11 21.5H13C13.2761 21.5 13.5 21.2761 13.5 21V15C13.5 14.7239 13.2761 14.5 13 14.5H12.5V12C12.5 11.7239 12.7239 11.5 13 11.5H19C19.8284 11.5 20.5 10.8284 20.5 10V6C20.5 5.72386 20.2761 5.5 20 5.5H19V5C19 4.17157 18.3284 3.5 17.5 3.5H6.5ZM6 5C6 4.72386 6.22386 4.5 6.5 4.5H17.5C17.7761 4.5 18 4.72386 18 5V7C18 7.27614 17.7761 7.5 17.5 7.5H6.5C6.22386 7.5 6 7.27614 6 7V5ZM11.5 20.5V15.5H12.5V20.5H11.5Z" fill="white"/>
</svg>
