<svg width="24" height="24" viewBox="0 0 24 24" fill="none" xmlns="http://www.w3.org/2000/svg">
<path d="M10 17.5C10 17.2239 10.2239 17 10.5 17H13.5C13.7761 17 14 17.2239 14 17.5C14 17.7761 13.7761 18 13.5 18H10.5C10.2239 18 10 17.7761 10 17.5Z" fill="#F2F6FF"/>
<path fill-rule="evenodd" clip-rule="evenodd" d="M11.83 1C13.2012 1 14.5162 1.5447 15.4857 2.51426C16.4553 3.48382 17 4.79883 17 6.17V9H18.5C19.3284 9 20 9.67157 20 10.5V18.5C20 20.433 18.433 22 16.5 22H7.5C5.567 22 4 20.433 4 18.5V10.5C4 9.67157 4.67157 9 5.5 9H16V6.17C16 5.06405 15.5607 4.00339 14.7786 3.22137C13.9967 2.43947 12.9363 2.00014 11.8305 2C10.7263 2.0025 9.66818 2.44287 8.88821 3.22452C8.10811 4.00629 7.67 5.06559 7.67 6.17C7.67 6.44614 7.44614 6.67 7.17 6.67C6.89386 6.67 6.67 6.44614 6.67 6.17C6.67 4.80075 7.21317 3.48741 8.18034 2.51817C9.14751 1.54892 10.4597 1.00293 11.8289 1L11.83 1.5V1ZM19 10.5C19 10.2239 18.7761 10 18.5 10H5.5C5.22386 10 5 10.2239 5 10.5V18.5C5 19.8807 6.11929 21 7.5 21H16.5C17.8807 21 19 19.8807 19 18.5V10.5Z" fill="#F2F6FF"/>
</svg>
