<svg width="32" height="32" viewBox="0 0 32 32" fill="none" xmlns="http://www.w3.org/2000/svg">
<path d="M16 32C24.8366 32 32 24.8366 32 16C32 7.16344 24.8366 0 16 0C7.16344 0 0 7.16344 0 16C0 24.8366 7.16344 32 16 32Z" fill="#0062E1"/>
<path d="M13.6968 11.416C14.0299 11.2446 14.431 11.2745 14.7359 11.4922L19.9048 15.1846C20.1676 15.3723 20.3238 15.6751 20.3238 15.998C20.3237 16.321 20.1676 16.6238 19.9048 16.8115L14.7359 20.5039C14.4311 20.7216 14.0298 20.7505 13.6968 20.5791C13.3641 20.4076 13.1549 20.0648 13.1548 19.6904V12.3057C13.1548 11.9311 13.3638 11.5874 13.6968 11.416Z" fill="#BFDCFC" stroke="#BFDCFC" stroke-width="2" stroke-linecap="round" stroke-linejoin="round"/>
</svg>
