<svg width="24" height="24" viewBox="0 0 24 24" fill="none" xmlns="http://www.w3.org/2000/svg">
<path d="M17.2252 4.03249C15.3865 3.05483 13.2657 2.74505 11.2241 3.15596C9.18261 3.56687 7.34675 4.67303 6.02945 6.28591C4.85693 7.72153 4.15984 9.47952 4.02436 11.3171L2.85355 10.1463C2.65829 9.95106 2.34171 9.95106 2.14645 10.1463C1.95118 10.3416 1.95118 10.6582 2.14645 10.8534L4.14645 12.8534C4.34171 13.0487 4.65829 13.0487 4.85355 12.8534L6.85355 10.8534C7.04881 10.6582 7.04881 10.3416 6.85355 10.1463C6.65829 9.95106 6.34171 9.95106 6.14645 10.1463L5.03233 11.2604C5.17535 9.67428 5.78945 8.16063 6.80395 6.91848C7.97489 5.4848 9.60677 4.50155 11.4215 4.1363C13.2362 3.77105 15.1214 4.0464 16.7558 4.91544C18.3902 5.78447 19.6727 7.1934 20.3846 8.90209C21.0966 10.6108 21.194 12.5135 20.6602 14.286C20.1264 16.0584 18.9944 17.5909 17.4573 18.6223C15.9201 19.6536 14.0729 20.12 12.2304 19.9419C10.3879 19.7638 8.66415 18.9523 7.35296 17.6457C7.32542 17.6182 7.295 17.5943 7.26243 17.5742C7.10017 17.4078 6.94503 17.2341 6.797 17.0532C6.62214 16.8395 6.30713 16.808 6.09341 16.9829C5.87968 17.1577 5.84818 17.4727 6.02305 17.6865C6.21352 17.9193 6.41466 18.1416 6.62647 18.3534C6.65565 18.3826 6.68807 18.4078 6.72288 18.4286C8.18828 19.8549 10.0967 20.7403 12.1342 20.9373C14.207 21.1376 16.2851 20.6129 18.0144 19.4527C19.7437 18.2924 21.0172 16.5683 21.6177 14.5743C22.2182 12.5803 22.1086 10.4398 21.3077 8.51748C20.5067 6.5952 19.064 5.01015 17.2252 4.03249Z" fill="#0033AA"/>
<path d="M12.5 6.99988C12.7761 6.99988 13 7.22374 13 7.49988L13 11.8728L15.7636 14.6363C15.9588 14.8316 15.9588 15.1482 15.7636 15.3434C15.5683 15.5387 15.2517 15.5387 15.0564 15.3434L12.1464 12.4334C12.0527 12.3397 12 12.2125 12 12.0799L12 7.49988C12 7.22374 12.2239 6.99988 12.5 6.99988Z" fill="#0033AA"/>
</svg>
