<svg width="29" height="29" viewBox="0 0 29 29" fill="none" xmlns="http://www.w3.org/2000/svg">
<path d="M10.8 20.0826C10.8 19.7645 11.0687 19.5066 11.4 19.5066H19.8C20.1314 19.5066 20.4 19.7645 20.4 20.0826C20.4 20.4007 20.1314 20.6586 19.8 20.6586H11.4C11.0687 20.6586 10.8 20.4007 10.8 20.0826Z" fill="#0033AA"/>
<path fill-rule="evenodd" clip-rule="evenodd" d="M17.6476 10.7449C18.198 10.9958 18.6991 11.3653 19.1191 11.8334C19.947 12.7559 20.4 13.991 20.4 15.264V15.48C20.4 15.932 20.2397 16.3796 19.9329 16.7215C19.6236 17.0661 19.1834 17.28 18.7016 17.28H12.4985C12.0167 17.28 11.5765 17.0661 11.2672 16.7215C10.9604 16.3796 10.8 15.932 10.8 15.48V15.264C10.8 13.991 11.2531 12.7559 12.081 11.8334C12.501 11.3653 13.0021 10.9958 13.5525 10.7449C12.9664 10.2193 12.6 9.47074 12.6 8.64002C12.6 7.04944 13.9432 5.76002 15.6 5.76002C17.2569 5.76002 18.6 7.04944 18.6 8.64002C18.6 9.47074 18.2337 10.2193 17.6476 10.7449ZM15.277 11.52C14.4392 11.52 13.614 11.8902 12.9901 12.5853C12.3639 13.2831 12 14.2456 12 15.264V15.48C12 15.6773 12.0712 15.8524 12.1763 15.9696C12.2791 16.0841 12.3976 16.128 12.4985 16.128H18.7016C18.8025 16.128 18.921 16.0841 19.0238 15.9696C19.1289 15.8524 19.2 15.6773 19.2 15.48V15.264C19.2 14.2456 18.8362 13.2831 18.21 12.5853C17.5861 11.8902 16.7609 11.52 15.9231 11.52H15.277ZM15.6 10.368C14.6059 10.368 13.8 9.59436 13.8 8.64002C13.8 7.68567 14.6059 6.91202 15.6 6.91202C16.5942 6.91202 17.4 7.68567 17.4 8.64002C17.4 9.59436 16.5942 10.368 15.6 10.368Z" fill="#0033AA"/>
<path fill-rule="evenodd" clip-rule="evenodd" d="M5.40005 2.30402C5.06868 2.30402 4.80005 2.5619 4.80005 2.88002V24.768C4.80005 25.0861 5.06868 25.344 5.40005 25.344H21C22.6569 25.344 24 24.0546 24 22.464V5.18402C24 3.59344 22.6569 2.30402 21 2.30402H5.40005ZM22.8 5.18402C22.8 4.22967 21.9942 3.45602 21 3.45602H9.00005V24.192H21C21.9942 24.192 22.8 23.4184 22.8 22.464V5.18402ZM6.00005 24.192V3.45602H7.80005V24.192H6.00005Z" fill="#0033AA"/>
</svg>
