<svg width="24" height="24" viewBox="0 0 24 24" fill="none" xmlns="http://www.w3.org/2000/svg">
<path fill-rule="evenodd" clip-rule="evenodd" d="M18.4932 10.7021L18.7378 11.4045C18.7817 11.5305 18.8742 11.6338 18.9947 11.6913C19.1152 11.7487 19.2536 11.7557 19.3792 11.7105L20.5157 11.3017L20.5176 11.3011C20.7354 11.2243 20.9359 11.1055 21.1078 10.9513C21.2802 10.7966 21.4203 10.6095 21.5202 10.4005C21.6202 10.1916 21.6779 9.96504 21.69 9.73378C21.6999 9.5475 21.68 9.36113 21.6314 9.18161C22.0882 8.07242 22.1221 6.83142 21.7223 5.69575C21.3322 4.5604 20.5334 3.61358 19.485 3.03754C19.3172 2.65874 19.0182 2.35136 18.641 2.17357C18.2271 1.97851 17.7529 1.95532 17.322 2.10908L16.1685 2.53034C15.9118 2.62407 15.778 2.90644 15.8678 3.16446L16.1129 3.86813L7.34046 7.02955L7.33181 7.03285C6.59087 7.31547 5.98858 7.87471 5.65188 8.59271C5.58409 8.73726 5.52813 8.88597 5.48409 9.03744C5.45593 9.04235 5.42806 9.0497 5.4008 9.0595L4.26242 9.46892C4.04465 9.54568 3.84412 9.66455 3.67224 9.81874C3.49986 9.97339 3.35969 10.1605 3.25978 10.3695C3.15986 10.5784 3.10215 10.805 3.08997 11.0362C3.08683 11.0957 3.08675 11.1553 3.08967 11.2147L2.32979 11.4899C2.07252 11.583 1.9379 11.8657 2.02771 12.1241L2.43771 13.3041C2.4816 13.4304 2.57427 13.5339 2.695 13.5914C2.81574 13.6489 2.95448 13.6557 3.08023 13.6101L3.84226 13.3342C3.87297 13.3753 3.9055 13.4152 3.93979 13.4536C4.09579 13.6283 4.28493 13.7704 4.49624 13.8715C4.70756 13.9727 4.93685 14.0308 5.17081 14.0427C5.40477 14.0545 5.63877 14.0198 5.85921 13.9405L6.97326 13.529C7.00512 13.5173 7.03507 13.5026 7.06293 13.4854C7.1923 13.574 7.32865 13.6526 7.47083 13.7204C7.83005 13.8917 8.21949 13.9905 8.61691 14.0112C8.89237 14.0256 9.16793 14.0023 9.43602 13.9423C9.92414 14.1877 10.4552 14.3378 11.0009 14.384C11.379 14.416 11.7587 14.3976 12.13 14.3301V17.4502L7.26976 21.1002C7.04895 21.266 7.00438 21.5795 7.1702 21.8003C7.33603 22.0211 7.64946 22.0656 7.87027 21.8998L12.13 18.7008V21.5C12.13 21.7762 12.3539 22 12.63 22C12.9062 22 13.13 21.7762 13.13 21.5V18.6996L17.4001 21.9001C17.6211 22.0657 17.9345 22.0208 18.1001 21.7999C18.2657 21.5789 18.2209 21.2655 17.9999 21.0999L13.13 17.4499V14.0184C13.5859 13.8122 14.0031 13.5275 14.3621 13.1765C14.7481 12.7991 15.0588 12.3527 15.2787 11.8612L18.4932 10.7021ZM17.6596 3.05037L16.9742 3.30068L17.204 3.96059C17.2108 3.97525 17.2169 3.99028 17.2222 4.00566L19.2722 9.89566C19.2756 9.90542 19.2787 9.91522 19.2815 9.92504L19.5161 10.5986L20.1843 10.3582C20.2787 10.3251 20.3656 10.2737 20.44 10.2069C20.5144 10.1401 20.575 10.0593 20.6181 9.96909C20.6613 9.87887 20.6862 9.78103 20.6914 9.68117C20.6967 9.5813 20.6822 9.48138 20.6488 9.38713L20.6479 9.38482L18.589 3.48781C18.523 3.30732 18.3885 3.16009 18.2146 3.07813C18.0405 2.99605 17.841 2.98609 17.6596 3.05037ZM9.357 12.9301L11.845 12.0363L18.1643 9.75773L16.4419 4.81255L7.68412 7.96875C7.18718 8.15951 6.78332 8.53525 6.55727 9.01728C6.33089 9.50003 6.30051 10.0517 6.47248 10.5564L6.86132 11.6631C6.95034 11.9142 7.08811 12.1459 7.26641 12.3438C7.44483 12.542 7.66054 12.703 7.9012 12.8177C8.14187 12.9325 8.40278 12.9987 8.66903 13.0126C8.90164 13.0247 9.13434 12.9967 9.357 12.9301ZM4.13231 11.3759L4.48768 12.3987L4.53256 12.5266C4.56587 12.6229 4.61796 12.7116 4.68582 12.7877C4.75369 12.8637 4.83597 12.9255 4.92789 12.9695C5.01982 13.0135 5.11957 13.0388 5.22135 13.0439C5.32251 13.0491 5.42368 13.0342 5.51906 13.0001L6.16636 12.761L5.26402 10.1714L4.5957 10.4118C4.50135 10.4449 4.41446 10.4963 4.34002 10.5631C4.26558 10.6299 4.20506 10.7107 4.16191 10.8009C4.11876 10.8911 4.09385 10.989 4.08858 11.0888C4.08421 11.1719 4.09351 11.2551 4.11602 11.3349C4.12202 11.3483 4.12747 11.362 4.13231 11.3759ZM21.25 5.85999L20.7771 6.02224C20.6319 5.59892 20.4149 5.20865 20.1395 4.86644L20.9997 7.33971C21.002 6.89642 20.9286 6.45201 20.7785 6.02624L21.25 5.85999Z" fill="#0033AA"/>
</svg>
