<svg width="48" height="48" viewBox="0 0 48 48" fill="none" xmlns="http://www.w3.org/2000/svg">
<g clip-path="url(#clip0_3787_34429)">
<path d="M0 8C0 3.58172 3.58172 0 8 0H40C44.4183 0 48 3.58172 48 8V40C48 44.4183 44.4183 48 40 48H8C3.58172 48 0 44.4183 0 40V8Z" fill="#0033AA"/>
<path d="M31 22H27V23H31V22Z" fill="#F2F6FF"/>
<path d="M27 24H31V25H27V24Z" fill="#F2F6FF"/>
<path d="M31 26H27V27H31V26Z" fill="#F2F6FF"/>
<path d="M18 17H17V18H18V17Z" fill="#F2F6FF"/>
<path d="M19 17H20V18H19V17Z" fill="#F2F6FF"/>
<path d="M22 17H21V18H22V17Z" fill="#F2F6FF"/>
<path d="M23 17H24V18H23V17Z" fill="#F2F6FF"/>
<path d="M18 19H17V20H18V19Z" fill="#F2F6FF"/>
<path d="M19 19H20V20H19V19Z" fill="#F2F6FF"/>
<path d="M22 19H21V20H22V19Z" fill="#F2F6FF"/>
<path d="M23 19H24V20H23V19Z" fill="#F2F6FF"/>
<path d="M18 21H17V22H18V21Z" fill="#F2F6FF"/>
<path d="M19 21H20V22H19V21Z" fill="#F2F6FF"/>
<path d="M22 21H21V22H22V21Z" fill="#F2F6FF"/>
<path d="M23 21H24V22H23V21Z" fill="#F2F6FF"/>
<path d="M18 23H17V24H18V23Z" fill="#F2F6FF"/>
<path d="M19 23H20V24H19V23Z" fill="#F2F6FF"/>
<path d="M22 23H21V24H22V23Z" fill="#F2F6FF"/>
<path d="M23 23H24V24H23V23Z" fill="#F2F6FF"/>
<path d="M18 25H17V26H18V25Z" fill="#F2F6FF"/>
<path d="M19 25H20V26H19V25Z" fill="#F2F6FF"/>
<path d="M22 25H21V26H22V25Z" fill="#F2F6FF"/>
<path d="M23 25H24V26H23V25Z" fill="#F2F6FF"/>
<path d="M18 27H17V28H18V27Z" fill="#F2F6FF"/>
<path d="M19 27H20V28H19V27Z" fill="#F2F6FF"/>
<path d="M22 27H21V28H22V27Z" fill="#F2F6FF"/>
<path d="M23 27H24V28H23V27Z" fill="#F2F6FF"/>
<path fill-rule="evenodd" clip-rule="evenodd" d="M15.5 15C15.2239 15 15 15.2239 15 15.5V32H13.5C13.2239 32 13 32.2239 13 32.5C13 32.7761 13.2239 33 13.5 33H34.5C34.7761 33 35 32.7761 35 32.5C35 32.2239 34.7761 32 34.5 32H33V21.5C33 21.1022 32.842 20.7206 32.5607 20.4393C32.2794 20.158 31.8978 20 31.5 20H26V15.5C26 15.2239 25.7761 15 25.5 15H15.5ZM31.8536 21.1464C31.9473 21.2402 32 21.3674 32 21.5V32H26V21H31.5C31.6326 21 31.7598 21.0527 31.8536 21.1464ZM25 32H16V16H25V32Z" fill="#F2F6FF"/>
</g>
<defs>
<clipPath id="clip0_3787_34429">
<rect width="48" height="48" fill="white"/>
</clipPath>
</defs>
</svg>
