<svg width="96" height="96" viewBox="0 0 96 96" fill="none" xmlns="http://www.w3.org/2000/svg">
<circle opacity="0.2" cx="48" cy="48" r="44" stroke="#0051FF" stroke-width="8"/>
<circle cx="48" cy="48" r="39.5" stroke="#0051FF"/>
<path d="M48.6406 39.7C46.7782 39.7 45.636 40.6355 44.7584 41.8274L44.7 41.9068V42.1269C44.7 42.7511 45.3566 43.1573 45.9152 42.8785L45.9834 42.8444L46.0271 42.7819C46.6501 41.8905 47.382 41.3027 48.5781 41.3027C49.2576 41.3027 49.7597 41.4739 50.0866 41.7478C50.4068 42.0162 50.5906 42.409 50.5906 42.9284C50.5906 43.4708 50.4693 43.8044 50.2297 44.0939C49.9732 44.404 49.5676 44.6822 48.9369 45.0758C48.4258 45.3835 47.9851 45.6701 47.6791 46.0394C47.3585 46.4263 47.2 46.884 47.2 47.5V49.0006L47.2 49.0027L47.2 49.0063L47.2002 49.0156L47.2017 49.0429C47.2032 49.0645 47.2062 49.0935 47.2118 49.1274C47.2229 49.194 47.2457 49.2873 47.2941 49.3842C47.3432 49.4823 47.4214 49.5895 47.5445 49.6715C47.6694 49.7548 47.8225 49.8 48 49.8C48.1774 49.8 48.3305 49.7548 48.4554 49.6715C48.5785 49.5895 48.6567 49.4823 48.7058 49.3842C48.7542 49.2873 48.777 49.194 48.7881 49.1274C48.7937 49.0935 48.7967 49.0645 48.7982 49.0429L48.7997 49.0156L48.7999 49.0063L48.7999 49.0027L48.8 49C48.8 48.8263 48.7988 48.6658 48.7977 48.5185C48.7947 48.123 48.7928 47.8303 48.8133 47.5901C48.8333 47.3544 48.8736 47.1906 48.9437 47.0525C49.0863 46.771 49.3862 46.5226 50.1532 46.0669C50.7218 45.7291 51.2624 45.3598 51.6578 44.8564C52.061 44.343 52.3 43.7078 52.3 42.8647C52.3 41.9371 51.9323 41.1369 51.2779 40.5725C50.627 40.0112 49.713 39.7 48.6406 39.7Z" fill="#0051FF"/>
<path d="M48 50.7C47.4201 50.7 46.95 51.1701 46.95 51.75C46.95 52.3299 47.4201 52.8 48 52.8C48.5798 52.8 49.05 52.3299 49.05 51.75C49.05 51.1701 48.5798 50.7 48 50.7Z" fill="#0051FF"/>
<path fill-rule="evenodd" clip-rule="evenodd" d="M28 46C28 52.6274 33.3726 58 40 58H42V61C42 61.3318 42.1646 61.642 42.4394 61.8281C42.7141 62.0141 43.0633 62.0517 43.3714 61.9285L53.1926 58H56C62.6274 58 68 52.6274 68 46C68 39.3726 62.6274 34 56 34H40C33.3726 34 28 39.3726 28 46ZM40 36C34.4772 36 30 40.4772 30 46C30 51.5228 34.4772 56 40 56H43C43.5523 56 44 56.4477 44 57V59.523L52.6076 56.0799C52.6703 56.0532 52.7363 56.0326 52.8047 56.0191C52.8774 56.0045 52.9505 55.9983 53.0227 56H56C61.5228 56 66 51.5228 66 46C66 40.4772 61.5228 36 56 36H40Z" fill="#0051FF"/>
</svg>
