<svg width="24" height="24" viewBox="0 0 24 24" fill="none" xmlns="http://www.w3.org/2000/svg">
<path fill-rule="evenodd" clip-rule="evenodd" d="M11 4.8C11 4.35817 10.6418 4 10.2 4H4.8C4.35817 4 4 4.35817 4 4.8V10.2C4 10.6418 4.35817 11 4.8 11H10.2C10.6418 11 11 10.6418 11 10.2V4.8ZM6.29289 10L10 6.29289V5H8.70711L5 8.70711V10H6.29289ZM10 7.70711L7.70711 10H10V7.70711ZM5 7.29289L7.29289 5H5V7.29289Z" fill="#0033AA"/>
<path fill-rule="evenodd" clip-rule="evenodd" d="M4.8 13C4.35817 13 4 13.3582 4 13.8V19.2C4 19.6418 4.35817 20 4.8 20H10.2C10.6418 20 11 19.6418 11 19.2V13.8C11 13.3582 10.6418 13 10.2 13H4.8ZM5 19V14H10V19H5Z" fill="#0033AA"/>
<path fill-rule="evenodd" clip-rule="evenodd" d="M13 13.8C13 13.3582 13.3582 13 13.8 13H19.2C19.6418 13 20 13.3582 20 13.8V19.2C20 19.6418 19.6418 20 19.2 20H13.8C13.3582 20 13 19.6418 13 19.2V13.8ZM14 14V19H19V14H14Z" fill="#0033AA"/>
<path fill-rule="evenodd" clip-rule="evenodd" d="M13.8 4C13.3582 4 13 4.35817 13 4.8V10.2C13 10.6418 13.3582 11 13.8 11H19.2C19.6418 11 20 10.6418 20 10.2V4.8C20 4.35817 19.6418 4 19.2 4H13.8ZM14 10V5H19V10H14Z" fill="#0033AA"/>
</svg>
