<svg width="24" height="24" viewBox="0 0 24 24" fill="none" xmlns="http://www.w3.org/2000/svg">
<path d="M12 3C12.2761 3 12.5 3.22386 12.5 3.5V15.2929L15.6464 12.1464C15.8417 11.9512 16.1583 11.9512 16.3536 12.1464C16.5488 12.3417 16.5488 12.6583 16.3536 12.8536L12.3536 16.8536C12.1583 17.0488 11.8417 17.0488 11.6464 16.8536L7.64645 12.8536C7.45118 12.6583 7.45118 12.3417 7.64645 12.1464C7.84171 11.9512 8.15829 11.9512 8.35355 12.1464L11.5 15.2929V3.5C11.5 3.22386 11.7239 3 12 3Z" fill="#0033AA"/>
<path d="M3 16.5C3 16.2239 2.77614 16 2.5 16C2.22386 16 2 16.2239 2 16.5V18.5C2 19.163 2.26339 19.7989 2.73223 20.2678C3.20107 20.7366 3.83696 21 4.5 21H19.5C20.163 21 20.7989 20.7366 21.2678 20.2678C21.7366 19.7989 22 19.163 22 18.5V16.5C22 16.2239 21.7761 16 21.5 16C21.2239 16 21 16.2239 21 16.5V18.5C21 18.8978 20.842 19.2794 20.5607 19.5607C20.2794 19.842 19.8978 20 19.5 20H4.5C4.10218 20 3.72064 19.842 3.43934 19.5607C3.15803 19.2794 3 18.8978 3 18.5V16.5Z" fill="#0033AA"/>
</svg>
