<svg width="64" height="64" viewBox="0 0 64 64" fill="none" xmlns="http://www.w3.org/2000/svg">
<path fill-rule="evenodd" clip-rule="evenodd" d="M17.3333 9.33301C15.1242 9.33301 13.3333 11.1239 13.3333 13.333V18.6663C13.3333 20.8755 15.1242 22.6663 17.3333 22.6663H46.6666C48.8758 22.6663 50.6666 20.8755 50.6666 18.6663V17.333H52V26.6663C52 27.4027 51.403 27.9997 50.6666 27.9997H34.6666C32.4575 27.9997 30.6666 29.7905 30.6666 31.9997V38.6663H29.3333C28.5969 38.6663 28 39.2633 28 39.9997V55.9997C28 56.7361 28.5969 57.333 29.3333 57.333H34.6666C35.403 57.333 36 56.7361 36 55.9997V39.9997C36 39.2633 35.403 38.6663 34.6666 38.6663H33.3333V31.9997C33.3333 31.2633 33.9303 30.6663 34.6666 30.6663H50.6666C52.8758 30.6663 54.6666 28.8755 54.6666 26.6663V15.9997C54.6666 15.2633 54.0697 14.6663 53.3333 14.6663H50.6666V13.333C50.6666 11.1239 48.8758 9.33301 46.6666 9.33301H17.3333ZM16 13.333C16 12.5966 16.5969 11.9997 17.3333 11.9997H46.6666C47.403 11.9997 48 12.5966 48 13.333V18.6663C48 19.4027 47.403 19.9997 46.6666 19.9997H17.3333C16.5969 19.9997 16 19.4027 16 18.6663V13.333ZM30.6666 54.6663V41.333H33.3333V54.6663H30.6666Z" fill="#0051FF"/>
</svg>
