<svg width="16" height="16" viewBox="0 0 16 16" fill="none" xmlns="http://www.w3.org/2000/svg">
<path d="M11.4832 2.68832C10.2574 2.03654 8.84346 1.83003 7.48244 2.10396C6.12142 2.3779 4.89751 3.11534 4.01931 4.1906C3.23763 5.14767 2.7729 6.31967 2.68258 7.54474L1.90204 6.76421C1.77187 6.63403 1.56081 6.63403 1.43064 6.76421C1.30046 6.89438 1.30046 7.10544 1.43064 7.23561L2.76397 8.56894C2.89415 8.69912 3.1052 8.69912 3.23538 8.56894L4.56871 7.23561C4.69888 7.10544 4.69888 6.89438 4.56871 6.76421C4.43853 6.63403 4.22748 6.63403 4.09731 6.76421L3.35456 7.50695C3.44991 6.44951 3.85931 5.44041 4.53564 4.61231C5.31627 3.65653 6.40419 3.00102 7.61398 2.75752C8.82378 2.51402 10.0806 2.69759 11.1702 3.27695C12.2598 3.8563 13.1148 4.79559 13.5894 5.93472C14.0641 7.07385 14.129 8.34233 13.7731 9.52396C13.4173 10.7056 12.6626 11.7273 11.6379 12.4148C10.6131 13.1024 9.3816 13.4133 8.15326 13.2946C6.92493 13.1759 5.77577 12.6349 4.90165 11.7638C4.88329 11.7455 4.86301 11.7295 4.84129 11.7161C4.73312 11.6052 4.6297 11.4894 4.53101 11.3688C4.41443 11.2263 4.20443 11.2053 4.06195 11.3219C3.91946 11.4385 3.89846 11.6485 4.01504 11.791C4.14202 11.9462 4.27612 12.0944 4.41732 12.2356C4.43678 12.255 4.45839 12.2718 4.48159 12.2858C5.45853 13.2366 6.73079 13.8269 8.08913 13.9582C9.47101 14.0917 10.8564 13.7419 12.0093 12.9684C13.1622 12.1949 14.0111 11.0455 14.4115 9.71621C14.8118 8.38687 14.7388 6.95983 14.2048 5.67831C13.6708 4.39679 12.709 3.34009 11.4832 2.68832Z" fill="#F2F6FF"/>
<path d="M8.33301 4.66658C8.5171 4.66658 8.66634 4.81581 8.66634 4.99991V7.91517L10.5087 9.75754C10.6389 9.88771 10.6389 10.0988 10.5087 10.2289C10.3785 10.3591 10.1675 10.3591 10.0373 10.2289L8.09731 8.28894C8.03479 8.22643 7.99967 8.14165 7.99967 8.05324V4.99991C7.99967 4.81581 8.14891 4.66658 8.33301 4.66658Z" fill="#F2F6FF"/>
</svg>
