<svg width="48" height="48" viewBox="0 0 48 48" fill="none" xmlns="http://www.w3.org/2000/svg">
<rect width="48" height="48" rx="24" fill="#0051FF"/>
<path d="M21 23C21 23.5523 20.5523 24 20 24C19.4477 24 19 23.5523 19 23C19 22.4477 19.4477 22 20 22C20.5523 22 21 22.4477 21 23Z" fill="white"/>
<path d="M24 24C24.5523 24 25 23.5523 25 23C25 22.4477 24.5523 22 24 22C23.4477 22 23 22.4477 23 23C23 23.5523 23.4477 24 24 24Z" fill="white"/>
<path d="M28 24C28.5523 24 29 23.5523 29 23C29 22.4477 28.5523 22 28 22C27.4477 22 27 22.4477 27 23C27 23.5523 27.4477 24 28 24Z" fill="white"/>
<path fill-rule="evenodd" clip-rule="evenodd" d="M22.6581 29.9743C22.6799 29.9671 22.7011 29.9595 22.7216 29.9517C23.2718 30.5934 24.0884 31 25 31H27.7246L30.0876 32.8904C30.2377 33.0105 30.4434 33.0339 30.6166 32.9507C30.7898 32.8674 30.9 32.6922 30.9 32.5V31H31C32.6569 31 34 29.6569 34 28C34 27.2189 33.7015 26.5075 33.2123 25.9737C33.7136 25.0969 34 24.0813 34 23C34 19.6863 31.3137 17 28 17H20C16.6863 17 14 19.6863 14 23C14 25.9731 16.1621 28.4407 19 28.917V30.5C19 30.6607 19.0773 30.8116 19.2076 30.9056C19.338 30.9996 19.5056 31.0252 19.6581 30.9743L22.6581 29.9743ZM20 18C17.2386 18 15 20.2386 15 23C15 25.6079 16.997 27.75 19.5449 27.9796C19.8088 28.0034 20.0063 28.2281 19.9999 28.4893L20 28.5V29.8063L22.1978 29.0737C22.07 28.7403 22 28.3783 22 28C22 26.3431 23.3431 25 25 25H31C31.5109 25 31.9919 25.1277 32.413 25.3529C32.7876 24.652 33 23.8513 33 23C33 20.2386 30.7614 18 28 18H20ZM30.453 30.0028C30.4665 30.0009 30.4821 30 30.5 30H31C32.1046 30 33 29.1046 33 28C33 26.8954 32.1046 26 31 26H25C23.8954 26 23 26.8954 23 28C23 29.1046 23.8954 30 25 30H27.9C28.0197 30 28.1296 30.0421 28.2157 30.1123L29.9 31.4597V30.5C29.9 30.2239 30.1239 30 30.4 30C30.4179 30 30.4356 30.0009 30.453 30.0028Z" fill="white"/>
</svg>
