<svg width="24" height="24" viewBox="0 0 24 24" fill="none" xmlns="http://www.w3.org/2000/svg">
<rect width="24" height="24" rx="4.7619" fill="#00AF43"/>
<rect width="14.2857" height="14.2857" transform="translate(4.7619 4.85715)" fill="#00AF43"/>
<path fill-rule="evenodd" clip-rule="evenodd" d="M8.63096 6.94049C8.13784 6.94049 7.7381 7.34024 7.7381 7.83335V9.02382C7.7381 9.51694 8.13784 9.91668 8.63096 9.91668H15.1786C15.6717 9.91668 16.0714 9.51694 16.0714 9.02382V8.7262H16.3691V10.8095C16.3691 10.9739 16.2358 11.1072 16.0714 11.1072H12.5C12.0069 11.1072 11.6071 11.5069 11.6071 12V13.4881H11.3095C11.1452 13.4881 11.0119 13.6214 11.0119 13.7857V17.3572C11.0119 17.5215 11.1452 17.6548 11.3095 17.6548H12.5C12.6644 17.6548 12.7976 17.5215 12.7976 17.3572V13.7857C12.7976 13.6214 12.6644 13.4881 12.5 13.4881H12.2024V12C12.2024 11.8356 12.3356 11.7024 12.5 11.7024H16.0714C16.5645 11.7024 16.9643 11.3026 16.9643 10.8095V8.42859C16.9643 8.26422 16.831 8.13097 16.6667 8.13097H16.0714V7.83335C16.0714 7.34024 15.6717 6.94049 15.1786 6.94049H8.63096ZM8.33334 7.83335C8.33334 7.66898 8.46658 7.53573 8.63096 7.53573H15.1786C15.3429 7.53573 15.4762 7.66898 15.4762 7.83335V9.02382C15.4762 9.18819 15.3429 9.32144 15.1786 9.32144H8.63096C8.46658 9.32144 8.33334 9.18819 8.33334 9.02382V7.83335ZM11.6071 17.0595V14.0833H12.2024V17.0595H11.6071Z" fill="white"/>
</svg>
