<svg width="24" height="24" viewBox="0 0 24 24" fill="none" xmlns="http://www.w3.org/2000/svg">
<rect width="24" height="24" rx="4.7619" fill="#00AF43"/>
<rect width="14.2857" height="14.2857" transform="translate(4.7619 4.85715)" fill="#00AF43"/>
<path fill-rule="evenodd" clip-rule="evenodd" d="M7.73809 6.9405C7.73809 6.77612 7.87134 6.64288 8.03571 6.64288H12.5V8.60719C12.5 8.83731 12.6865 9.02386 12.9167 9.02386H14.8809V11.7024C14.8809 11.8668 15.0142 12 15.1786 12C15.3429 12 15.4762 11.8668 15.4762 11.7024V8.85693C15.4762 8.61175 15.3754 8.37737 15.1974 8.20875L13.1745 6.29232C13.0086 6.13521 12.7889 6.04764 12.5604 6.04764H8.03571C7.5426 6.04764 7.14285 6.44738 7.14285 6.9405V16.4643C7.14285 16.9574 7.5426 17.3572 8.03571 17.3572H11.3095C11.4739 17.3572 11.6071 17.2239 11.6071 17.0595C11.6071 16.8952 11.4739 16.7619 11.3095 16.7619H8.03571C7.87134 16.7619 7.73809 16.6287 7.73809 16.4643V6.9405ZM14.4601 8.42862L13.0952 7.06381V8.42862H14.4601Z" fill="white"/>
<path d="M8.63095 9.32145C8.63095 9.15708 8.7642 9.02383 8.92857 9.02383H11.0536C11.2179 9.02383 11.3512 9.15708 11.3512 9.32145C11.3512 9.48582 11.2179 9.61907 11.0536 9.61907H8.92857C8.7642 9.61907 8.63095 9.48582 8.63095 9.32145Z" fill="white"/>
<path d="M8.92857 12C8.7642 12 8.63095 12.1333 8.63095 12.2976C8.63095 12.462 8.7642 12.5953 8.92857 12.5953H12.5C12.6644 12.5953 12.7976 12.462 12.7976 12.2976C12.7976 12.1333 12.6644 12 12.5 12H8.92857Z" fill="white"/>
<path d="M8.92857 10.5119C8.7642 10.5119 8.63095 10.6452 8.63095 10.8095C8.63095 10.9739 8.7642 11.1072 8.92857 11.1072H13.3928C13.5572 11.1072 13.6905 10.9739 13.6905 10.8095C13.6905 10.6452 13.5572 10.5119 13.3928 10.5119H8.92857Z" fill="white"/>
<path d="M14.6705 16.9724L13.7776 16.0795C13.6614 15.9633 13.6614 15.7748 13.7776 15.6586C13.8939 15.5424 14.0823 15.5424 14.1985 15.6586L14.5833 16.0434V14.381C14.5833 14.2166 14.7166 14.0834 14.8809 14.0834C15.0453 14.0834 15.1786 14.2166 15.1786 14.381V16.0434L15.5634 15.6586C15.6796 15.5424 15.868 15.5424 15.9843 15.6586C16.1005 15.7748 16.1005 15.9633 15.9843 16.0795L15.0914 16.9724C14.9752 17.0886 14.7867 17.0886 14.6705 16.9724Z" fill="white"/>
<path fill-rule="evenodd" clip-rule="evenodd" d="M11.9048 15.5714C11.9048 13.9277 13.2372 12.5953 14.8809 12.5953C16.5247 12.5953 17.8571 13.9277 17.8571 15.5714C17.8571 17.2152 16.5247 18.5476 14.8809 18.5476C13.2372 18.5476 11.9048 17.2152 11.9048 15.5714ZM14.8809 13.1905C13.566 13.1905 12.5 14.2565 12.5 15.5714C12.5 16.8864 13.566 17.9524 14.8809 17.9524C16.1959 17.9524 17.2619 16.8864 17.2619 15.5714C17.2619 14.2565 16.1959 13.1905 14.8809 13.1905Z" fill="white"/>
</svg>
