<svg width="24" height="24" viewBox="0 0 24 24" fill="none" xmlns="http://www.w3.org/2000/svg">
<rect width="24" height="24" rx="4.7619" fill="#00AF43"/>
<rect width="14.2857" height="14.2857" transform="translate(4.7619 4.85715)" fill="#00AF43"/>
<path d="M15.6866 14.2938C15.8029 14.1776 15.8029 13.9891 15.6866 13.8729C15.5704 13.7567 15.382 13.7567 15.2657 13.8729L14.2857 14.8529L13.9009 14.4681C13.7847 14.3519 13.5962 14.3519 13.48 14.4681C13.3638 14.5843 13.3638 14.7728 13.48 14.889L14.0753 15.4843C14.1915 15.6005 14.3799 15.6005 14.4962 15.4843L15.6866 14.2938Z" fill="white"/>
<path fill-rule="evenodd" clip-rule="evenodd" d="M12.0946 10.9641C12.7002 10.5324 13.0952 9.82424 13.0952 9.02381C13.0952 7.70884 12.0292 6.64285 10.7143 6.64285C9.39931 6.64285 8.33332 7.70884 8.33332 9.02381C8.33332 9.82424 8.7283 10.5324 9.33399 10.9641C8.71493 11.1445 8.14498 11.4786 7.68083 11.9427C6.95524 12.6683 6.54761 13.6524 6.54761 14.6786V14.8571C6.54761 15.2044 6.68557 15.5375 6.93116 15.7831C7.17674 16.0287 7.50982 16.1667 7.85713 16.1667H12.3363C12.3899 16.2672 12.4484 16.3656 12.5116 16.4613C12.9814 17.1731 13.6842 17.6966 14.4981 17.9399C14.5537 17.9565 14.613 17.9565 14.6686 17.9399C15.4824 17.6966 16.1853 17.1731 16.6551 16.4613C17.1246 15.75 17.3318 14.8955 17.241 14.0465L17.0875 12.4717C17.0746 12.3397 16.9759 12.2322 16.8455 12.208C15.8482 12.0231 14.8342 11.9615 13.8258 12.0231C13.8002 11.996 13.7742 11.9692 13.7477 11.9427C13.2836 11.4786 12.7136 11.1445 12.0946 10.9641ZM8.92856 9.02381C8.92856 8.03758 9.72805 7.23809 10.7143 7.23809C11.7005 7.23809 12.5 8.03758 12.5 9.02381C12.5 10.01 11.7005 10.8095 10.7143 10.8095C9.72805 10.8095 8.92856 10.01 8.92856 9.02381ZM11.9256 14.0465C11.8703 14.564 11.9257 15.0835 12.0837 15.5714H7.85713C7.66769 15.5714 7.48601 15.4962 7.35205 15.3622C7.2181 15.2283 7.14285 15.0466 7.14285 14.8571V14.6786C7.14285 13.8103 7.48776 12.9776 8.10172 12.3636C8.71568 11.7497 9.54839 11.4048 10.4167 11.4048H11.0119C11.7457 11.4048 12.4541 11.6511 13.0266 12.0981C12.7907 12.1279 12.5555 12.1645 12.3211 12.208C12.1907 12.2322 12.0921 12.3397 12.0792 12.4717L11.9256 14.0465ZM12.6497 12.7546L12.5179 14.1056L12.5176 14.1085C12.4412 14.8209 12.615 15.5375 13.0083 16.1335C13.3851 16.7043 13.9402 17.1295 14.5833 17.3427C15.2264 17.1295 15.7815 16.7043 16.1583 16.1335C16.5517 15.5375 16.7255 14.8209 16.649 14.1085L16.6487 14.1056L16.517 12.7546C15.2365 12.5421 13.9302 12.5421 12.6497 12.7546Z" fill="white"/>
</svg>
