<svg width="250" height="250" viewBox="0 0 250 250" fill="none" xmlns="http://www.w3.org/2000/svg">
<path d="M118.918 216.777C94.4866 209.538 73.37 193.956 59.2471 172.746C45.1243 151.537 38.8906 126.045 41.6323 100.712L46.6627 49.5843C94.4326 40.8039 143.403 40.8039 191.173 49.5843L196.203 100.712C198.945 126.045 192.711 151.537 178.588 172.746C164.465 193.956 143.349 209.538 118.918 216.777Z" fill="#DFEEFD" stroke="#0051FF" stroke-width="2" stroke-linecap="round" stroke-linejoin="round"/>
<path d="M118.918 204.794C97.8562 198.553 79.652 185.12 67.4771 166.836C55.3021 148.552 49.9282 126.576 52.2917 104.737L56.6283 60.6612C97.8097 53.0918 140.026 53.0918 181.207 60.6612L185.544 104.737C187.907 126.576 182.533 148.552 170.358 166.836C158.183 185.12 139.979 198.553 118.918 204.794Z" fill="white"/>
<path d="M118.127 197.958C99.2458 192.314 82.9262 180.165 72.0117 163.629C61.0971 147.093 56.2795 127.218 58.3984 107.466L62.286 67.6043C99.204 60.7585 137.05 60.7585 173.968 67.6043L177.855 107.466C179.974 127.218 175.157 147.093 164.242 163.629C153.328 180.165 137.008 192.314 118.127 197.958Z" fill="white" stroke="#4898FF" stroke-width="2" stroke-linecap="round" stroke-linejoin="round"/>
<path fill-rule="evenodd" clip-rule="evenodd" d="M127.811 112.628V104.374C127.811 99.1941 123.639 94.9947 118.493 94.9947C113.346 94.9947 109.174 99.1941 109.174 104.374V112.628C109.174 117.809 113.346 122.008 118.493 122.008C123.639 122.008 127.811 117.809 127.811 112.628ZM118.493 85.9902C108.406 85.9902 100.229 94.2211 100.229 104.374V112.628C100.229 122.782 108.406 131.012 118.493 131.012C128.579 131.012 136.756 122.782 136.756 112.628V104.374C136.756 94.2211 128.579 85.9902 118.493 85.9902Z" fill="#7AB3FF" stroke="#0051FF" stroke-width="2"/>
<path d="M98.4412 113.324H139.393C143.014 113.325 145.95 116.26 145.95 119.881V146.011C145.95 151.719 141.323 156.347 135.615 156.347H102.219C96.5116 156.347 91.8845 151.719 91.8845 146.011V119.881C91.8847 116.26 94.8201 113.325 98.4412 113.324Z" fill="#BFDBFF" stroke="#0051FF" stroke-width="2"/>
<path d="M124.013 132.771C124.015 131.893 123.776 131.028 123.318 130.261C122.86 129.493 122.199 128.847 121.397 128.385C120.595 127.923 119.68 127.659 118.738 127.62C117.796 127.581 116.859 127.767 116.016 128.161C115.173 128.555 114.453 129.143 113.923 129.869C113.393 130.596 113.072 131.437 112.99 132.312C112.909 133.187 113.069 134.067 113.455 134.868C113.842 135.669 114.442 136.365 115.199 136.888V142.81C115.199 143.332 115.622 143.755 116.144 143.755H120.812C121.334 143.755 121.757 143.332 121.757 142.81V136.888C122.453 136.415 123.02 135.796 123.412 135.08C123.804 134.365 124.01 133.574 124.013 132.771Z" fill="white" stroke="#0051FF" stroke-width="2" stroke-linecap="round" stroke-linejoin="round"/>
<rect x="143.829" y="73.8291" width="89.3419" height="27.9443" rx="13.9721" fill="#DFEEFD" stroke="#0051FF" stroke-width="1.65813"/>
<path d="M174.551 90.3359C174.461 90.148 174.193 90.1488 174.103 90.3372L172.766 93.1425C172.703 93.2747 172.54 93.3241 172.414 93.2492L170.893 92.3437C170.769 92.2701 170.734 92.1073 170.815 91.9888L172.57 89.4424C172.688 89.2711 172.556 89.0393 172.348 89.0531L169.229 89.261C169.086 89.2706 168.964 89.1567 168.964 89.0129V87.3257C168.964 87.1813 169.087 87.0672 169.231 87.0776L172.367 87.3044C172.576 87.3194 172.709 87.0867 172.59 86.9149L170.816 84.3484C170.734 84.2299 170.77 84.0669 170.893 83.9932L172.414 83.0879C172.54 83.013 172.703 83.0624 172.766 83.1946L174.101 85.9966C174.191 86.1856 174.46 86.1856 174.55 85.9966L175.886 83.1933C175.949 83.0616 176.111 83.0119 176.237 83.0859L177.78 83.9937C177.905 84.067 177.941 84.2306 177.859 84.3495L176.086 86.9147C175.967 87.0865 176.1 87.3193 176.308 87.3041L179.421 87.0778C179.565 87.0673 179.688 87.1814 179.688 87.3258V89.0129C179.688 89.1567 179.566 89.2706 179.423 89.261L176.307 89.0533C176.099 89.0394 175.967 89.2725 176.086 89.4436L177.858 91.9885C177.941 92.107 177.905 92.2705 177.781 92.3443L176.26 93.25C176.134 93.3246 175.972 93.2758 175.909 93.1445L174.551 90.3359Z" fill="#0051FF"/>
<path d="M188.46 90.3372C188.55 90.1488 188.818 90.148 188.908 90.3359L190.266 93.1445C190.329 93.2758 190.491 93.3246 190.617 93.25L192.138 92.3443C192.262 92.2705 192.298 92.107 192.215 91.9885L190.443 89.4436C190.324 89.2725 190.456 89.0394 190.664 89.0533L193.78 89.261C193.923 89.2706 194.045 89.1567 194.045 89.0129V87.3258C194.045 87.1814 193.922 87.0673 193.778 87.0778L190.665 87.3041C190.457 87.3193 190.324 87.0865 190.443 86.9147L192.216 84.3495C192.298 84.2306 192.262 84.067 192.137 83.9937L190.594 83.0859C190.468 83.0119 190.306 83.0616 190.243 83.1933L188.907 85.9966C188.817 86.1856 188.548 86.1856 188.458 85.9966L187.123 83.1946C187.06 83.0624 186.897 83.013 186.771 83.0879L185.25 83.9932C185.127 84.0669 185.091 84.2299 185.173 84.3484L186.947 86.9149C187.066 87.0867 186.933 87.3194 186.724 87.3044L183.588 87.0776C183.444 87.0672 183.321 87.1813 183.321 87.3257V89.0129C183.321 89.1567 183.443 89.2706 183.586 89.261L186.705 89.0531C186.913 89.0393 187.045 89.2711 186.927 89.4424L185.173 91.9888C185.091 92.1073 185.126 92.2701 185.25 92.3437L186.771 93.2492C186.897 93.3241 187.06 93.2747 187.123 93.1425L188.46 90.3372Z" fill="#0051FF"/>
<path d="M203.266 90.3359C203.175 90.148 202.907 90.1488 202.817 90.3372L201.48 93.1425C201.417 93.2747 201.254 93.3241 201.129 93.2492L199.607 92.3437C199.484 92.2701 199.448 92.1073 199.53 91.9888L201.284 89.4424C201.402 89.2711 201.27 89.0393 201.062 89.0531L197.943 89.261C197.8 89.2706 197.678 89.1567 197.678 89.0129V87.3257C197.678 87.1813 197.801 87.0672 197.945 87.0776L201.082 87.3044C201.29 87.3194 201.423 87.0867 201.304 86.9149L199.53 84.3484C199.448 84.2299 199.484 84.0669 199.608 83.9932L201.129 83.0879C201.254 83.013 201.417 83.0624 201.48 83.1946L202.815 85.9966C202.906 86.1856 203.174 86.1856 203.265 85.9966L204.6 83.1933C204.663 83.0616 204.825 83.0119 204.951 83.0859L206.494 83.9937C206.619 84.067 206.655 84.2306 206.573 84.3495L204.8 86.9147C204.681 87.0865 204.814 87.3193 205.022 87.3041L208.135 87.0778C208.279 87.0673 208.402 87.1814 208.402 87.3258V89.0129C208.402 89.1567 208.28 89.2706 208.137 89.261L205.021 89.0533C204.813 89.0394 204.681 89.2725 204.8 89.4436L206.572 91.9885C206.655 92.107 206.619 92.2705 206.495 92.3443L204.974 93.25C204.848 93.3246 204.686 93.2758 204.623 93.1445L203.266 90.3359Z" fill="#0051FF"/>
<path d="M217.623 90.3359C217.532 90.148 217.264 90.1488 217.174 90.3372L215.838 93.1425C215.775 93.2747 215.612 93.3241 215.486 93.2492L213.964 92.3437C213.841 92.2701 213.805 92.1073 213.887 91.9888L215.641 89.4424C215.759 89.2711 215.627 89.0393 215.42 89.0531L212.301 89.261C212.157 89.2706 212.035 89.1567 212.035 89.0129V87.3257C212.035 87.1813 212.158 87.0672 212.302 87.0776L215.439 87.3044C215.647 87.3194 215.78 87.0867 215.661 86.9149L213.887 84.3484C213.805 84.2299 213.841 84.0669 213.965 83.9932L215.486 83.0879C215.612 83.013 215.775 83.0624 215.838 83.1946L217.173 85.9966C217.263 86.1856 217.532 86.1856 217.622 85.9966L218.958 83.1933C219.02 83.0616 219.182 83.0119 219.308 83.0859L220.851 83.9937C220.976 84.067 221.012 84.2306 220.93 84.3495L219.157 86.9147C219.038 87.0865 219.171 87.3193 219.38 87.3041L222.492 87.0778C222.637 87.0673 222.759 87.1814 222.759 87.3258V89.0129C222.759 89.1567 222.637 89.2706 222.494 89.261L219.378 89.0533C219.17 89.0394 219.038 89.2725 219.157 89.4436L220.929 91.9885C221.012 92.107 220.977 92.2705 220.853 92.3443L219.331 93.25C219.206 93.3246 219.043 93.2758 218.98 93.1445L217.623 90.3359Z" fill="#0051FF"/>
<path d="M159.746 90.3372C159.836 90.1488 160.104 90.148 160.194 90.3359L161.552 93.1445C161.615 93.2758 161.777 93.3246 161.903 93.25L163.424 92.3443C163.548 92.2705 163.584 92.107 163.501 91.9885L161.729 89.4436C161.61 89.2725 161.742 89.0394 161.95 89.0533L165.066 89.261C165.209 89.2706 165.331 89.1567 165.331 89.0129V87.3258C165.331 87.1814 165.208 87.0673 165.064 87.0778L161.951 87.3041C161.743 87.3193 161.61 87.0865 161.729 86.9147L163.502 84.3495C163.584 84.2306 163.548 84.067 163.423 83.9937L161.88 83.0859C161.754 83.0119 161.592 83.0616 161.529 83.1933L160.193 85.9966C160.103 86.1856 159.834 86.1856 159.744 85.9966L158.409 83.1946C158.346 83.0624 158.183 83.013 158.057 83.0879L156.536 83.9932C156.413 84.0669 156.377 84.2299 156.459 84.3484L158.233 86.9149C158.352 87.0867 158.219 87.3194 158.01 87.3044L154.874 87.0776C154.73 87.0672 154.607 87.1813 154.607 87.3257V89.0129C154.607 89.1567 154.729 89.2706 154.872 89.261L157.991 89.0531C158.199 89.0393 158.331 89.2711 158.213 89.4424L156.458 91.9888C156.377 92.1073 156.412 92.2701 156.536 92.3437L158.057 93.2492C158.183 93.3241 158.346 93.2747 158.409 93.1425L159.746 90.3372Z" fill="#0051FF"/>
<path d="M27.6647 218.76H13.377V206.897H27.6647V218.76Z" fill="#5CA3FF"/>
<path fill-rule="evenodd" clip-rule="evenodd" d="M12.377 206.897C12.377 206.345 12.8247 205.897 13.377 205.897H27.6647C28.217 205.897 28.6647 206.345 28.6647 206.897V218.76C28.6647 219.312 28.217 219.76 27.6647 219.76H13.377C12.8247 219.76 12.377 219.312 12.377 218.76V206.897ZM14.377 207.897V217.76H26.6647V207.897H14.377Z" fill="#0051FF"/>
<path d="M72.8932 218.76H58.6055V206.897H72.8932V218.76Z" fill="#5CA3FF"/>
<path fill-rule="evenodd" clip-rule="evenodd" d="M57.6055 206.897C57.6055 206.345 58.0532 205.897 58.6055 205.897H72.8932C73.4455 205.897 73.8932 206.345 73.8932 206.897V218.76C73.8932 219.312 73.4455 219.76 72.8932 219.76H58.6055C58.0532 219.76 57.6055 219.312 57.6055 218.76V206.897ZM59.6055 207.897V217.76H71.8932V207.897H59.6055Z" fill="#0051FF"/>
<path d="M81.675 132H4.91866C3.85902 132 3 132.859 3 133.919V210.675C3 211.735 3.85902 212.594 4.91866 212.594H81.675C82.7346 212.594 83.5937 211.735 83.5937 210.675V133.919C83.5937 132.859 82.7346 132 81.675 132Z" fill="#BFDBFF"/>
<path fill-rule="evenodd" clip-rule="evenodd" d="M4.91866 133C4.4113 133 4 133.411 4 133.919V210.675C4 211.182 4.41129 211.594 4.91866 211.594H81.675C82.1824 211.594 82.5937 211.182 82.5937 210.675V133.919C82.5937 133.411 82.1824 133 81.675 133H4.91866ZM2 133.919C2 132.307 3.30673 131 4.91866 131H81.675C83.2869 131 84.5937 132.307 84.5937 133.919V210.675C84.5937 212.287 83.2869 213.594 81.675 213.594H4.91866C3.30674 213.594 2 212.287 2 210.675V133.919Z" fill="#0051FF"/>
<path d="M71.464 142.539H14.8079C14.0176 142.539 13.377 143.18 13.377 143.97V200.626C13.377 201.416 14.0176 202.057 14.8079 202.057H71.464C72.2543 202.057 72.8949 201.416 72.8949 200.626V143.97C72.8949 143.18 72.2543 142.539 71.464 142.539Z" fill="#DFEEFD"/>
<path fill-rule="evenodd" clip-rule="evenodd" d="M14.8079 143.539C14.5699 143.539 14.377 143.732 14.377 143.97V200.626C14.377 200.864 14.5699 201.057 14.8079 201.057H71.464C71.702 201.057 71.8949 200.864 71.8949 200.626V143.97C71.8949 143.732 71.702 143.539 71.464 143.539H14.8079ZM12.377 143.97C12.377 142.627 13.4653 141.539 14.8079 141.539H71.464C72.8066 141.539 73.8949 142.627 73.8949 143.97V200.626C73.8949 201.969 72.8066 203.057 71.464 203.057H14.8079C13.4653 203.057 12.377 201.969 12.377 200.626V143.97Z" fill="#0051FF"/>
<path d="M14.1524 184.701H11.5768C11.1601 184.701 10.8223 185.039 10.8223 185.456V193.703C10.8223 194.12 11.1601 194.458 11.5768 194.458H14.1524C14.5691 194.458 14.9069 194.12 14.9069 193.703V185.456C14.9069 185.039 14.5691 184.701 14.1524 184.701Z" fill="#5CA3FF"/>
<path fill-rule="evenodd" clip-rule="evenodd" d="M11.8223 185.701V193.458H13.9069V185.701H11.8223ZM9.82227 185.456C9.82227 184.487 10.6078 183.701 11.5768 183.701H14.1524C15.1214 183.701 15.9069 184.487 15.9069 185.456V193.703C15.9069 194.672 15.1214 195.458 14.1524 195.458H11.5768C10.6078 195.458 9.82227 194.672 9.82227 193.703V185.456Z" fill="#0051FF"/>
<path d="M14.1524 154.77H11.5768C11.1601 154.77 10.8223 155.107 10.8223 155.524V163.771C10.8223 164.188 11.1601 164.526 11.5768 164.526H14.1524C14.5691 164.526 14.9069 164.188 14.9069 163.771V155.524C14.9069 155.107 14.5691 154.77 14.1524 154.77Z" fill="#5CA3FF"/>
<path fill-rule="evenodd" clip-rule="evenodd" d="M11.8223 155.77V163.526H13.9069V155.77H11.8223ZM9.82227 155.524C9.82227 154.555 10.6078 153.77 11.5768 153.77H14.1524C15.1214 153.77 15.9069 154.555 15.9069 155.524V163.771C15.9069 164.74 15.1214 165.526 14.1524 165.526H11.5768C10.6078 165.526 9.82227 164.74 9.82227 163.771V155.524Z" fill="#0051FF"/>
<path d="M43.3027 181.728C48.5149 181.728 52.7402 177.502 52.7402 172.29C52.7402 167.078 48.5149 162.853 43.3027 162.853C38.0905 162.853 33.8652 167.078 33.8652 172.29C33.8652 177.502 38.0905 181.728 43.3027 181.728Z" fill="#5CA3FF"/>
<path fill-rule="evenodd" clip-rule="evenodd" d="M43.3027 163.853C38.6428 163.853 34.8652 167.63 34.8652 172.29C34.8652 176.95 38.6428 180.728 43.3027 180.728C47.9626 180.728 51.7402 176.95 51.7402 172.29C51.7402 167.63 47.9626 163.853 43.3027 163.853ZM32.8652 172.29C32.8652 166.526 37.5383 161.853 43.3027 161.853C49.0672 161.853 53.7402 166.526 53.7402 172.29C53.7402 178.055 49.0672 182.728 43.3027 182.728C37.5383 182.728 32.8652 178.055 32.8652 172.29Z" fill="#0051FF"/>
<path d="M43.2989 169.362C42.7197 169.362 42.1534 169.534 41.6718 169.856C41.1902 170.178 40.8149 170.636 40.5935 171.171C40.372 171.706 40.3143 172.295 40.4277 172.863C40.5411 173.431 40.8205 173.953 41.2304 174.362C41.6404 174.772 42.1626 175.05 42.7309 175.162C43.2991 175.275 43.888 175.216 44.4229 174.994C44.9578 174.771 45.4147 174.395 45.7358 173.913C46.0569 173.431 46.2278 172.864 46.2268 172.285C46.2255 171.509 45.9164 170.766 45.3675 170.218C44.8185 169.67 44.0746 169.362 43.2989 169.362Z" fill="#DFEEFD"/>
<path fill-rule="evenodd" clip-rule="evenodd" d="M41.116 169.025C41.7621 168.593 42.5218 168.362 43.2989 168.362C44.3395 168.362 45.3375 168.775 46.074 169.51C46.8104 170.245 47.225 171.243 47.2268 172.283C47.2281 173.06 46.9989 173.821 46.5682 174.467C46.1374 175.114 45.5244 175.619 44.8068 175.917C44.0892 176.215 43.2992 176.294 42.5368 176.143C41.7745 175.993 41.074 175.619 40.5239 175.07C39.9739 174.521 39.5992 173.821 39.4471 173.059C39.295 172.297 39.3723 171.507 39.6694 170.789C39.9665 170.07 40.47 169.457 41.116 169.025ZM43.2989 170.362C42.9175 170.362 42.5446 170.475 42.2275 170.687C41.9104 170.899 41.6633 171.201 41.5175 171.553C41.3717 171.906 41.3337 172.293 41.4084 172.667C41.483 173.042 41.667 173.385 41.9369 173.655C42.2069 173.924 42.5507 174.107 42.9249 174.181C43.2991 174.255 43.6868 174.217 44.039 174.07C44.3912 173.924 44.6921 173.676 44.9035 173.359C45.115 173.041 45.2275 172.668 45.2268 172.287C45.2259 171.776 45.0224 171.287 44.661 170.926C44.2995 170.565 43.8097 170.362 43.2989 170.362Z" fill="#0051FF"/>
</svg>
