<svg width="96" height="96" viewBox="0 0 96 96" fill="none" xmlns="http://www.w3.org/2000/svg">
<circle opacity="0.2" cx="48" cy="48" r="44" stroke="#0051FF" stroke-width="8"/>
<circle cx="48" cy="48" r="39.5" stroke="#0051FF"/>
<path fill-rule="evenodd" clip-rule="evenodd" d="M28 38C28 36.8954 28.8954 36 30 36H64C65.1046 36 66 36.8954 66 38V45C66 45.5523 65.5523 46 65 46C64.4477 46 64 45.5523 64 45V44C62.4087 44 60.8826 43.3679 59.7574 42.2426C58.6321 41.1174 58 39.5913 58 38H36C36 39.5913 35.3679 41.1174 34.2426 42.2426C33.1174 43.3679 31.5913 44 30 44V50C31.5913 50 33.1174 50.6321 34.2426 51.7574C35.3679 52.8826 36 54.4087 36 56H48C48.5523 56 49 56.4477 49 57C49 57.5523 48.5523 58 48 58H30C28.8954 58 28 57.1046 28 56V38ZM61.1716 40.8284C60.4214 40.0783 60 39.0609 60 38H64V42C62.9391 42 61.9217 41.5786 61.1716 40.8284ZM30 38L34 38C34 39.0609 33.5786 40.0783 32.8284 40.8284C32.0783 41.5786 31.0609 42 30 42V38ZM32.8284 53.1716C33.5786 53.9217 34 54.9391 34 56H30V52C31.0609 52 32.0783 52.4214 32.8284 53.1716Z" fill="#0051FF"/>
<path d="M38 45C38 44.4477 37.5523 44 37 44C36.4477 44 36 44.4477 36 45V49C36 49.5523 36.4477 50 37 50C37.5523 50 38 49.5523 38 49V45Z" fill="#0051FF"/>
<path fill-rule="evenodd" clip-rule="evenodd" d="M54.1504 49.5903C55.9538 48.5884 58.3775 48 61 48C63.6225 48 66.0462 48.5884 67.8496 49.5903C69.6192 50.5734 71 52.0912 71 54C71 54.2276 70.9804 54.4496 70.9428 54.6658C70.9798 54.7703 71 54.8828 71 55V63C71 63.8777 70.5956 64.6385 70.0171 65.2464C69.4435 65.8491 68.6608 66.3464 67.7701 66.7422C65.9861 67.5351 63.5917 68 61 68C58.4083 68 56.0139 67.5351 54.2299 66.7422C53.3392 66.3464 52.5565 65.8491 51.9829 65.2464C51.4044 64.6385 51 63.8777 51 63V55C51 54.8828 51.0202 54.7703 51.0572 54.6658C51.0196 54.4496 51 54.2276 51 54C51 52.0912 52.3808 50.5734 54.1504 49.5903ZM55.1217 51.3386C53.6339 52.1652 53 53.1474 53 54C53 54.8526 53.6339 55.8348 55.1217 56.6614C56.5756 57.4691 58.6519 58 61 58C63.3481 58 65.4244 57.4691 66.8783 56.6614C68.3661 55.8348 69 54.8526 69 54C69 53.1474 68.3661 52.1652 66.8783 51.3386C65.4244 50.5309 63.3481 50 61 50C58.6519 50 56.5756 50.5309 55.1217 51.3386ZM67.8496 58.4097C68.2578 58.1829 68.6453 57.9277 69 57.6457V59C69 59.2269 68.9007 59.5184 68.5683 59.8676C68.2311 60.222 67.6958 60.5866 66.9578 60.9146C65.4844 61.5695 63.3789 62 61 62C58.6211 62 56.5156 61.5695 55.0422 60.9146C54.3042 60.5866 53.7689 60.222 53.4317 59.8676C53.0993 59.5184 53 59.2269 53 59V57.6457C53.3547 57.9277 53.7422 58.1829 54.1504 58.4097C55.9538 59.4116 58.3775 60 61 60C63.6225 60 66.0462 59.4116 67.8496 58.4097ZM67.7701 62.7422C68.2105 62.5465 68.6246 62.3259 69 62.0801V63C69 63.2269 68.9007 63.5184 68.5683 63.8676C68.2311 64.222 67.6958 64.5866 66.9578 64.9146C65.4844 65.5695 63.3789 66 61 66C58.6211 66 56.5156 65.5695 55.0422 64.9146C54.3042 64.5866 53.7689 64.222 53.4317 63.8676C53.0993 63.5184 53 63.2269 53 63V62.0801C53.3754 62.3259 53.7895 62.5465 54.2299 62.7422C56.0139 63.5351 58.4083 64 61 64C63.5917 64 65.9861 63.5351 67.7701 62.7422Z" fill="#0051FF"/>
<path d="M56 44C56.5523 44 57 44.4477 57 45V47C57 47.5523 56.5523 48 56 48C55.4477 48 55 47.5523 55 47V45C55 44.4477 55.4477 44 56 44Z" fill="#0051FF"/>
<path fill-rule="evenodd" clip-rule="evenodd" d="M47 42C44.2386 42 42 44.2386 42 47C42 49.7614 44.2386 52 47 52C49.7614 52 52 49.7614 52 47C52 44.2386 49.7614 42 47 42ZM44 47C44 45.3431 45.3431 44 47 44C48.6569 44 50 45.3431 50 47C50 48.6569 48.6569 50 47 50C45.3431 50 44 48.6569 44 47Z" fill="#0051FF"/>
</svg>
