<svg width="21" height="19" viewBox="0 0 21 19" fill="none" xmlns="http://www.w3.org/2000/svg">
<path d="M2.5 1C1.67157 1 1 1.67157 1 2.5V10.5C1 11.3284 1.67157 12 2.5 12H8C8.27614 12 8.5 12.2239 8.5 12.5C8.5 12.7761 8.27614 13 8 13H2.5C1.11929 13 0 11.8807 0 10.5V2.5C0 1.11929 1.11929 0 2.5 0H13.328C14.0115 0 14.6652 0.27983 15.137 0.774377L18.3618 4.15488C18.5524 4.35468 18.5449 4.67118 18.3451 4.86179C18.1453 5.05239 17.8288 5.04493 17.6382 4.84512L14.4134 1.46463C14.1303 1.1679 13.7381 1 13.328 1H2.5Z" fill="white"/>
<path d="M18.5666 5.98776C18.2373 5.86227 17.8853 5.8078 17.5335 5.82791C17.1817 5.84802 16.8382 5.94226 16.5254 6.10445C16.2207 6.26244 15.9519 6.48143 15.7356 6.74769L13.8727 8.65019C13.6796 8.84749 13.6829 9.16406 13.8802 9.35725C14.0775 9.55045 14.3941 9.54712 14.5873 9.34981L16.4673 7.42981C16.4794 7.41746 16.4908 7.40449 16.5015 7.39096C16.633 7.22541 16.798 7.08952 16.9857 6.9922C17.1734 6.89489 17.3795 6.83834 17.5906 6.82627C17.8016 6.81421 18.0129 6.84689 18.2104 6.92219C18.4079 6.99748 18.5873 7.11368 18.7368 7.26317C18.8863 7.41266 19.0025 7.59206 19.0778 7.7896C19.1531 7.98715 19.1858 8.19838 19.1737 8.40944C19.1617 8.62051 19.1051 8.82663 19.0078 9.01431C18.9105 9.20199 18.7746 9.36698 18.609 9.49846C18.5941 9.5103 18.5799 9.52298 18.5665 9.53644L15.7577 12.3452C15.4771 12.6217 15.0989 12.7766 14.705 12.7766C14.3106 12.7766 13.932 12.6213 13.6513 12.3442C13.4547 12.1502 13.1382 12.1522 12.9442 12.3487C12.7502 12.5453 12.7522 12.8618 12.9488 13.0558C13.4166 13.5177 14.0476 13.7766 14.705 13.7766C15.3624 13.7766 15.9934 13.5177 16.4613 13.0558L19.2545 10.2626C19.5198 10.0467 19.738 9.7785 19.8955 9.47463C20.0577 9.16184 20.152 8.81829 20.1721 8.46652C20.1922 8.11474 20.1377 7.76269 20.0122 7.43345C19.8868 7.10421 19.6931 6.80521 19.4439 6.55606C19.1948 6.30692 18.8958 6.11325 18.5666 5.98776Z" fill="white"/>
<path d="M13.295 10.2234C12.6376 10.2234 12.0066 10.4823 11.5387 10.9442L8.74553 13.7374C8.48024 13.9533 8.26201 14.2215 8.10445 14.5254C7.94226 14.8382 7.84802 15.1817 7.82791 15.5335C7.8078 15.8853 7.86227 16.2373 7.98776 16.5665C8.11325 16.8958 8.30692 17.1948 8.55606 17.4439C8.80521 17.6931 9.10421 17.8867 9.43345 18.0122C9.76269 18.1377 10.1147 18.1922 10.4665 18.1721C10.8183 18.152 11.1618 18.0577 11.4746 17.8955C11.7793 17.7376 12.0481 17.5186 12.2644 17.2523L14.1273 15.3498C14.3204 15.1525 14.3171 14.8359 14.1198 14.6427C13.9225 14.4495 13.6059 14.4529 13.4127 14.6502L11.5327 16.5702C11.5207 16.5825 11.5092 16.5955 11.4985 16.609C11.367 16.7746 11.202 16.9105 11.0143 17.0078C10.8266 17.1051 10.6205 17.1617 10.4094 17.1737C10.1984 17.1858 9.98715 17.1531 9.7896 17.0778C9.59206 17.0025 9.41266 16.8863 9.26317 16.7368C9.11368 16.5873 8.99748 16.4079 8.92219 16.2104C8.84689 16.0128 8.81421 15.8016 8.82627 15.5906C8.83834 15.3795 8.89489 15.1734 8.9922 14.9857C9.08952 14.798 9.22541 14.633 9.39096 14.5015C9.40587 14.4897 9.42009 14.477 9.43355 14.4636L12.2423 11.6548C12.5229 11.3783 12.9011 11.2234 13.295 11.2234C13.6894 11.2234 14.068 11.3787 14.3487 11.6558C14.5453 11.8498 14.8618 11.8478 15.0558 11.6512C15.2498 11.4547 15.2478 11.1381 15.0512 10.9442C14.5834 10.4823 13.9524 10.2234 13.295 10.2234Z" fill="white"/>
<path d="M3 9C2.72386 9 2.5 9.22386 2.5 9.5C2.5 9.77614 2.72386 10 3 10H11C11.2761 10 11.5 9.77614 11.5 9.5C11.5 9.22386 11.2761 9 11 9H3Z" fill="white"/>
<path d="M2.5 7.5C2.5 7.22386 2.72386 7 3 7H13C13.2761 7 13.5 7.22386 13.5 7.5C13.5 7.77614 13.2761 8 13 8H3C2.72386 8 2.5 7.77614 2.5 7.5Z" fill="white"/>
<path d="M6 4C6 4.82843 5.32843 5.5 4.5 5.5C3.67157 5.5 3 4.82843 3 4C3 3.17157 3.67157 2.5 4.5 2.5C5.32843 2.5 6 3.17157 6 4Z" fill="white"/>
</svg>
