<svg width="16" height="16" viewBox="0 0 16 16" fill="none" xmlns="http://www.w3.org/2000/svg">
<path d="M12.667 6.66667H10.0003V7.33333H12.667V6.66667Z" fill="#F2F6FF"/>
<path d="M10.0003 8H12.667V8.66667H10.0003V8Z" fill="#F2F6FF"/>
<path d="M12.667 9.33333H10.0003V10H12.667V9.33333Z" fill="#F2F6FF"/>
<path d="M4.00033 3.33333H3.33366L3.33366 4H4.00033V3.33333Z" fill="#F2F6FF"/>
<path d="M4.66699 3.33333H5.33366V4H4.66699V3.33333Z" fill="#F2F6FF"/>
<path d="M6.66699 3.33333H6.00033V4H6.66699V3.33333Z" fill="#F2F6FF"/>
<path d="M7.33366 3.33333H8.00033V4H7.33366V3.33333Z" fill="#F2F6FF"/>
<path d="M4.00033 4.66667H3.33366V5.33333H4.00033V4.66667Z" fill="#F2F6FF"/>
<path d="M4.66699 4.66667L5.33366 4.66667L5.33366 5.33333L4.66699 5.33333L4.66699 4.66667Z" fill="#F2F6FF"/>
<path d="M6.66699 4.66667H6.00033L6.00033 5.33333H6.66699L6.66699 4.66667Z" fill="#F2F6FF"/>
<path d="M7.33366 4.66667L8.00033 4.66667V5.33333L7.33366 5.33333L7.33366 4.66667Z" fill="#F2F6FF"/>
<path d="M4.00033 6H3.33366L3.33366 6.66667L4.00033 6.66667L4.00033 6Z" fill="#F2F6FF"/>
<path d="M4.66699 6L5.33366 6V6.66667H4.66699V6Z" fill="#F2F6FF"/>
<path d="M6.66699 6H6.00033V6.66667H6.66699V6Z" fill="#F2F6FF"/>
<path d="M7.33366 6L8.00033 6V6.66667H7.33366V6Z" fill="#F2F6FF"/>
<path d="M4.00033 7.33333L3.33366 7.33333V8L4.00033 8V7.33333Z" fill="#F2F6FF"/>
<path d="M4.66699 7.33333H5.33366V8H4.66699V7.33333Z" fill="#F2F6FF"/>
<path d="M6.66699 7.33333H6.00033V8H6.66699V7.33333Z" fill="#F2F6FF"/>
<path d="M7.33366 7.33333H8.00033V8H7.33366V7.33333Z" fill="#F2F6FF"/>
<path d="M4.00033 8.66667H3.33366L3.33366 9.33333H4.00033L4.00033 8.66667Z" fill="#F2F6FF"/>
<path d="M4.66699 8.66667H5.33366V9.33333H4.66699V8.66667Z" fill="#F2F6FF"/>
<path d="M6.66699 8.66667H6.00033V9.33333H6.66699V8.66667Z" fill="#F2F6FF"/>
<path d="M7.33366 8.66667H8.00033V9.33333H7.33366V8.66667Z" fill="#F2F6FF"/>
<path d="M4.00033 10H3.33366V10.6667H4.00033V10Z" fill="#F2F6FF"/>
<path d="M4.66699 10H5.33366L5.33366 10.6667H4.66699L4.66699 10Z" fill="#F2F6FF"/>
<path d="M6.66699 10H6.00033L6.00033 10.6667L6.66699 10.6667L6.66699 10Z" fill="#F2F6FF"/>
<path d="M7.33366 10H8.00033L8.00033 10.6667H7.33366L7.33366 10Z" fill="#F2F6FF"/>
<path fill-rule="evenodd" clip-rule="evenodd" d="M2.33366 2C2.14956 2 2.00033 2.14924 2.00033 2.33333L2.00033 13.3333H1.00033C0.816231 13.3333 0.666992 13.4826 0.666992 13.6667C0.666992 13.8508 0.816231 14 1.00033 14L15.0003 14C15.1844 14 15.3337 13.8508 15.3337 13.6667C15.3337 13.4826 15.1844 13.3333 15.0003 13.3333H14.0003L14.0003 6.33333C14.0003 6.06812 13.895 5.81376 13.7074 5.62623C13.5199 5.43869 13.2655 5.33333 13.0003 5.33333H9.33366V2.33333C9.33366 2.14924 9.18442 2 9.00033 2L2.33366 2ZM13.236 6.09763C13.2985 6.16014 13.3337 6.24493 13.3337 6.33333L13.3337 13.3333H9.33366L9.33366 6H13.0003C13.0887 6 13.1735 6.03512 13.236 6.09763ZM8.66699 13.3333L2.66699 13.3333L2.66699 2.66667L8.66699 2.66667L8.66699 13.3333Z" fill="#F2F6FF"/>
</svg>
