<svg width="64" height="64" viewBox="0 0 64 64" fill="none" xmlns="http://www.w3.org/2000/svg">
<path d="M20 13.333C19.2636 13.333 18.6667 13.93 18.6667 14.6663C18.6667 15.4027 19.2636 15.9997 20 15.9997H44C44.7364 15.9997 45.3333 15.4027 45.3333 14.6663C45.3333 13.93 44.7364 13.333 44 13.333H20Z" fill="#0051FF"/>
<path d="M20 18.6663C19.2636 18.6663 18.6667 19.2633 18.6667 19.9997C18.6667 20.7361 19.2636 21.333 20 21.333H44C44.7364 21.333 45.3333 20.7361 45.3333 19.9997C45.3333 19.2633 44.7364 18.6663 44 18.6663H20Z" fill="#0051FF"/>
<path d="M20 29.333C19.2636 29.333 18.6667 29.93 18.6667 30.6663C18.6667 31.4027 19.2636 31.9997 20 31.9997H36C36.7364 31.9997 37.3333 31.4027 37.3333 30.6663C37.3333 29.93 36.7364 29.333 36 29.333H20Z" fill="#0051FF"/>
<path d="M24 50.6663C26.9455 50.6663 29.3333 48.2785 29.3333 45.333C29.3333 42.3875 26.9455 39.9997 24 39.9997C21.0545 39.9997 18.6667 42.3875 18.6667 45.333C18.6667 48.2785 21.0545 50.6663 24 50.6663Z" fill="#0051FF"/>
<path d="M20 23.9997C19.2636 23.9997 18.6667 24.5966 18.6667 25.333C18.6667 26.0694 19.2636 26.6663 20 26.6663H44C44.7364 26.6663 45.3333 26.0694 45.3333 25.333C45.3333 24.5966 44.7364 23.9997 44 23.9997H20Z" fill="#0051FF"/>
<path fill-rule="evenodd" clip-rule="evenodd" d="M13.3333 9.33301C13.3333 7.12387 15.1242 5.33301 17.3333 5.33301H46.6667C48.8758 5.33301 50.6667 7.12387 50.6667 9.33301V54.6663C50.6667 56.8755 48.8758 58.6663 46.6667 58.6663H17.3333C15.1242 58.6663 13.3333 56.8755 13.3333 54.6663V9.33301ZM17.3333 7.99967C16.5969 7.99967 16 8.59663 16 9.33301V54.6663C16 55.4027 16.5969 55.9997 17.3333 55.9997H46.6667C47.403 55.9997 48 55.4027 48 54.6663V9.33301C48 8.59663 47.403 7.99967 46.6667 7.99967H17.3333Z" fill="#0051FF"/>
</svg>
