<svg width="64" height="64" viewBox="0 0 64 64" fill="none" xmlns="http://www.w3.org/2000/svg">
<path fill-rule="evenodd" clip-rule="evenodd" d="M5.33331 32.0002C5.33331 17.2726 17.2724 5.3335 32 5.3335C46.7276 5.3335 58.6666 17.2726 58.6666 32.0002C58.6666 46.7278 46.7276 58.6668 32 58.6668C17.2724 58.6668 5.33331 46.7278 5.33331 32.0002ZM32 8.00016C18.7451 8.00016 7.99998 18.7453 7.99998 32.0002C7.99998 37.969 10.1789 43.4289 13.7847 47.6279C14.6216 44.4174 16.3688 41.4926 18.8451 39.2227C20.8422 37.3919 23.2225 36.0707 25.7848 35.3367C23.0892 33.4008 21.3333 30.2389 21.3333 26.6668C21.3333 20.7758 26.1089 16.0002 32 16.0002C37.891 16.0002 42.6666 20.7758 42.6666 26.6668C42.6666 30.2524 40.8975 33.4248 38.1844 35.3587C40.7178 36.0969 43.0708 37.4101 45.0482 39.2227C47.5489 41.515 49.3061 44.4752 50.1331 47.7231C53.7879 43.5116 56 38.0142 56 32.0002C56 18.7453 45.2548 8.00016 32 8.00016ZM31.962 37.3334L32 37.3335L32.0379 37.3334H33.28L33.2846 37.3334C36.9717 37.3206 40.5283 38.697 43.2462 41.1884C45.7733 43.5049 47.403 46.6273 47.8664 50.0077C43.6366 53.7374 38.0825 56.0002 32 56.0002C25.8718 56.0002 20.2801 53.7033 16.0387 49.9236C16.5174 46.5755 18.1409 43.4857 20.647 41.1884C23.365 38.697 26.9216 37.3206 30.6087 37.3334L30.6133 37.3334H31.962ZM32.0329 34.6668C36.436 34.649 40 31.0741 40 26.6668C40 22.2485 36.4183 18.6668 32 18.6668C27.5817 18.6668 24 22.2485 24 26.6668C24 31.0741 27.5639 34.649 31.9671 34.6668H32.0329Z" fill="#0051FF"/>
</svg>
