<svg width="64" height="64" viewBox="0 0 64 64" fill="none" xmlns="http://www.w3.org/2000/svg">
<path d="M12.6193 12.6191C13.8695 11.3689 15.5652 10.6665 17.3333 10.6665H30.6667C31.4031 10.6665 32 11.2635 32 11.9998C32 12.7362 31.4031 13.3332 30.6667 13.3332H17.3333C16.2725 13.3332 15.2551 13.7546 14.5049 14.5047C13.7548 15.2549 13.3333 16.2723 13.3333 17.3332V46.6665C13.3333 47.7274 13.7548 48.7448 14.5049 49.4949C15.2551 50.2451 16.2725 50.6665 17.3333 50.6665H46.6667C47.7275 50.6665 48.745 50.2451 49.4951 49.4949C50.2452 48.7448 50.6667 47.7274 50.6667 46.6665V33.3332C50.6667 32.5968 51.2636 31.9998 52 31.9998C52.7364 31.9998 53.3333 32.5968 53.3333 33.3332V46.6665C53.3333 48.4346 52.631 50.1303 51.3807 51.3805C50.1305 52.6308 48.4348 53.3332 46.6667 53.3332H17.3333C15.5652 53.3332 13.8695 52.6308 12.6193 51.3805C11.369 50.1303 10.6667 48.4346 10.6667 46.6665V17.3332C10.6667 15.5651 11.369 13.8694 12.6193 12.6191Z" fill="#0051FF"/>
<path d="M40 11.9998C40 11.2635 40.597 10.6665 41.3333 10.6665H53.3333V22.6665C53.3333 23.4029 52.7364 23.9998 52 23.9998C51.2636 23.9998 50.6667 23.4029 50.6667 22.6665V15.2188L31.6095 34.276C31.0888 34.7967 30.2446 34.7967 29.7239 34.276C29.2032 33.7553 29.2032 32.9111 29.7239 32.3904L48.7811 13.3332H41.3333C40.597 13.3332 40 12.7362 40 11.9998Z" fill="#0051FF"/>
</svg>
