<svg width="29" height="29" viewBox="0 0 29 29" fill="none" xmlns="http://www.w3.org/2000/svg">
<path fill-rule="evenodd" clip-rule="evenodd" d="M6.60156 6C4.94471 6 3.60156 7.34315 3.60156 9V19.8C3.60156 21.4569 4.94471 22.8 6.60156 22.8H22.2016C23.8584 22.8 25.2016 21.4569 25.2016 19.8V9C25.2016 7.34315 23.8584 6 22.2016 6H6.60156ZM24.0016 9C24.0016 8.00589 23.1957 7.2 22.2016 7.2H6.60156C5.60745 7.2 4.80156 8.00589 4.80156 9C4.80156 9.55754 5.07244 10.0803 5.52793 10.4018L14.0556 16.4213C14.263 16.5678 14.5401 16.5678 14.7476 16.4213L23.2752 10.4018C23.7307 10.0803 24.0016 9.55754 24.0016 9ZM4.80156 11.3576L4.83591 11.3822L13.3635 17.4017C13.9858 17.841 14.8173 17.841 15.4396 17.4017L23.9672 11.3822L24.0016 11.3576V19.8C24.0016 20.7941 23.1957 21.6 22.2016 21.6H6.60156C5.60745 21.6 4.80156 20.7941 4.80156 19.8V11.3576Z" fill="#0033AA"/>
</svg>
