<svg width="24" height="24" viewBox="0 0 24 24" fill="none" xmlns="http://www.w3.org/2000/svg">
<path fill-rule="evenodd" clip-rule="evenodd" d="M7.14646 6.14645C7.24023 6.05267 7.3674 6 7.5 6H20.5C20.6326 6 20.7598 6.05267 20.8535 6.14645C20.9473 6.24023 21 6.36741 21 6.5V15.5C21 15.6326 20.9473 15.7598 20.8535 15.8536C20.7598 15.9473 20.6326 16 20.5 16H10.5C10.2239 16 10 16.2239 10 16.5C10 16.7761 10.2239 17 10.5 17H11.99V18H10.48C10.2038 18 9.97998 18.2239 9.97998 18.5C9.97998 18.7761 10.2038 19 10.48 19H17.48C17.7561 19 17.98 18.7761 17.98 18.5C17.98 18.2239 17.7561 18 17.48 18H16V17H20.5C20.8978 17 21.2793 16.842 21.5606 16.5607C21.8419 16.2794 22 15.8978 22 15.5V6.5C22 6.10216 21.8419 5.72063 21.5606 5.43934C21.2793 5.15804 20.8978 5 20.5 5H7.5C7.10217 5 6.72065 5.15804 6.43935 5.43934C6.15806 5.72063 6 6.10216 6 6.5V7.5C6 7.77614 6.22386 8 6.5 8C6.77614 8 7 7.77614 7 7.5V6.5C7 6.36741 7.05268 6.24023 7.14646 6.14645ZM15 17H12.99V18H15V17Z" fill="#F2F6FF"/>
<path d="M6 18.5C6 18.7761 5.77614 19 5.5 19C5.22386 19 5 18.7761 5 18.5C5 18.2239 5.22386 18 5.5 18C5.77614 18 6 18.2239 6 18.5Z" fill="#F2F6FF"/>
<path fill-rule="evenodd" clip-rule="evenodd" d="M2 10.5C2 9.67157 2.67157 9 3.5 9H7.5C8.32843 9 9 9.67157 9 10.5V19.5C9 20.3284 8.32843 21 7.5 21H3.5C2.67157 21 2 20.3284 2 19.5V10.5ZM3.5 10C3.22386 10 3 10.2239 3 10.5V19.5C3 19.7761 3.22386 20 3.5 20H7.5C7.77614 20 8 19.7761 8 19.5V10.5C8 10.2239 7.77614 10 7.5 10H3.5Z" fill="#F2F6FF"/>
</svg>
