<svg width="16" height="16" viewBox="0 0 16 16" fill="none" xmlns="http://www.w3.org/2000/svg">
<path fill-rule="evenodd" clip-rule="evenodd" d="M12.3288 7.13476L12.4919 7.60297C12.5212 7.68701 12.5828 7.75585 12.6631 7.79417C12.7434 7.83249 12.8357 7.83711 12.9195 7.807L13.6771 7.5345L13.6784 7.53405C13.8236 7.48288 13.9573 7.40364 14.0718 7.30084C14.1868 7.19774 14.2802 7.07298 14.3468 6.9337C14.4134 6.79442 14.4519 6.64336 14.46 6.48918C14.4666 6.365 14.4533 6.24075 14.4209 6.12107C14.7255 5.38161 14.7481 4.55428 14.4815 3.79717C14.2215 3.04027 13.6889 2.40905 12.99 2.02502C12.8781 1.77249 12.6788 1.56757 12.4273 1.44905C12.1514 1.31901 11.8352 1.30355 11.548 1.40605L10.779 1.68689C10.6079 1.74938 10.5186 1.93763 10.5786 2.10964L10.7419 2.57875L4.89364 4.68637L4.88788 4.68856C4.39391 4.87698 3.99238 5.24981 3.76792 5.72847C3.72273 5.82484 3.68542 5.92398 3.65606 6.02496C3.63729 6.02823 3.61871 6.03313 3.60053 6.03967L2.84161 6.31261C2.69644 6.36379 2.56275 6.44303 2.44816 6.54583C2.33324 6.64892 2.2398 6.77369 2.17318 6.91297C2.10657 7.05225 2.0681 7.2033 2.05998 7.35748C2.05789 7.39716 2.05783 7.43689 2.05978 7.4765L1.55319 7.65992C1.38168 7.72202 1.29194 7.91044 1.3518 8.08274L1.62514 8.86941C1.6544 8.95363 1.71618 9.02261 1.79667 9.06095C1.87716 9.09929 1.96966 9.10378 2.05349 9.07343L2.56151 8.88949C2.58198 8.9169 2.60367 8.94345 2.62653 8.96905C2.73053 9.08557 2.85662 9.18027 2.9975 9.24769C3.13837 9.3151 3.29123 9.35388 3.44721 9.36177C3.60318 9.36966 3.75918 9.34653 3.90614 9.29368L4.64884 9.01935C4.67008 9.01151 4.69005 9.00172 4.70862 8.99027C4.79487 9.04933 4.88577 9.10174 4.98056 9.14693C5.22004 9.26111 5.47966 9.32699 5.74461 9.34082C5.92825 9.35041 6.11195 9.33485 6.29068 9.29489C6.6161 9.45846 6.97016 9.55857 7.33391 9.58935C7.58601 9.61069 7.83911 9.59843 8.08668 9.55342V11.6335L4.84651 14.0668C4.6993 14.1774 4.66959 14.3863 4.78014 14.5335C4.89069 14.6807 5.09964 14.7104 5.24685 14.5999L8.08668 12.4672V14.3333C8.08668 14.5174 8.23591 14.6667 8.42001 14.6667C8.6041 14.6667 8.75334 14.5174 8.75334 14.3333V12.4664L11.6001 14.6001C11.7474 14.7105 11.9563 14.6806 12.0667 14.5332C12.1771 14.3859 12.1472 14.177 11.9999 14.0666L8.75334 11.6333V9.34558C9.0573 9.20815 9.33543 9.01836 9.57476 8.78431C9.83205 8.5327 10.0392 8.23513 10.1858 7.90746L12.3288 7.13476ZM11.773 2.03358L11.3161 2.20045L11.4694 2.64039C11.4739 2.65017 11.4779 2.66019 11.4815 2.67044L12.8482 6.59711C12.8504 6.60362 12.8525 6.61015 12.8543 6.61669L13.0107 7.06571L13.4562 6.90549C13.5191 6.8834 13.577 6.84912 13.6267 6.8046C13.6763 6.76008 13.7166 6.7062 13.7454 6.64606C13.7742 6.58592 13.7908 6.52069 13.7943 6.45411C13.7978 6.38753 13.7881 6.32092 13.7658 6.25809L13.7653 6.25655L12.3927 2.3252C12.3487 2.20488 12.259 2.10673 12.1431 2.05209C12.027 1.99737 11.894 1.99073 11.773 2.03358ZM6.238 8.62006L7.89665 8.02418L12.1095 6.50515L10.9612 3.20837L5.12274 5.3125C4.79145 5.43967 4.52221 5.69017 4.37151 6.01152C4.22059 6.33336 4.20034 6.70115 4.31499 7.03758L4.57421 7.77539C4.63356 7.9428 4.72541 8.09725 4.84427 8.22923C4.96322 8.36131 5.10702 8.46866 5.26747 8.54516C5.42791 8.62166 5.60185 8.6658 5.77936 8.67506C5.93443 8.68316 6.08956 8.6645 6.238 8.62006ZM2.75487 7.58394L2.99179 8.26579L3.02171 8.35105C3.04391 8.41526 3.07864 8.47443 3.12388 8.52511C3.16912 8.5758 3.22398 8.617 3.28526 8.64633C3.34655 8.67565 3.41304 8.69252 3.4809 8.69596C3.54834 8.69937 3.61578 8.68944 3.67937 8.66675L4.1109 8.50736L3.50935 6.78094L3.0638 6.94118C3.0009 6.96327 2.94297 6.99755 2.89335 7.04207C2.84372 7.08659 2.80337 7.14046 2.77461 7.20061C2.74584 7.26075 2.72923 7.32598 2.72572 7.39255C2.7228 7.44795 2.72901 7.50338 2.74401 7.55663C2.74802 7.56553 2.75164 7.57464 2.75487 7.58394ZM14.1667 3.90666L13.8514 4.01483C13.7546 3.73262 13.61 3.47243 13.4263 3.24429L13.9998 4.89314C14.0014 4.59761 13.9524 4.30134 13.8523 4.0175L14.1667 3.90666Z" fill="white"/>
</svg>
