<svg width="112" height="112" viewBox="0 0 112 112" fill="none" xmlns="http://www.w3.org/2000/svg">
<rect width="112" height="112" rx="56" fill="white"/>
<path fill-rule="evenodd" clip-rule="evenodd" d="M37.3346 33.3335C37.3346 32.5971 37.9316 32.0002 38.668 32.0002H58.668V40.8003C58.668 41.8312 59.5037 42.667 60.5346 42.667H69.3346V54.6668C69.3346 55.4032 69.9316 56.0002 70.668 56.0002C71.4044 56.0002 72.0013 55.4032 72.0013 54.6668V41.9191C72.0013 40.8207 71.5496 39.7707 70.7523 39.0153L61.6897 30.4297C60.9467 29.7258 59.9622 29.3335 58.9387 29.3335H38.668C36.4588 29.3335 34.668 31.1244 34.668 33.3335V76.0002C34.668 78.2093 36.4588 80.0002 38.668 80.0002H54.668C55.4044 80.0002 56.0013 79.4032 56.0013 78.6668C56.0013 77.9305 55.4044 77.3335 54.668 77.3335H38.668C37.9316 77.3335 37.3346 76.7365 37.3346 76.0002V33.3335ZM67.449 40.0003L61.3346 33.8859V40.0003H67.449Z" fill="#0051FF"/>
<path d="M41.3346 44.0002C41.3346 43.2638 41.9316 42.6668 42.668 42.6668H52.188C52.9244 42.6668 53.5213 43.2638 53.5213 44.0002C53.5213 44.7365 52.9244 45.3335 52.188 45.3335H42.668C41.9316 45.3335 41.3346 44.7365 41.3346 44.0002Z" fill="#0051FF"/>
<path d="M42.668 56.0002C41.9316 56.0002 41.3346 56.5971 41.3346 57.3335C41.3346 58.0699 41.9316 58.6668 42.668 58.6668H58.668C59.4043 58.6668 60.0013 58.0699 60.0013 57.3335C60.0013 56.5971 59.4043 56.0002 58.668 56.0002H42.668Z" fill="#0051FF"/>
<path d="M41.3346 50.6668C41.3346 49.9305 41.9316 49.3335 42.668 49.3335H62.6679C63.4043 49.3335 64.0012 49.9305 64.0012 50.6668C64.0012 51.4032 63.4043 52.0002 62.6679 52.0002H42.668C41.9316 52.0002 41.3346 51.4032 41.3346 50.6668Z" fill="#0051FF"/>
<path d="M75.6645 68.886C76.1538 68.3356 76.1042 67.4929 75.5538 67.0036C75.0034 66.5144 74.1607 66.564 73.6714 67.1144L67.5569 73.9932L64.9979 71.1144C64.5086 70.564 63.6659 70.5144 63.1155 71.0036C62.5651 71.4929 62.5155 72.3356 63.0048 72.886L66.5603 76.886C66.8134 77.1707 67.176 77.3335 67.5569 77.3335C67.9377 77.3335 68.3004 77.1707 68.5534 76.886L75.6645 68.886Z" fill="#0051FF"/>
<path fill-rule="evenodd" clip-rule="evenodd" d="M56.0013 72.0002C56.0013 64.6364 61.9708 58.6668 69.3346 58.6668C76.6984 58.6668 82.668 64.6364 82.668 72.0002C82.668 79.364 76.6984 85.3335 69.3346 85.3335C61.9708 85.3335 56.0013 79.364 56.0013 72.0002ZM69.3346 61.3335C63.4436 61.3335 58.668 66.1091 58.668 72.0002C58.668 77.8912 63.4436 82.6668 69.3346 82.6668C75.2257 82.6668 80.0013 77.8912 80.0013 72.0002C80.0013 66.1091 75.2257 61.3335 69.3346 61.3335Z" fill="#0051FF"/>
</svg>
