<svg width="29" height="29" viewBox="0 0 29 29" fill="none" xmlns="http://www.w3.org/2000/svg">
<path fill-rule="evenodd" clip-rule="evenodd" d="M8.40078 6.6C8.40078 6.26863 8.66941 6 9.00078 6H19.8008C20.1322 6 20.4008 6.26863 20.4008 6.6V10.8H22.2008C23.1949 10.8 24.0008 11.6059 24.0008 12.6V19.8C24.0008 20.1314 23.7322 20.4 23.4008 20.4H21.6008C21.2694 20.4 21.0008 20.1314 21.0008 19.8C21.0008 19.4686 21.2694 19.2 21.6008 19.2H22.8008V12.6C22.8008 12.2686 22.5322 12 22.2008 12H6.60078C6.26941 12 6.00078 12.2686 6.00078 12.6V19.2H7.20078C7.53215 19.2 7.80078 19.4686 7.80078 19.8C7.80078 20.1314 7.53215 20.4 7.20078 20.4H5.40078C5.06941 20.4 4.80078 20.1314 4.80078 19.8V12.6C4.80078 11.6059 5.60667 10.8 6.60078 10.8H8.40078V6.6ZM19.2008 7.2V10.8H9.60078V7.2H19.2008Z" fill="#0033AA"/>
<path d="M10.8008 18.564C10.8008 18.2326 11.0694 17.964 11.4008 17.964H17.4008C17.7322 17.964 18.0008 18.2326 18.0008 18.564C18.0008 18.8953 17.7322 19.164 17.4008 19.164H11.4008C11.0694 19.164 10.8008 18.8953 10.8008 18.564Z" fill="#0033AA"/>
<path d="M10.8008 20.964C10.8008 20.6326 11.0694 20.364 11.4008 20.364H17.4008C17.7322 20.364 18.0008 20.6326 18.0008 20.964C18.0008 21.2953 17.7322 21.564 17.4008 21.564H11.4008C11.0694 21.564 10.8008 21.2953 10.8008 20.964Z" fill="#0033AA"/>
<path fill-rule="evenodd" clip-rule="evenodd" d="M7.20078 16.2C7.20078 16.5314 7.46941 16.8 7.80078 16.8H8.40078V23.4C8.40078 23.7314 8.66941 24 9.00078 24H19.8008C20.1322 24 20.4008 23.7314 20.4008 23.4V16.8H21.0008C21.3322 16.8 21.6008 16.5314 21.6008 16.2C21.6008 15.8686 21.3322 15.6 21.0008 15.6H7.80078C7.46941 15.6 7.20078 15.8686 7.20078 16.2ZM9.60078 16.8H19.2008V22.8H9.60078V16.8Z" fill="#0033AA"/>
<path d="M8.40078 13.8C8.40078 14.1314 8.13215 14.4 7.80078 14.4C7.46941 14.4 7.20078 14.1314 7.20078 13.8C7.20078 13.4686 7.46941 13.2 7.80078 13.2C8.13215 13.2 8.40078 13.4686 8.40078 13.8Z" fill="#0033AA"/>
</svg>
