<svg width="48" height="48" viewBox="0 0 48 48" fill="none" xmlns="http://www.w3.org/2000/svg">
<rect x="1" y="1" width="46" height="46" rx="23" fill="#BFDCFC" stroke="#0051FF" stroke-width="2"/>
<path d="M20.4023 29.6828C20.4023 29.3647 20.671 29.1068 21.0023 29.1068H29.4023C29.7337 29.1068 30.0023 29.3647 30.0023 29.6828C30.0023 30.001 29.7337 30.2588 29.4023 30.2588H21.0023C20.671 30.2588 20.4023 30.001 20.4023 29.6828Z" fill="#0051FF"/>
<path fill-rule="evenodd" clip-rule="evenodd" d="M27.2499 20.3452C27.8003 20.5961 28.3014 20.9656 28.7214 21.4336C29.5493 22.3562 30.0023 23.5912 30.0023 24.8643V25.0803C30.0023 25.5323 29.842 25.9799 29.5352 26.3218C29.2259 26.6663 28.7857 26.8803 28.3039 26.8803H22.1008C21.619 26.8803 21.1787 26.6663 20.8695 26.3218C20.5627 25.9799 20.4023 25.5323 20.4023 25.0803V24.8643C20.4023 23.5912 20.8554 22.3562 21.6833 21.4336C22.1033 20.9656 22.6044 20.5961 23.1548 20.3452C22.5687 19.8196 22.2023 19.071 22.2023 18.2403C22.2023 16.6497 23.5455 15.3603 25.2023 15.3603C26.8592 15.3603 28.2023 16.6497 28.2023 18.2403C28.2023 19.071 27.836 19.8196 27.2499 20.3452ZM24.8793 21.1203C24.0415 21.1203 23.2163 21.4904 22.5924 22.1856C21.9662 22.8834 21.6023 23.8459 21.6023 24.8643V25.0803C21.6023 25.2776 21.6735 25.4527 21.7786 25.5698C21.8814 25.6843 21.9999 25.7283 22.1008 25.7283H28.3039C28.4048 25.7283 28.5233 25.6843 28.626 25.5698C28.7312 25.4527 28.8023 25.2776 28.8023 25.0803V24.8643C28.8023 23.8459 28.4385 22.8834 27.8123 22.1856C27.1884 21.4904 26.3632 21.1203 25.5254 21.1203H24.8793ZM25.2023 19.9683C24.2082 19.9683 23.4023 19.1946 23.4023 18.2403C23.4023 17.2859 24.2082 16.5123 25.2023 16.5123C26.1965 16.5123 27.0023 17.2859 27.0023 18.2403C27.0023 19.1946 26.1965 19.9683 25.2023 19.9683Z" fill="#0051FF"/>
<path fill-rule="evenodd" clip-rule="evenodd" d="M15.0023 11.9043C14.671 11.9043 14.4023 12.1622 14.4023 12.4803V34.3683C14.4023 34.6864 14.671 34.9443 15.0023 34.9443H30.6023C32.2592 34.9443 33.6023 33.6549 33.6023 32.0643V14.7843C33.6023 13.1937 32.2592 11.9043 30.6023 11.9043H15.0023ZM32.4023 14.7843C32.4023 13.8299 31.5965 13.0563 30.6023 13.0563H18.6023V33.7923H30.6023C31.5965 33.7923 32.4023 33.0186 32.4023 32.0643V14.7843ZM15.6023 33.7923V13.0563H17.4023V33.7923H15.6023Z" fill="#0051FF"/>
</svg>
