<svg width="34" height="34" viewBox="0 0 34 34" fill="none" xmlns="http://www.w3.org/2000/svg">
<path fill-rule="evenodd" clip-rule="evenodd" d="M9.61344 7.04993C9.40939 7.04433 9.20764 7.09447 9.02986 7.19499C8.85207 7.29552 8.70494 7.44265 8.60431 7.62064C8.50369 7.79864 8.45339 8.00075 8.45888 8.20526L8.45938 8.22414L8.45913 25.6561L8.45912 25.6583C8.45849 25.8563 8.51003 26.0509 8.6085 26.2226C8.70697 26.3942 8.84888 26.5367 9.01986 26.6359C9.19085 26.7351 9.38489 26.7873 9.58243 26.7875C9.77857 26.7876 9.97133 26.7364 10.1416 26.6389L24.7842 17.9116L25.1451 18.5171L24.8009 17.9019C24.9717 17.8064 25.1147 17.6678 25.2157 17.4999C25.3167 17.332 25.3721 17.1405 25.3765 16.9445C25.3808 16.7485 25.334 16.5548 25.2406 16.3825C25.1481 16.2118 25.013 16.068 24.8487 15.9651L10.2074 7.23856L10.1882 7.22674C10.0162 7.11663 9.81749 7.05552 9.61344 7.04993ZM25.4984 19.1272L10.8506 27.8576C10.4648 28.0805 10.0269 28.1977 9.58131 28.1973C9.13569 28.197 8.69808 28.0791 8.31259 27.8555C7.9271 27.632 7.60738 27.3107 7.38561 26.9242C7.16405 26.538 7.04806 26.1002 7.04927 25.655C7.04927 25.6546 7.04927 25.6554 7.04927 25.655V8.23282C7.04935 8.23622 7.04943 8.23963 7.04953 8.24303L7.7542 8.22414H7.04927V8.23282C7.03887 7.77598 7.15206 7.32471 7.377 6.92681C7.60362 6.52595 7.93512 6.19437 8.33595 5.96773C8.73678 5.74109 9.19177 5.62799 9.65206 5.6406C10.1083 5.6531 10.5526 5.78865 10.938 6.03278L25.5868 14.7638C25.9619 14.9962 26.2698 15.3226 26.4801 15.7106C26.6904 16.0986 26.7958 16.5347 26.786 16.9759C26.7761 17.4171 26.6514 17.8482 26.424 18.2264C26.1983 18.6016 25.8795 18.912 25.4984 19.1272Z" fill="white"/>
</svg>
