<svg width="11" height="11" viewBox="0 0 11 11" fill="none" xmlns="http://www.w3.org/2000/svg">
<path d="M0.488154 0.488155C0.800715 0.175594 1.22464 0 1.66667 0H5C5.1841 0 5.33333 0.149238 5.33333 0.333333C5.33333 0.517428 5.1841 0.666667 5 0.666667H1.66667C1.40145 0.666667 1.1471 0.772024 0.959559 0.95956C0.772023 1.1471 0.666667 1.40145 0.666667 1.66667V9C0.666667 9.26521 0.772023 9.51957 0.959559 9.7071C1.1471 9.89464 1.40145 10 1.66667 10H9C9.26522 10 9.51957 9.89464 9.70711 9.7071C9.89464 9.51957 10 9.26521 10 9V5.66667C10 5.48257 10.1492 5.33333 10.3333 5.33333C10.5174 5.33333 10.6667 5.48257 10.6667 5.66667V9C10.6667 9.44203 10.4911 9.86595 10.1785 10.1785C9.86595 10.4911 9.44203 10.6667 9 10.6667H1.66667C1.22464 10.6667 0.800715 10.4911 0.488154 10.1785C0.175593 9.86595 0 9.44203 0 9V1.66667C0 1.22464 0.175593 0.800716 0.488154 0.488155Z" fill="white"/>
<path d="M7.33333 0.333333C7.33333 0.149238 7.48257 0 7.66667 0H10.6667V3C10.6667 3.1841 10.5174 3.33333 10.3333 3.33333C10.1492 3.33333 10 3.1841 10 3V1.13807L5.2357 5.90237C5.10553 6.03254 4.89447 6.03254 4.7643 5.90237C4.63412 5.77219 4.63412 5.56114 4.7643 5.43096L9.52859 0.666667H7.66667C7.48257 0.666667 7.33333 0.517428 7.33333 0.333333Z" fill="white"/>
</svg>
