<svg width="112" height="112" viewBox="0 0 112 112" fill="none" xmlns="http://www.w3.org/2000/svg">
<rect width="112" height="112" rx="56" fill="white"/>
<path fill-rule="evenodd" clip-rule="evenodd" d="M29.332 56.0002C29.332 41.2726 41.2711 29.3335 55.9987 29.3335C70.7263 29.3335 82.6654 41.2726 82.6654 56.0002C82.6654 70.7278 70.7263 82.6668 55.9987 82.6668C41.2711 82.6668 29.332 70.7278 29.332 56.0002ZM55.9987 42.6668C57.4715 42.6668 58.6654 43.8607 58.6654 45.3335V56.0002C58.6654 57.4729 57.4715 58.6668 55.9987 58.6668C54.5259 58.6668 53.332 57.4729 53.332 56.0002V45.3335C53.332 43.8607 54.5259 42.6668 55.9987 42.6668ZM58.6654 66.6668C58.6654 68.1396 57.4715 69.3335 55.9987 69.3335C54.5259 69.3335 53.332 68.1396 53.332 66.6668C53.332 65.1941 54.5259 64.0002 55.9987 64.0002C57.4715 64.0002 58.6654 65.1941 58.6654 66.6668Z" fill="#FF8A00"/>
</svg>
