<svg width="64" height="64" viewBox="0 0 64 64" fill="none" xmlns="http://www.w3.org/2000/svg">
<path d="M32.8541 20.933C30.3709 20.933 28.848 22.1803 27.6778 23.7696L27.5999 23.8754V24.1688C27.5999 25.0011 28.4755 25.5427 29.2202 25.171L29.3112 25.1256L29.3694 25.0423C30.2001 23.8537 31.176 23.0699 32.7707 23.0699C33.6768 23.0699 34.3462 23.2983 34.7821 23.6635C35.2091 24.0213 35.4541 24.545 35.4541 25.2375C35.4541 25.9608 35.2923 26.4055 34.973 26.7916C34.6308 27.2051 34.0902 27.576 33.2492 28.1007C32.5677 28.511 31.9801 28.8931 31.5721 29.3855C31.1446 29.9014 30.9332 30.5117 30.9332 31.333V33.3338L30.9333 33.3367L30.9333 33.3414L30.9336 33.3538L30.9356 33.3902C30.9376 33.419 30.9416 33.4576 30.9491 33.5029C30.9639 33.5916 30.9942 33.716 31.0588 33.8452C31.1242 33.976 31.2286 34.119 31.3926 34.2283C31.5592 34.3394 31.7633 34.3997 31.9999 34.3997C32.2366 34.3997 32.4407 34.3394 32.6072 34.2283C32.7713 34.119 32.8756 33.976 32.941 33.8452C33.0056 33.716 33.0359 33.5916 33.0507 33.5029C33.0583 33.4576 33.0622 33.419 33.0643 33.3902L33.0662 33.3538L33.0665 33.3414L33.0666 33.3367L33.0666 33.333C33.0666 33.1014 33.065 32.8874 33.0635 32.691C33.0596 32.1637 33.0571 31.7735 33.0843 31.4532C33.1111 31.1389 33.1648 30.9205 33.2582 30.7363C33.4484 30.361 33.8483 30.0298 34.8709 29.4222C35.629 28.9718 36.3498 28.4794 36.877 27.8082C37.4147 27.1236 37.7332 26.2768 37.7332 25.1526C37.7332 23.9159 37.243 22.8489 36.3705 22.0964C35.5027 21.348 34.2839 20.933 32.8541 20.933Z" fill="#0051FF"/>
<path d="M31.9999 35.5997C31.2267 35.5997 30.5999 36.2265 30.5999 36.9997C30.5999 37.7729 31.2267 38.3997 31.9999 38.3997C32.7731 38.3997 33.3999 37.7729 33.3999 36.9997C33.3999 36.2265 32.7731 35.5997 31.9999 35.5997Z" fill="#0051FF"/>
<path fill-rule="evenodd" clip-rule="evenodd" d="M5.33331 29.333C5.33331 38.1696 12.4968 45.333 21.3333 45.333H24V49.333C24 49.7754 24.2194 50.1891 24.5858 50.4371C24.9522 50.6851 25.4177 50.7353 25.8285 50.571L38.9234 45.333H42.6666C51.5032 45.333 58.6666 38.1696 58.6666 29.333C58.6666 20.4965 51.5032 13.333 42.6666 13.333H21.3333C12.4968 13.333 5.33331 20.4965 5.33331 29.333ZM21.3333 15.9997C13.9695 15.9997 7.99998 21.9692 7.99998 29.333C7.99998 36.6968 13.9695 42.6663 21.3333 42.6663H25.3333C26.0697 42.6663 26.6666 43.2633 26.6666 43.9997V47.3636L38.1435 42.7729C38.227 42.7372 38.315 42.7098 38.4063 42.6917C38.5032 42.6723 38.6006 42.6641 38.6969 42.6663H42.6666C50.0304 42.6663 56 36.6968 56 29.333C56 21.9692 50.0304 15.9997 42.6666 15.9997H21.3333Z" fill="#0051FF"/>
</svg>
