<svg width="138" height="44" viewBox="0 0 138 44" fill="none" xmlns="http://www.w3.org/2000/svg">
<rect x="0.5" y="0.5" width="137" height="43" rx="9.5" fill="#222E37" stroke="#222E37"/>
<path d="M56.112 32.8547L54.8507 29.6137H49.7073L48.4787 32.8547H46.7588L51.378 21.2494H53.229L57.8483 32.8547H56.112ZM52.2626 22.919L50.2806 28.1242H54.2774L52.2626 22.919ZM60.7702 35.9647H59.2469V24.9814H60.7375V26.2091C60.9668 25.7944 61.3108 25.4561 61.7694 25.1942C62.2281 24.9323 62.7632 24.8014 63.3747 24.8014C64.5104 24.8014 65.3949 25.1888 66.0283 25.9635C66.6726 26.7383 66.9947 27.7204 66.9947 28.9099C66.9947 30.1102 66.6617 31.1032 65.9956 31.8889C65.3403 32.6746 64.4503 33.0674 63.3256 33.0674C62.7468 33.0674 62.2335 32.9474 61.7858 32.7073C61.3381 32.4673 60.9995 32.1617 60.7702 31.7907V35.9647ZM65.4222 28.9099C65.4222 28.1133 65.2093 27.4585 64.7834 26.9457C64.3684 26.4219 63.806 26.16 63.0962 26.16C62.3973 26.16 61.8295 26.4219 61.3927 26.9457C60.9668 27.4585 60.7538 28.1133 60.7538 28.9099C60.7538 29.7283 60.9668 30.3994 61.3927 30.9232C61.8295 31.4361 62.3973 31.6925 63.0962 31.6925C63.7951 31.6925 64.3575 31.4361 64.7834 30.9232C65.2093 30.3994 65.4222 29.7283 65.4222 28.9099ZM70.4801 35.9647H68.9567V24.9814H70.4473V26.2091C70.6767 25.7944 71.0206 25.4561 71.4793 25.1942C71.9379 24.9323 72.473 24.8014 73.0846 24.8014C74.2203 24.8014 75.1048 25.1888 75.7382 25.9635C76.3825 26.7383 76.7046 27.7204 76.7046 28.9099C76.7046 30.1102 76.3716 31.1032 75.7054 31.8889C75.0502 32.6746 74.1602 33.0674 73.0354 33.0674C72.4567 33.0674 71.9434 32.9474 71.4957 32.7073C71.0479 32.4673 70.7094 32.1617 70.4801 31.7907V35.9647ZM75.1321 28.9099C75.1321 28.1133 74.9192 27.4585 74.4933 26.9457C74.0783 26.4219 73.5159 26.16 72.8061 26.16C72.1072 26.16 71.5394 26.4219 71.1025 26.9457C70.6767 27.4585 70.4637 28.1133 70.4637 28.9099C70.4637 29.7283 70.6767 30.3994 71.1025 30.9232C71.5394 31.4361 72.1072 31.6925 72.8061 31.6925C73.505 31.6925 74.0674 31.4361 74.4933 30.9232C74.9192 30.3994 75.1321 29.7283 75.1321 28.9099ZM90.3297 23.8848L88.8882 24.3922C88.8118 23.8902 88.5661 23.4373 88.1511 23.0336C87.7362 22.6189 87.1628 22.4116 86.4312 22.4116C85.7869 22.4116 85.2518 22.5971 84.8259 22.9681C84.3996 23.3391 84.1867 23.7975 84.1867 24.3431C84.1867 24.7686 84.3123 25.1288 84.5634 25.4234C84.8259 25.718 85.1972 25.9199 85.6777 26.029L87.414 26.4055C88.375 26.6128 89.1176 27.0057 89.6417 27.584C90.1659 28.1515 90.428 28.8444 90.428 29.6628C90.428 30.6013 90.0567 31.4088 89.3141 32.0853C88.5716 32.7619 87.6051 33.1002 86.4148 33.1002C85.1153 33.1002 84.0939 32.7619 83.3513 32.0853C82.6196 31.3979 82.1938 30.5849 82.0736 29.6464L83.6134 29.1554C83.6789 29.8538 83.9519 30.443 84.4324 30.9232C84.9133 31.4033 85.5685 31.6434 86.3984 31.6434C87.1628 31.6434 87.7525 31.4688 88.1675 31.1196C88.5825 30.7704 88.79 30.3285 88.79 29.7938C88.79 29.3573 88.6425 28.9808 88.3477 28.6643C88.0528 28.337 87.6215 28.1133 87.0536 27.9932L85.3992 27.6331C84.5361 27.4476 83.8482 27.0821 83.3349 26.5364C82.8217 25.9908 82.565 25.2979 82.565 24.4576C82.565 23.541 82.9363 22.739 83.6789 22.0515C84.4324 21.3531 85.3392 21.0039 86.3984 21.0039C87.5887 21.0039 88.5006 21.2931 89.134 21.8714C89.7673 22.4498 90.1659 23.1209 90.3297 23.8848ZM94.3757 22.4934V24.9814H96.0792V26.3728H94.3757V30.4649C94.3757 30.8359 94.4576 31.1087 94.6214 31.2833C94.7961 31.4579 95.08 31.5452 95.4731 31.5452C95.7025 31.5452 95.9045 31.5234 96.0792 31.4797V32.7892C95.8171 32.8874 95.4677 32.9365 95.0309 32.9365C94.3538 32.9365 93.8187 32.7401 93.4256 32.3472C93.0325 31.9544 92.8359 31.4033 92.8359 30.694V26.3728H91.3289V24.9814H91.7548C92.1589 24.9814 92.4592 24.8723 92.6557 24.6541C92.8632 24.4249 92.9669 24.1303 92.9669 23.7702V22.4934H94.3757ZM99.6759 30.9887C100.156 31.4797 100.741 31.7252 101.429 31.7252C102.117 31.7252 102.695 31.4797 103.165 30.9887C103.645 30.4867 103.886 29.7938 103.886 28.9099C103.886 28.0369 103.645 27.3549 103.165 26.8638C102.695 26.3618 102.117 26.1109 101.429 26.1109C100.741 26.1109 100.156 26.3618 99.6759 26.8638C99.2063 27.3549 98.9715 28.0369 98.9715 28.9099C98.9715 29.7938 99.2063 30.4867 99.6759 30.9887ZM98.5292 25.9308C99.2937 25.1342 100.26 24.7359 101.429 24.7359C102.597 24.7359 103.558 25.1342 104.312 25.9308C105.076 26.7165 105.458 27.7095 105.458 28.9099C105.458 30.1211 105.081 31.1251 104.328 31.9217C103.574 32.7073 102.608 33.1002 101.429 33.1002C100.249 33.1002 99.2827 32.7073 98.5292 31.9217C97.7757 31.1251 97.399 30.1211 97.399 28.9099C97.399 27.7095 97.7757 26.7165 98.5292 25.9308ZM111.802 24.8996V26.5364C111.573 26.5037 111.349 26.4873 111.13 26.4873C109.689 26.4873 108.968 27.2948 108.968 28.9099V32.8547H107.428V24.9814H108.935V26.3564C109.416 25.3525 110.202 24.8505 111.294 24.8505C111.469 24.8505 111.638 24.8669 111.802 24.8996ZM114.362 28.1078H118.67C118.648 27.5185 118.452 27.0384 118.08 26.6674C117.709 26.2855 117.185 26.0945 116.508 26.0945C115.896 26.0945 115.394 26.2964 115.001 26.7001C114.608 27.093 114.395 27.5622 114.362 28.1078ZM118.899 30.1539L120.226 30.6122C119.997 31.3433 119.571 31.9435 118.949 32.4127C118.326 32.871 117.573 33.1002 116.688 33.1002C115.585 33.1002 114.646 32.7237 113.871 31.9708C113.106 31.2069 112.724 30.1811 112.724 28.8935C112.724 27.6931 113.095 26.7001 113.838 25.9144C114.58 25.1288 115.465 24.7359 116.491 24.7359C117.682 24.7359 118.61 25.1124 119.276 25.8653C119.942 26.6074 120.275 27.6058 120.275 28.8608C120.275 29.0572 120.264 29.2209 120.243 29.3518H114.313C114.324 30.0502 114.553 30.6231 115.001 31.0705C115.459 31.5179 116.022 31.7416 116.688 31.7416C117.813 31.7416 118.55 31.2124 118.899 30.1539Z" fill="white"/>
<path opacity="0.6" d="M47.9617 14.1266V11.3018H48.6544C49.3782 11.3018 49.9773 11.757 49.9773 12.7173C49.9773 13.6776 49.372 14.1266 48.6481 14.1266H47.9617ZM48.6793 14.9247C49.9398 14.9247 50.8696 14.1141 50.8696 12.7173C50.8696 11.3206 49.9461 10.5037 48.6856 10.5037H47.1006V14.9247H48.6793ZM53.0264 12.7111C53.0264 11.7134 53.7253 11.2395 54.4055 11.2395C55.0919 11.2395 55.7908 11.7134 55.7908 12.7111C55.7908 13.7088 55.0919 14.1827 54.4055 14.1827C53.7253 14.1827 53.0264 13.7088 53.0264 12.7111ZM52.1341 12.7173C52.1341 14.139 53.2074 15.0183 54.4055 15.0183C55.6099 15.0183 56.6832 14.139 56.6832 12.7173C56.6832 11.2894 55.6099 10.4102 54.4055 10.4102C53.2074 10.4102 52.1341 11.2894 52.1341 12.7173ZM62.2132 13.5591L61.2272 10.5037H60.3349L59.3552 13.5467L58.544 10.5037H57.6329L58.8622 14.9247H59.7608L60.7717 11.7758L61.7826 14.9247H62.6687L63.8918 10.5037H63.0119L62.2132 13.5591ZM69.0295 14.9247V10.5037H68.1684V13.4282L66.3275 10.5037H65.2542V14.9247H66.1154V11.7882L68.1247 14.9247H69.0295ZM73.651 14.9247V14.1016H71.6791V10.5037H70.818V14.9247H73.651ZM75.5737 12.7111C75.5737 11.7134 76.2726 11.2395 76.9528 11.2395C77.6392 11.2395 78.3381 11.7134 78.3381 12.7111C78.3381 13.7088 77.6392 14.1827 76.9528 14.1827C76.2726 14.1827 75.5737 13.7088 75.5737 12.7111ZM74.6814 12.7173C74.6814 14.139 75.7547 15.0183 76.9528 15.0183C78.1572 15.0183 79.2305 14.139 79.2305 12.7173C79.2305 11.2894 78.1572 10.4102 76.9528 10.4102C75.7547 10.4102 74.6814 11.2894 74.6814 12.7173ZM83.5453 14.9247H84.4813L82.7965 10.5037H81.798L80.1007 14.9247H81.0118L81.38 13.9146H83.1771L83.5453 14.9247ZM82.2785 11.4577L82.8901 13.1289H81.667L82.2785 11.4577ZM86.688 14.1266V11.3018H87.3806C88.1045 11.3018 88.7035 11.757 88.7035 12.7173C88.7035 13.6776 88.0982 14.1266 87.3744 14.1266H86.688ZM87.4056 14.9247C88.6661 14.9247 89.5959 14.1141 89.5959 12.7173C89.5959 11.3206 88.6723 10.5037 87.4118 10.5037H85.8268V14.9247H87.4056ZM94.0747 12.7111C94.0747 11.7134 94.7736 11.2395 95.4538 11.2395C96.1402 11.2395 96.8391 11.7134 96.8391 12.7111C96.8391 13.7088 96.1402 14.1827 95.4538 14.1827C94.7736 14.1827 94.0747 13.7088 94.0747 12.7111ZM93.1824 12.7173C93.1824 14.139 94.2557 15.0183 95.4538 15.0183C96.6581 15.0183 97.7314 14.139 97.7314 12.7173C97.7314 11.2894 96.6581 10.4102 95.4538 10.4102C94.2557 10.4102 93.1824 11.2894 93.1824 12.7173ZM103.033 14.9247V10.5037H102.172V13.4282L100.331 10.5037H99.2579V14.9247H100.119V11.7882L102.128 14.9247H103.033ZM110.401 11.3206V10.5037H106.738V11.3206H108.136V14.9247H109.003V11.3206H110.401ZM115.444 14.9247V10.5037H114.577V12.2808H112.648V10.5037H111.787V14.9247H112.648V13.0915H114.577V14.9247H115.444ZM120.006 14.9247V14.1141H118.096V13.0915H119.825V12.3245H118.096V11.3143H120.006V10.5037H117.235V14.9247H120.006Z" fill="white"/>
<path d="M36.3561 28.1915C35.8495 29.3124 35.6077 29.8127 34.9555 30.8031C34.0467 32.1862 32.7646 33.9087 31.1757 33.9233C29.7645 33.9365 29.4018 33.0055 27.4858 33.0167C25.5699 33.028 25.1706 33.9399 23.7593 33.9268C22.1705 33.9126 20.9566 32.3571 20.0469 30.9731C17.504 27.1051 17.2383 22.5663 18.8066 20.1534C19.9211 18.4376 21.6801 17.4351 23.3332 17.4351C25.0166 17.4351 26.075 18.3572 27.4673 18.3572C28.8177 18.3572 29.6401 17.4336 31.5867 17.4336C33.0581 17.4336 34.6171 18.234 35.7282 19.617C32.0879 21.61 32.6798 26.8026 36.3561 28.1915Z" fill="white"/>
<path d="M30.3153 15.0115C31.0226 14.1043 31.5588 12.8246 31.3638 11.5156C30.2085 11.5946 28.858 12.3292 28.0693 13.2865C27.3532 14.1551 26.7617 15.4436 26.9919 16.696C28.2521 16.7355 29.5572 15.9828 30.3153 15.0115Z" fill="white"/>
</svg>
