<svg width="138" height="44" viewBox="0 0 138 44" fill="none" xmlns="http://www.w3.org/2000/svg">
<rect x="0.5" y="0.5" width="137" height="43" rx="9.5" fill="#222E37" stroke="#222E37"/>
<path d="M51.323 30.4279H50.1119L49.9739 28.8964C49.7081 29.3763 49.2737 29.7898 48.6707 30.1369C48.0677 30.4841 47.342 30.6576 46.4937 30.6576C45.5636 30.6576 44.705 30.4483 43.918 30.0297C43.131 29.6009 42.482 28.9475 41.971 28.0694C41.4701 27.1913 41.2197 26.1652 41.2197 24.9911C41.2197 23.8169 41.4855 22.7908 42.017 21.9128C42.5484 21.0347 43.2128 20.3864 44.01 19.9678C44.8175 19.5491 45.6811 19.3398 46.601 19.3398C47.7662 19.3398 48.778 19.641 49.6366 20.2434C50.5054 20.8356 51.0982 21.6269 51.415 22.6173L50.0505 23.1992C49.8052 22.4131 49.376 21.8056 48.7627 21.3767C48.1597 20.9377 47.4391 20.7182 46.601 20.7182C45.5483 20.7182 44.6437 21.0909 43.8874 21.8362C43.131 22.5815 42.7529 23.6332 42.7529 24.9911C42.7529 26.3592 43.1208 27.4211 43.8567 28.1766C44.6028 28.9219 45.4971 29.2946 46.5397 29.2946C47.112 29.2946 47.618 29.2027 48.0575 29.0189C48.5072 28.8352 48.8547 28.5952 49.1 28.2991C49.3555 27.9928 49.5446 27.6865 49.6672 27.3802C49.8001 27.0739 49.8768 26.7676 49.8972 26.4613H46.1257V25.1136H51.323V30.4279ZM54.9971 28.682C55.4468 29.1415 55.9936 29.3712 56.6376 29.3712C57.2815 29.3712 57.8232 29.1415 58.2627 28.682C58.7124 28.2124 58.9373 27.564 58.9373 26.737C58.9373 25.9202 58.7124 25.2821 58.2627 24.8226C57.8232 24.353 57.2815 24.1181 56.6376 24.1181C55.9936 24.1181 55.4468 24.353 54.9971 24.8226C54.5576 25.2821 54.3379 25.9202 54.3379 26.737C54.3379 27.564 54.5576 28.2124 54.9971 28.682ZM53.9239 23.9497C54.6394 23.2043 55.5439 22.8317 56.6376 22.8317C57.7312 22.8317 58.6306 23.2043 59.3359 23.9497C60.0513 24.6848 60.409 25.6139 60.409 26.737C60.409 27.8703 60.0564 28.8096 59.3512 29.555C58.646 30.2901 57.7414 30.6576 56.6376 30.6576C55.5337 30.6576 54.6292 30.2901 53.9239 29.555C53.2187 28.8096 52.8661 27.8703 52.8661 26.737C52.8661 25.6139 53.2187 24.6848 53.9239 23.9497ZM63.7707 28.682C64.2204 29.1415 64.7672 29.3712 65.4111 29.3712C66.055 29.3712 66.5967 29.1415 67.0362 28.682C67.486 28.2124 67.7108 27.564 67.7108 26.737C67.7108 25.9202 67.486 25.2821 67.0362 24.8226C66.5967 24.353 66.055 24.1181 65.4111 24.1181C64.7672 24.1181 64.2204 24.353 63.7707 24.8226C63.3312 25.2821 63.1114 25.9202 63.1114 26.737C63.1114 27.564 63.3312 28.2124 63.7707 28.682ZM62.6975 23.9497C63.413 23.2043 64.3175 22.8317 65.4111 22.8317C66.5048 22.8317 67.4042 23.2043 68.1094 23.9497C68.8249 24.6848 69.1826 25.6139 69.1826 26.737C69.1826 27.8703 68.83 28.8096 68.1248 29.555C67.4195 30.2901 66.515 30.6576 65.4111 30.6576C64.3073 30.6576 63.4027 30.2901 62.6975 29.555C61.9923 28.8096 61.6396 27.8703 61.6396 26.737C61.6396 25.6139 61.9923 24.6848 62.6975 23.9497ZM70.4899 30.8261L71.885 30.5045C71.9361 31.0252 72.1456 31.454 72.5136 31.791C72.8815 32.1381 73.3415 32.3117 73.8934 32.3117C75.3959 32.3117 76.1471 31.5153 76.1471 29.9225V28.8658C75.9631 29.2231 75.6718 29.5141 75.2732 29.7387C74.8848 29.9634 74.4249 30.0757 73.8934 30.0757C72.9122 30.0757 72.0996 29.7439 71.4557 29.0802C70.822 28.4063 70.5052 27.5487 70.5052 26.5073C70.5052 25.4965 70.822 24.6491 71.4557 23.965C72.0894 23.2707 72.902 22.9236 73.8934 22.9236C75.0177 22.9236 75.774 23.3115 76.1624 24.0875V23.0614H77.5884V29.8766C77.5884 30.3667 77.5219 30.821 77.3891 31.2396C77.2664 31.6684 77.0671 32.0615 76.791 32.4189C76.515 32.7762 76.1266 33.057 75.6258 33.2612C75.1352 33.4654 74.5578 33.5675 73.8934 33.5675C72.9837 33.5675 72.2121 33.3072 71.5784 32.7864C70.9447 32.2759 70.5818 31.6225 70.4899 30.8261ZM74.108 28.8658C74.7315 28.8658 75.2374 28.6514 75.6258 28.2226C76.0142 27.7835 76.2084 27.2118 76.2084 26.5073C76.2084 25.8028 76.0142 25.2361 75.6258 24.8073C75.2374 24.3683 74.7315 24.1488 74.108 24.1488C73.4743 24.1488 72.9582 24.3632 72.5596 24.792C72.1712 25.2208 71.977 25.7926 71.977 26.5073C71.977 27.2322 72.1661 27.8091 72.5442 28.2379C72.9326 28.6565 73.4539 28.8658 74.108 28.8658ZM81.3307 30.4279H79.8895V19.3398H81.3307V30.4279ZM84.7174 25.9866H88.7495C88.7291 25.4352 88.5451 24.986 88.1976 24.6388C87.8501 24.2815 87.3595 24.1028 86.7258 24.1028C86.1534 24.1028 85.6833 24.2917 85.3153 24.6695C84.9474 25.037 84.7481 25.4761 84.7174 25.9866ZM88.9642 27.9009L90.206 28.3298C89.9914 29.0138 89.5927 29.5754 89.0102 30.0144C88.4276 30.4432 87.7223 30.6576 86.8944 30.6576C85.8621 30.6576 84.9832 30.3054 84.2575 29.6009C83.542 28.8862 83.1843 27.9265 83.1843 26.7217C83.1843 25.5986 83.5318 24.6695 84.2268 23.9344C84.9218 23.1992 85.7497 22.8317 86.7105 22.8317C87.8245 22.8317 88.6933 23.1839 89.3168 23.8884C89.9403 24.5827 90.252 25.5169 90.252 26.6911C90.252 26.8748 90.2418 27.028 90.2213 27.1505H84.6714C84.6816 27.804 84.8963 28.34 85.3153 28.7586C85.7446 29.1772 86.271 29.3865 86.8944 29.3865C87.9472 29.3865 88.6371 28.8913 88.9642 27.9009ZM97.5803 24.6388H99.7574C100.401 24.6388 100.912 24.4755 101.29 24.1488C101.669 23.8118 101.858 23.3626 101.858 22.801C101.858 22.2293 101.669 21.7749 101.29 21.438C100.912 21.0909 100.401 20.9173 99.7574 20.9173H97.5803V24.6388ZM100.033 25.9866H97.5803V30.4279H96.0779V19.5696H100.033C101.025 19.5696 101.832 19.8759 102.456 20.4885C103.079 21.1011 103.391 21.8668 103.391 22.7857C103.391 23.7148 103.079 24.4806 102.456 25.083C101.832 25.6854 101.025 25.9866 100.033 25.9866ZM106.364 30.4279H104.923V19.3398H106.364V30.4279ZM108.355 28.4523C108.355 27.8193 108.56 27.3139 108.969 26.9361C109.377 26.5481 109.919 26.3082 110.594 26.2163L112.587 25.9253C112.965 25.8743 113.154 25.6905 113.154 25.374C113.154 24.986 113.021 24.6695 112.755 24.4244C112.49 24.1794 112.091 24.0569 111.56 24.0569C111.069 24.0569 110.681 24.1947 110.394 24.4704C110.108 24.7358 109.939 25.0932 109.888 25.5424L108.509 25.2208C108.58 24.5163 108.902 23.9446 109.474 23.5055C110.047 23.0563 110.732 22.8317 111.529 22.8317C112.571 22.8317 113.343 23.0869 113.844 23.5974C114.345 24.0977 114.595 24.7409 114.595 25.5271V29.218C114.595 29.6571 114.626 30.0604 114.687 30.4279H113.277C113.226 30.1216 113.2 29.7898 113.2 29.4324C112.996 29.7592 112.694 30.0451 112.295 30.2901C111.907 30.5351 111.416 30.6576 110.824 30.6576C110.098 30.6576 109.505 30.4432 109.045 30.0144C108.585 29.5754 108.355 29.0547 108.355 28.4523ZM111.023 29.4478C111.667 29.4478 112.183 29.2742 112.571 28.9271C112.96 28.5799 113.154 28.0286 113.154 27.273V26.9361L110.9 27.273C110.573 27.3241 110.313 27.4415 110.118 27.6253C109.924 27.8091 109.827 28.0592 109.827 28.3757C109.827 28.6616 109.934 28.9117 110.149 29.1261C110.374 29.3406 110.665 29.4478 111.023 29.4478ZM118.531 33.5062H116.952L118.791 29.6162L115.618 23.0614H117.274L119.573 28.146L121.781 23.0614H123.33L118.531 33.5062Z" fill="white"/>
<path opacity="0.6" d="M45.4822 13.6498V11.497H43.4147V12.1971H44.7229C44.6762 12.4888 44.3783 13.0022 43.6132 13.0022C42.9182 13.0022 42.305 12.518 42.305 11.5845C42.305 10.6043 42.9825 10.1784 43.6074 10.1784C44.2791 10.1784 44.6236 10.6043 44.7288 10.9719L45.4997 10.6977C45.2953 10.0617 44.6937 9.42578 43.6074 9.42578C42.486 9.42578 41.4873 10.2484 41.4873 11.5845C41.4873 12.9205 42.4393 13.7373 43.5548 13.7373C44.1798 13.7373 44.5886 13.4573 44.7755 13.1772L44.8281 13.6498H45.4822ZM49.9837 13.6498V12.8914H48.1966V11.9345H49.8144V11.2169H48.1966V10.2718H49.9837V9.5133H47.3906V13.6498H49.9837ZM55.0022 10.2776V9.5133H51.5738V10.2776H52.8821V13.6498H53.6939V10.2776H55.0022ZM60.0204 13.6498V9.5133H59.2027V13.6498H60.0204ZM65.109 10.2776V9.5133H61.6806V10.2776H62.9889V13.6498H63.8007V10.2776H65.109ZM69.8993 11.5786C69.8993 10.6451 70.5535 10.2017 71.1901 10.2017C71.8325 10.2017 72.4867 10.6451 72.4867 11.5786C72.4867 12.5121 71.8325 12.9555 71.1901 12.9555C70.5535 12.9555 69.8993 12.5121 69.8993 11.5786ZM69.0641 11.5845C69.0641 12.9147 70.0687 13.7373 71.1901 13.7373C72.3173 13.7373 73.3218 12.9147 73.3218 11.5845C73.3218 10.2484 72.3173 9.42578 71.1901 9.42578C70.0687 9.42578 69.0641 10.2484 69.0641 11.5845ZM78.6495 13.6498V9.5133H77.8435V12.2496L76.1203 9.5133H75.1158V13.6498H75.9217V10.7152L77.8027 13.6498H78.6495Z" fill="white"/>
<path d="M17.9403 30.127C17.5079 30.4061 16.9885 30.4905 16.5013 30.3756L25.0628 21.8232L27.8375 24.595L17.9403 30.127Z" fill="white"/>
<path d="M15.4385 29.679C15.1997 29.3619 15.0623 28.9726 15.0623 28.5607V13.3264C15.0623 12.9145 15.1997 12.5251 15.4385 12.208L24.1833 20.9435L15.4385 29.679Z" fill="white"/>
<path d="M31.4584 22.5709L28.9646 23.9648L25.9415 20.9449L28.9649 17.9248L31.4589 19.3188C32.0564 19.6531 32.4131 20.261 32.4131 20.9449C32.4131 21.6287 32.0564 22.2365 31.4584 22.5709Z" fill="white"/>
<path d="M25.0622 20.0665L16.5013 11.5146C16.6416 11.4816 16.7845 11.4639 16.9273 11.4639C17.2803 11.4639 17.6321 11.5641 17.9398 11.7627L27.8371 17.2946L25.0622 20.0665Z" fill="white"/>
</svg>
