<svg width="24" height="24" viewBox="0 0 24 24" fill="none" xmlns="http://www.w3.org/2000/svg">
<path fill-rule="evenodd" clip-rule="evenodd" d="M19.7207 17.5903C19.7271 17.5905 19.7334 17.5908 19.7398 17.5912C19.8017 17.5955 19.8604 17.6109 19.9139 17.6355C19.974 17.663 20.0296 17.703 20.0767 17.7552C20.1211 17.8045 20.1539 17.8602 20.1753 17.919C20.1967 17.9777 20.2074 18.0415 20.205 18.1078C20.2003 18.2416 20.1434 18.3613 20.0545 18.4479C20.0494 18.453 20.0441 18.4579 20.0387 18.4627C19.2497 19.1737 18.3139 19.7474 17.2562 20.1324C12.8449 21.738 7.96719 19.4635 6.36161 15.0522C4.75602 10.6409 7.03051 5.7632 11.4418 4.15761C12.5002 3.7724 13.5866 3.61038 14.6486 3.64816C14.7188 3.65066 14.7852 3.66754 14.8449 3.69587C14.8999 3.7219 14.951 3.75843 14.9951 3.80532C15.0017 3.81237 15.0081 3.81961 15.0143 3.82704C15.0873 3.91419 15.1309 4.02635 15.1308 4.148C15.1308 4.15327 15.1307 4.15855 15.1305 4.16381C15.1305 4.16674 15.1303 4.16967 15.1302 4.17259L15.13 4.1761C15.1264 4.24034 15.1107 4.30116 15.0853 4.35645C15.0578 4.41654 15.0178 4.47213 14.9656 4.5192C12.7626 6.50545 11.8632 9.70105 12.9395 12.658C14.0154 15.6142 16.7573 17.4839 19.7207 17.5903ZM11.7838 5.0973C7.89151 6.514 5.8846 10.8178 7.3013 14.7102C8.71799 18.6025 13.0218 20.6094 16.9141 19.1927C17.4529 18.9966 17.9552 18.7454 18.4172 18.4479C15.5668 17.9095 13.0643 15.9248 11.9998 13.0001C10.9352 10.0753 11.5765 6.94635 13.414 4.70174C12.8689 4.77076 12.3226 4.90121 11.7838 5.0973Z" fill="#0033AA"/>
</svg>
